<?xml version="1.0" standalone="no"?>
<!DOCTYPE svg PUBLIC "-//W3C//DTD SVG 1.1//EN" "http://www.w3.org/Graphics/SVG/1.1/DTD/svg11.dtd" >
<svg xmlns="http://www.w3.org/2000/svg" xmlns:xlink="http://www.w3.org/1999/xlink" version="1.1">
<metadata>
Created by FontForge 20150318 at Mon Aug 17 20:48:49 2015
 By uniteet7
Copyright  2006 Canada Type. All rights reserved.
</metadata>
<defs>
<font id="coconut" horiz-adv-x="701" >
  <font-face 
    font-family="coconut"
    font-weight="400"
    font-stretch="normal"
    units-per-em="1000"
    panose-1="2 0 5 6 0 0 0 2 0 4"
    ascent="800"
    descent="-200"
    x-height="599"
    cap-height="600"
    bbox="-133 -203 1789 906"
    underline-thickness="50"
    underline-position="-50"
    unicode-range="U+0020-FB02"
  />
<missing-glyph horiz-adv-x="300" 
 />
    <glyph glyph-name=".notdef" horiz-adv-x="300" 
 />
    <glyph glyph-name=".null" horiz-adv-x="0" 
 />
    <glyph glyph-name="nonmarkingreturn" horiz-adv-x="300" 
 />
    <glyph glyph-name="space" unicode=" " horiz-adv-x="300" 
 />
    <glyph glyph-name="exclam" unicode="!" horiz-adv-x="300" 
d="M155 600q19 0 36.5 -7.5t30.5 -20t20.5 -30t7.5 -37.5v-220q0 -26 -9 -44t-24 -29.5t-34 -16.5t-38 -5t-36.5 7.5t-30.5 20t-20.5 30t-7.5 37.5v220q0 26 9 44t24 29.5t34 16.5t38 5zM155 180q19 0 36.5 -7.5t30.5 -20t20.5 -30t7.5 -37.5q0 -26 -9 -44t-24 -29.5
t-34 -16.5t-38 -5t-36.5 7.5t-30.5 20t-20.5 30t-7.5 37.5q0 26 9 44t24 29.5t34 16.5t38 5z" />
    <glyph glyph-name="quotedbl" unicode="&#x22;" horiz-adv-x="501" 
d="M120 448q-19 0 -36.5 7.5t-30.5 20t-20.5 30t-7.5 37.5v105q0 26 9 44t24 29.5t34 16.5t38 5t36.5 -7.5t30.5 -20t20.5 -30t7.5 -37.5v-105q0 -26 -9 -44t-24 -29.5t-34 -16.5t-38 -5zM371 448q-19 0 -36.5 7.5t-30.5 20t-20.5 30t-7.5 37.5v105q0 26 9 44t24 29.5
t34 16.5t38 5t36.5 -7.5t30.5 -20t20.5 -30t7.5 -37.5v-105q0 -26 -9 -44t-24 -29.5t-34 -16.5t-38 -5z" />
    <glyph glyph-name="numbersign" unicode="#" horiz-adv-x="671" 
d="M461 606q31 0 53.5 -22t22.5 -54v-29h33q21 0 35.5 -7.5t23.5 -19.5t13 -27t4 -30q0 -31 -22 -53.5t-54 -22.5h-33v-80h33q21 0 35.5 -7.5t23.5 -19.5t13 -27t4 -30q0 -31 -22 -53.5t-54 -22.5h-33v-35q0 -21 -7.5 -35.5t-19.5 -23.5t-27 -13t-30 -4q-31 0 -53.5 22
t-22.5 54v35h-80v-35q0 -21 -7.5 -35.5t-19.5 -23.5t-27 -13t-30 -4q-31 0 -53.5 22t-22.5 54v35h-34q-21 0 -35.5 7.5t-23.5 19.5t-13 27t-4 30q0 31 22 53.5t54 22.5h34v80h-34q-21 0 -35.5 7.5t-23.5 19.5t-13 27t-4 30q0 31 22 53.5t54 22.5h34v29q0 21 7.5 35.5
t19.5 23.5t27 13t30 4q31 0 53.5 -22t22.5 -54v-29h80v29q0 21 7.5 35.5t19.5 23.5t27 13t30 4zM297 261h80v80h-80v-80z" />
    <glyph glyph-name="dollar" unicode="$" horiz-adv-x="577" 
d="M225 245q-44 0 -80.5 12.5t-63 36t-41.5 57.5t-15 76q0 41 16.5 73t45 54t66.5 33.5t82 11.5h27v39q0 17 11.5 24.5t24.5 7.5q14 0 23.5 -9t9.5 -23v-39h112q20 0 37.5 -7.5t30 -20.5t20 -30.5t7.5 -36.5q0 -20 -5 -38.5t-16.5 -33t-29.5 -23t-44 -8.5h-142
q-29 0 -48.5 -4.5t-19.5 -19.5q0 -16 19.5 -19.5t48.5 -3.5h51q44 0 80.5 -12.5t63 -36t41.5 -57.5t15 -76q0 -41 -16.5 -73t-45 -54t-66.5 -33.5t-82 -11.5h-11v-37q0 -17 -11 -24t-25 -7t-23.5 9t-9.5 22v37h-128q-20 0 -37.5 7.5t-30 20.5t-20 30.5t-7.5 36.5
q0 20 5 38.5t16.5 33t29.5 23t44 8.5h142q29 0 48.5 4.5t19.5 19.5q0 17 -19.5 20t-48.5 3h-51z" />
    <glyph glyph-name="percent" unicode="%" horiz-adv-x="604" 
d="M537 508q0 -28 -14 -50l-266 -424q-15 -24 -34.5 -34.5t-40.5 -10.5t-40.5 8t-35 21.5t-24.5 32.5t-9 40q0 28 14 49l266 423q16 25 36 35.5t40 10.5q22 0 41.5 -8t34.5 -21.5t23.5 -32t8.5 -39.5zM131 599q19 0 36.5 -7.5t30.5 -20t20.5 -30t7.5 -37.5q0 -26 -9 -44
t-24 -29.5t-34 -16.5t-38 -5t-36.5 7.5t-30.5 20t-20.5 30t-7.5 37.5q0 26 9 44t24 29.5t34 16.5t38 5zM483 180q19 0 36.5 -7.5t30.5 -20t20.5 -30t7.5 -37.5q0 -26 -9 -44t-24 -29.5t-34 -16.5t-38 -5t-36.5 7.5t-30.5 20t-20.5 30t-7.5 37.5q0 26 9 44t24 29.5t34 16.5
t38 5z" />
    <glyph glyph-name="ampersand" unicode="&#x26;" horiz-adv-x="598" 
d="M460 -145q-19 0 -36.5 7.5t-30.5 20t-20.5 30t-7.5 37.5v50h-105q-44 0 -82 13t-66.5 36.5t-45 56.5t-16.5 74q0 15 3 33.5t11 35.5t21.5 31t34.5 20q-21 8 -34.5 22t-21.5 30.5t-11 34t-3 32.5q0 41 16.5 74t45 56.5t66.5 36.5t82 13h208q20 0 37.5 -7.5t30 -20.5
t20 -30.5t7.5 -36.5q0 -20 -5 -38.5t-16.5 -33t-29.5 -23t-44 -8.5h-142q-38 0 -56.5 -9.5t-18.5 -36.5h245q29 0 41.5 -18t12.5 -39t-15.5 -37t-38.5 -16h-245q0 -29 18.5 -37.5t56.5 -8.5h142q20 0 37.5 -7.5t30 -20.5t20 -30t7.5 -36v-1q1 -4 1.5 -37.5t0.5 -116.5
q0 -26 -9 -44t-24 -29.5t-34 -16.5t-38 -5z" />
    <glyph glyph-name="quotesingle" unicode="'" horiz-adv-x="250" 
d="M120 447q-19 0 -36.5 7.5t-30.5 20t-20.5 30t-7.5 37.5v105q0 26 9 44t24 29.5t34 16.5t38 5t36.5 -7.5t30.5 -20t20.5 -30t7.5 -37.5v-105q0 -26 -9 -44t-24 -29.5t-34 -16.5t-38 -5z" />
    <glyph glyph-name="parenleft" unicode="(" horiz-adv-x="328" 
d="M423 704q0 -20 -5 -38.5t-16.5 -33t-29.5 -23t-44 -8.5h-2q-46 0 -61 -15t-15 -59v-455q0 -23 3.5 -37t12 -22t23.5 -11t37 -3h2q20 0 37.5 -7.5t30 -20.5t20 -30t7.5 -36t-5 -38t-16.5 -34t-29.5 -24t-44 -9h-68q-44 0 -82 17.5t-66.5 46.5t-45 67t-16.5 79v579
q0 41 16.5 79t45 67t66.5 46.5t82 17.5h68q20 0 37.5 -7.5t30 -20.5t20 -30.5t7.5 -36.5z" />
    <glyph glyph-name="parenright" unicode=")" horiz-adv-x="328" 
d="M-91 704q0 19 7.5 36.5t20 30.5t30 20.5t37.5 7.5h68q44 0 82 -17.5t66.5 -46.5t45 -67t16.5 -79v-579q0 -41 -16.5 -79t-45 -67t-66.5 -46.5t-82 -17.5h-68q-26 0 -44 9t-29.5 24t-16.5 34t-5 38t7.5 36t20 30t30 20.5t37.5 7.5h2q23 0 37.5 3t23 11t12 22t3.5 37v455
q0 22 -3 36.5t-11.5 22.5t-23.5 11.5t-38 3.5h-2q-26 0 -44 8.5t-29.5 23t-16.5 33t-5 38.5z" />
    <glyph glyph-name="asterisk" unicode="*" horiz-adv-x="300" 
d="M155 824q19 0 36.5 -7.5t30.5 -20t20.5 -30t7.5 -37.5q0 -26 -9 -44t-24 -29.5t-34 -16.5t-38 -5t-36.5 7.5t-30.5 20t-20.5 30t-7.5 37.5q0 26 9 44t24 29.5t34 16.5t38 5z" />
    <glyph glyph-name="plus" unicode="+" horiz-adv-x="556" 
d="M281 552q31 0 53.5 -22t22.5 -54v-95h95q21 0 35.5 -7.5t23.5 -19.5t13 -27t4 -30q0 -31 -22 -53.5t-54 -22.5h-95v-94q0 -21 -7.5 -35.5t-19.5 -23.5t-27 -13t-30 -4q-31 0 -53.5 22t-22.5 54v94h-94q-21 0 -35.5 7.5t-23.5 19.5t-13 27t-4 30q0 31 22 53.5t54 22.5h94
v95q0 21 7.5 35.5t19.5 23.5t27 13t30 4z" />
    <glyph glyph-name="comma" unicode="," horiz-adv-x="250" 
d="M120 -115q-19 0 -36.5 7.5t-30.5 20t-20.5 30t-7.5 37.5v105q0 26 9 44t24 29.5t34 16.5t38 5t36.5 -7.5t30.5 -20t20.5 -30t7.5 -37.5v-105q0 -26 -9 -44t-24 -29.5t-34 -16.5t-38 -5z" />
    <glyph glyph-name="hyphen" unicode="-" horiz-adv-x="393" 
d="M365 257q0 -31 -22 -53.5t-54 -22.5h-186q-21 0 -35.5 7.5t-23.5 19.5t-13 27t-4 30q0 31 22 53.5t54 22.5h186q21 0 35.5 -7.5t23.5 -19.5t13 -27t4 -30z" />
    <glyph glyph-name="period" unicode="." horiz-adv-x="250" 
d="M130 180q19 0 36.5 -7.5t30.5 -20t20.5 -30t7.5 -37.5q0 -26 -9 -44t-24 -29.5t-34 -16.5t-38 -5t-36.5 7.5t-30.5 20t-20.5 30t-7.5 37.5q0 26 9 44t24 29.5t34 16.5t38 5z" />
    <glyph glyph-name="slash" unicode="/" horiz-adv-x="465" 
d="M465 508q0 -28 -14 -50l-266 -424q-15 -24 -34.5 -34.5t-40.5 -10.5t-40.5 8t-35 21.5t-24.5 32.5t-9 40q0 28 14 49l266 423q16 25 36 35.5t40 10.5q22 0 41.5 -8t34.5 -21.5t23.5 -32t8.5 -39.5z" />
    <glyph glyph-name="zero" unicode="0" 
d="M260 0q-39 0 -77 15t-67.5 42.5t-47.5 66t-18 86.5v180q0 44 17.5 82t46.5 66.5t67 45t79 16.5h181q41 0 79 -16.5t67 -45t46.5 -66.5t17.5 -82v-180q0 -48 -18 -86.5t-47.5 -66t-67.5 -42.5t-77 -15h-181zM322 400q-22 0 -36.5 -3t-22.5 -11.5t-11.5 -23.5t-3.5 -38v-50
q0 -24 3.5 -39t12 -23t23 -10.5t35.5 -2.5h57q21 0 35.5 2.5t23 10.5t12 23t3.5 39v50q0 23 -3.5 38t-11.5 23.5t-22.5 11.5t-36.5 3h-57z" />
    <glyph glyph-name="one" unicode="1" horiz-adv-x="484" 
d="M339 -10q-19 0 -38 5t-34 16.5t-24 29.5t-9 44v242q0 22 -3 36.5t-11.5 22.5t-23.5 11.5t-38 3.5h-12q-26 0 -44 8.5t-29.5 23t-16.5 33t-5 38.5q0 19 7.5 36.5t20 30.5t30 20.5t37.5 7.5h78q44 0 82 -17.5t66.5 -46.5t45 -67t16.5 -79v-304q0 -20 -7.5 -37.5t-20.5 -30
t-30.5 -20t-36.5 -7.5z" />
    <glyph glyph-name="two" unicode="2" horiz-adv-x="554" 
d="M527 76q0 -31 -22 -53.5t-54 -22.5h-346q-14 1 -25 9.5t-19 20.5t-12 27t-4 30q0 31 30 62l177 163q7 6 11 15t4 23q0 21 -14.5 35t-35.5 14h-97q-26 0 -44 9t-29.5 23.5t-16.5 33.5t-5 39q0 19 7.5 36.5t20 30.5t30 20.5t37.5 7.5h184q51 0 91 -14t67.5 -40t42 -62.5
t14.5 -80.5q0 -23 -17 -54.5t-44.5 -65t-62.5 -65.5t-72 -57h128q21 0 35.5 -7.5t23.5 -19.5t13 -27t4 -30z" />
    <glyph glyph-name="three" unicode="3" horiz-adv-x="598" 
d="M64 298q0 21 12.5 39t41.5 18h245q0 27 -18.5 36.5t-56.5 9.5h-142q-26 0 -44 8.5t-29.5 23t-16.5 33t-5 38.5q0 19 7.5 36.5t20 30.5t30 20.5t37.5 7.5h208q44 0 82 -13t66.5 -36.5t45 -56.5t16.5 -74q0 -15 -3 -32.5t-11 -34t-21.5 -30.5t-34.5 -22q21 -6 34.5 -20
t21.5 -31t11 -35.5t3 -33.5q0 -41 -16.5 -74t-45 -56.5t-66.5 -36.5t-82 -13h-208q-26 0 -44 9t-29.5 24t-16.5 34t-5 38t7.5 36t20 30t30 20.5t37.5 7.5h142q38 0 56.5 8.5t18.5 37.5h-245q-23 0 -38.5 16t-15.5 37z" />
    <glyph glyph-name="four" unicode="4" horiz-adv-x="596" 
d="M441 -10q-19 0 -36.5 7.5t-30.5 20t-20.5 30t-7.5 37.5v96h-86q-44 0 -82 17.5t-66.5 46.5t-45 67t-16.5 79v114q0 20 7.5 37.5t20.5 30t30.5 20t36.5 7.5t38 -5t34 -16.5t24 -29.5t9 -44v-52q0 -44 15 -59t61 -15h20v126q0 26 9 44t24 29.5t34 16.5t38 5t36.5 -7.5
t30.5 -20t20.5 -30t7.5 -37.5v-420q0 -26 -9 -44t-24 -29.5t-34 -16.5t-38 -5z" />
    <glyph glyph-name="five" unicode="5" horiz-adv-x="577" 
d="M233 401v-47h119q44 0 80.5 -12.5t63 -36t41.5 -57.5t15 -76q0 -41 -16.5 -73t-45 -54t-66.5 -33.5t-82 -11.5h-214q-20 0 -37.5 7.5t-30 20.5t-20 30.5t-7.5 36.5q0 20 5 38.5t16.5 33t29.5 23t44 8.5h148q29 0 48.5 4.5t19.5 19.5q0 17 -19.5 20t-48.5 3h-183
q-23 0 -38.5 15.5t-15.5 36.5v207q0 19 7.5 36.5t20 30.5t30 20.5t37.5 7.5h309q20 0 37.5 -7.5t30 -20.5t20 -30.5t7.5 -36.5q0 -20 -5 -38.5t-16.5 -33t-29.5 -23t-44 -8.5h-210z" />
    <glyph glyph-name="six" unicode="6" horiz-adv-x="643" 
d="M399 354q44 0 80 -6t62 -21.5t40 -42.5t14 -69q0 -67 -15.5 -109t-43.5 -65.5t-65.5 -32t-81.5 -8.5h-127q-44 0 -82 11.5t-66.5 33.5t-45 54t-16.5 73v255q0 41 16.5 73t45 54t66.5 33.5t82 11.5h218q20 0 37.5 -7.5t30 -20.5t20 -30.5t7.5 -36.5q0 -20 -5 -38.5
t-16.5 -33t-29.5 -23t-44 -8.5h-219v-47h138zM391 222q0 14 -13.5 18.5t-33.5 4.5h-33q-23 0 -37 -3t-14 -20t15 -20.5t39 -3.5h33q20 0 32 5t12 19z" />
    <glyph glyph-name="seven" unicode="7" horiz-adv-x="554" 
d="M142 11q-16 16 -27 36.5t-11 42.5q0 34 30 63l161 159q7 6 11 15t4 23q0 21 -14.5 35t-35.5 14h-135q-26 0 -44 9t-29.5 23.5t-16.5 33.5t-5 39q0 19 7.5 36.5t20 30.5t30 20.5t37.5 7.5h184q51 0 91 -19t67.5 -50.5t42 -72.5t14.5 -85q0 -51 -19.5 -102t-61.5 -93
l-167 -166q-14 -14 -31.5 -21t-35.5 -7q-39 0 -67 28z" />
    <glyph glyph-name="eight" unicode="8" horiz-adv-x="646" 
d="M260 0q-44 0 -82 13t-66.5 36.5t-45 56.5t-16.5 74q0 15 3 33.5t11 35.5t21.5 31t34.5 20q-21 8 -34.5 22t-21.5 30.5t-11 34t-3 32.5q0 41 16.5 74t45 56.5t66.5 36.5t82 13h126q44 0 82 -13t66.5 -36.5t45 -56.5t16.5 -74q0 -15 -3 -32.5t-11 -34t-21.5 -30.5
t-34.5 -22q21 -6 34.5 -20t21.5 -31t11 -35.5t3 -33.5q0 -41 -16.5 -74t-45 -56.5t-66.5 -36.5t-82 -13h-126zM251 245q0 -26 16 -36t48 -10h5q38 0 56.5 8.5t18.5 37.5h-144zM326 401q-38 0 -56.5 -9.5t-18.5 -36.5h144q0 25 -16 34.5t-48 11.5h-5z" />
    <glyph glyph-name="nine" unicode="9" horiz-adv-x="643" 
d="M239 245q-44 0 -80 6t-62 21.5t-40 42.5t-14 69q0 67 15.5 109t43.5 65.5t65.5 32t81.5 8.5h127q44 0 82 -11.5t66.5 -33.5t45 -54t16.5 -73v-255q0 -41 -16.5 -73t-45 -54t-66.5 -33.5t-82 -11.5h-218q-20 0 -37.5 7.5t-30 20.5t-20 30.5t-7.5 36.5q0 20 5 38.5t16.5 33
t29.5 23t44 8.5h219v47h-138zM247 377q0 -14 13.5 -18.5t33.5 -4.5h33q23 0 37 3t14 20t-15 20.5t-39 3.5h-33q-20 0 -32 -5t-12 -19z" />
    <glyph glyph-name="colon" unicode=":" horiz-adv-x="250" 
d="M130 180q19 0 36.5 -7.5t30.5 -20t20.5 -30t7.5 -37.5q0 -26 -9 -44t-24 -29.5t-34 -16.5t-38 -5t-36.5 7.5t-30.5 20t-20.5 30t-7.5 37.5q0 26 9 44t24 29.5t34 16.5t38 5zM130 506q19 0 36.5 -7.5t30.5 -20t20.5 -30t7.5 -37.5q0 -26 -9 -44t-24 -29.5t-34 -16.5
t-38 -5t-36.5 7.5t-30.5 20t-20.5 30t-7.5 37.5q0 26 9 44t24 29.5t34 16.5t38 5z" />
    <glyph glyph-name="semicolon" unicode=";" horiz-adv-x="250" 
d="M130 506q19 0 36.5 -7.5t30.5 -20t20.5 -30t7.5 -37.5q0 -26 -9 -44t-24 -29.5t-34 -16.5t-38 -5t-36.5 7.5t-30.5 20t-20.5 30t-7.5 37.5q0 26 9 44t24 29.5t34 16.5t38 5zM120 -115q-19 0 -36.5 7.5t-30.5 20t-20.5 30t-7.5 37.5v105q0 26 9 44t24 29.5t34 16.5t38 5
t36.5 -7.5t30.5 -20t20.5 -30t7.5 -37.5v-105q0 -26 -9 -44t-24 -29.5t-34 -16.5t-38 -5z" />
    <glyph glyph-name="less" unicode="&#x3c;" horiz-adv-x="461" 
d="M420 102q0 -20 -9 -38.5t-23.5 -33t-33.5 -23t-39 -8.5q-17 0 -33 6.5t-32 22.5l-117 116q-30 29 -52 51.5t-36.5 41t-22 33.5t-7.5 29t7.5 29t22 33t36.5 40.5t52 51.5l118 117q16 16 32 22.5t33 6.5q22 0 41.5 -10t35.5 -26q14 -14 21 -31.5t7 -35.5t-7 -36t-21 -32
l-130 -129l129 -129q14 -14 21 -32t7 -36z" />
    <glyph glyph-name="equal" unicode="=" horiz-adv-x="556" 
d="M528 417q0 -31 -22 -53.5t-54 -22.5h-349q-21 0 -35.5 7.5t-23.5 19.5t-13 27t-4 30q0 31 22 53.5t54 22.5h349q21 0 35.5 -7.5t23.5 -19.5t13 -27t4 -30zM528 177q0 -31 -22 -53.5t-54 -22.5h-349q-21 0 -35.5 7.5t-23.5 19.5t-13 27t-4 30q0 31 22 53.5t54 22.5h349
q21 0 35.5 -7.5t23.5 -19.5t13 -27t4 -30z" />
    <glyph glyph-name="greater" unicode="&#x3e;" horiz-adv-x="461" 
d="M31 496q0 20 9 39t23.5 33t33.5 22.5t39 8.5q17 0 33 -6.5t32 -22.5l117 -116q30 -29 52 -51.5t36.5 -41t22 -33.5t7.5 -29t-7.5 -29t-22 -33t-36.5 -40.5t-52 -51.5l-118 -117q-16 -16 -32 -22.5t-33 -6.5q-22 0 -41.5 10t-35.5 26q-14 14 -21 31.5t-7 35.5t7 36t21 32
l130 129l-129 129q-14 14 -21 32t-7 36z" />
    <glyph glyph-name="question" unicode="?" horiz-adv-x="554" 
d="M277 150q-16 16 -27 36.5t-11 42.5q0 34 30 63l21 20q7 6 11 15t4 23q0 21 -14.5 35t-35.5 14h-135q-26 0 -44 9t-29.5 23.5t-16.5 33.5t-5 39q0 19 7.5 36.5t20 30.5t30 20.5t37.5 7.5h184q51 0 91 -19t67.5 -50.5t42 -72.5t14.5 -85q0 -51 -19.5 -102t-61.5 -93
l-27 -27q-14 -14 -31.5 -21t-35.5 -7q-39 0 -67 28zM159 180q19 0 36.5 -7.5t30.5 -20t20.5 -30t7.5 -37.5q0 -26 -9 -44t-24 -29.5t-34 -16.5t-38 -5t-36.5 7.5t-30.5 20t-20.5 30t-7.5 37.5q0 26 9 44t24 29.5t34 16.5t38 5z" />
    <glyph glyph-name="at" unicode="@" horiz-adv-x="1100" 
d="M400 -199q-66 0 -128.5 25t-112 71t-79.5 110.5t-30 143.5v299q0 73 29 137t78 111t112 74.5t131 27.5h300q68 0 131 -27.5t112 -74.5t78 -111t29 -137v-299q0 -79 -30 -143.5t-79.5 -110.5t-112 -71t-128.5 -25h-300zM619 95q0 20 -5 38.5t-16.5 33t-29.5 23t-44 8.5
q-46 0 -61.5 15t-15.5 59v51q0 23 3.5 38t11.5 23.5t22.5 11.5t36.5 3h55q23 0 37 -3.5t22 -12t11 -23t3 -37.5v-238q0 -20 7.5 -37.5t20.5 -30t30 -20t36 -7.5t38 5t34 16.5t24 29.5t9 44v304q0 44 -17.5 82t-46.5 66.5t-67 45t-79 16.5h-179q-41 0 -79 -16.5t-67.5 -45
t-47 -66.5t-17.5 -82v-179q0 -41 16.5 -79t45 -67t66.5 -46.5t82 -17.5h66q20 0 37.5 7.5t30 20.5t20 30.5t7.5 36.5z" />
    <glyph glyph-name="A" unicode="A" 
d="M556 -10q-20 0 -38.5 5t-33 16.5t-23 29.5t-8.5 44v22h-204v-22q0 -20 -7.5 -37.5t-20.5 -30t-30 -20t-36 -7.5t-38 5t-34 16.5t-24 29.5t-9 44v305q0 44 17.5 82t46.5 66.5t67 45t79 16.5h181q41 0 79 -16.5t67 -45t46.5 -66.5t17.5 -82v-305q0 -20 -7.5 -37.5
t-20.5 -30t-30.5 -20t-36.5 -7.5zM249 307h204v17q0 23 -3.5 38t-11.5 23.5t-22.5 11.5t-36.5 3h-57q-23 0 -37 -3.5t-22 -12t-11 -23t-3 -37.5v-17z" />
    <glyph glyph-name="B" unicode="B" horiz-adv-x="684" 
d="M129 1q-18 0 -33 8t-25 21.5t-15.5 30.5t-5.5 34v410q0 44 24.5 69t56.5 25h293q44 0 82 -13t66.5 -36.5t45 -56.5t16.5 -74q0 -15 -3 -32.5t-11 -34t-21.5 -30.5t-34.5 -22q21 -6 34.5 -20t21.5 -31t11 -35.5t3 -33.5q0 -41 -16.5 -74t-45 -56.5t-66.5 -36.5t-82 -13
h-137t-90.5 0.5t-50 0.5h-17.5zM250 245v-64h108q38 0 56.5 17.5t18.5 46.5h-183zM250 419v-64h183q0 27 -18.5 45.5t-56.5 18.5h-108z" />
    <glyph glyph-name="C" unicode="C" horiz-adv-x="598" 
d="M563 505q0 -20 -5 -38.5t-16.5 -33t-29.5 -23t-44 -8.5h-142q-46 0 -61 -15t-15 -59v-56q0 -23 3.5 -37t12 -22t23.5 -11t37 -3h142q20 0 37.5 -7.5t30 -20.5t20 -30t7.5 -36t-5 -38t-16.5 -34t-29.5 -24t-44 -9h-208q-44 0 -82 17.5t-66.5 46.5t-45 67t-16.5 79v180
q0 41 16.5 79t45 67t66.5 46.5t82 17.5h208q20 0 37.5 -7.5t30 -20.5t20 -30.5t7.5 -36.5z" />
    <glyph glyph-name="D" unicode="D" horiz-adv-x="598" 
d="M354 600q44 0 82 -17.5t66.5 -46.5t45 -67t16.5 -79v-179q0 -41 -16.5 -79t-45 -67.5t-66.5 -47t-82 -17.5h-208q-19 0 -36.5 7.5t-30.5 20.5t-20.5 30.5t-7.5 36.5v410q0 43 26 69t69 26h208zM251 401v-202h37q23 0 38 3.5t23.5 11.5t11.5 22.5t3 36.5v55q0 23 -3.5 37
t-12 22t-23 11t-37.5 3h-37z" />
    <glyph glyph-name="E" unicode="E" horiz-adv-x="598" 
d="M550 298q0 -21 -15.5 -37t-38.5 -16h-245q0 -29 18.5 -37.5t56.5 -8.5h142q20 0 37.5 -7.5t30 -20.5t20 -30t7.5 -36t-5 -38t-16.5 -34t-29.5 -24t-44 -9h-208q-44 0 -82 17.5t-66.5 46.5t-45 67t-16.5 79v179q0 41 16.5 79t45 67t66.5 46.5t82 17.5h208q20 0 37.5 -7.5
t30 -20.5t20 -30.5t7.5 -36.5q0 -20 -5 -38.5t-16.5 -33t-29.5 -23t-44 -8.5h-142q-38 0 -56.5 -9.5t-18.5 -36.5h245q29 0 41.5 -18t12.5 -39z" />
    <glyph glyph-name="F" unicode="F" horiz-adv-x="538" 
d="M250 121v-26q0 -26 -9 -44t-24 -29.5t-34 -16.5t-38 -5t-36.5 7.5t-30.5 20t-20.5 30t-7.5 37.5v295q0 41 16.5 79t45 67t66.5 46.5t82 17.5h158q20 0 37.5 -7.5t30 -20.5t20 -30.5t7.5 -36.5q0 -20 -5 -38.5t-16.5 -33t-29.5 -23t-44 -8.5h-93q-23 0 -37.5 -3.5t-23 -12
t-11.5 -22.5t-3 -36v-9h138q20 0 37.5 -7.5t30 -20.5t20 -30.5t7.5 -36.5q0 -20 -5 -38.5t-16.5 -33t-29.5 -23t-44 -8.5h-138z" />
    <glyph glyph-name="G" unicode="G" horiz-adv-x="699" 
d="M554 371q19 0 36.5 -7.5t30.5 -20t20.5 -30t7.5 -37.5v-66q0 -44 -17.5 -82t-46.5 -66.5t-67 -45t-79 -16.5h-179q-44 0 -82 17.5t-66.5 47t-45 67.5t-16.5 79v179q0 41 16.5 79t45 67t66.5 46.5t82 17.5h284q26 0 44 -9t29.5 -24t16.5 -34t5 -38t-7.5 -36t-20 -30
t-30 -20.5t-37.5 -7.5h-218q-22 0 -37 -3t-23.5 -11t-12 -22t-3.5 -37v-55q0 -44 15 -59t61 -15h51q44 0 59 15.5t15 61.5q0 26 8.5 44t23 29.5t33 16.5t38.5 5z" />
    <glyph glyph-name="H" unicode="H" 
d="M50 515q0 20 7.5 37.5t20.5 30t30.5 20t36.5 7.5q20 0 38.5 -5t33 -16.5t23 -29.5t8.5 -44v-115h204v115q0 20 7.5 37.5t20.5 30t30 20t36 7.5t38 -5t34 -16.5t24 -29.5t9 -44v-430q0 -20 -7.5 -37.5t-20.5 -30t-30.5 -20t-36.5 -7.5q-20 0 -38.5 5t-32.5 16.5
t-22.5 29.5t-8.5 44v115h-204v-115q0 -20 -7.5 -37.5t-20.5 -30t-30 -20t-36 -7.5t-37.5 5t-33.5 16.5t-24 29.5t-9 44z" />
    <glyph glyph-name="I" unicode="I" horiz-adv-x="475" 
d="M355 600q20 0 37.5 -7.5t30 -20.5t20 -30.5t7.5 -36.5q0 -20 -5 -39t-16.5 -33.5t-29.5 -23.5t-44 -9h-17v-200h16q26 0 44 -9t29.5 -23.5t16.5 -33.5t5 -39q0 -19 -7.5 -36.5t-20 -30.5t-30 -20.5t-37.5 -7.5h-233q-20 0 -37.5 7.5t-30 20.5t-20 30.5t-7.5 36.5
q0 20 5 39t16.5 33.5t29.5 23.5t44 9h16v200h-17q-26 0 -44 9t-29.5 23.5t-16.5 33.5t-5 39q0 19 7.5 36.5t20 30.5t30 20.5t37.5 7.5h235z" />
    <glyph glyph-name="J" unicode="J" horiz-adv-x="463" 
d="M318 600q19 0 36.5 -7.5t30.5 -20t20.5 -30t7.5 -37.5v-295q0 -41 -16.5 -79t-45 -67t-66.5 -46.5t-82 -17.5h-83q-20 0 -37.5 7.5t-30 20.5t-20 30.5t-7.5 36.5q0 20 5 38.5t16.5 33t29.5 23t44 8.5h17q23 0 38 3.5t23.5 11.5t11.5 22.5t3 36.5v233q0 26 9 44t24 29.5
t34 16.5t38 5z" />
    <glyph glyph-name="K" unicode="K" horiz-adv-x="578" 
d="M145 -10q-19 0 -36.5 7.5t-30.5 20t-20.5 30t-7.5 37.5v429q0 26 9 44t24 29.5t34 16.5t38 5t36.5 -7.5t30.5 -20t20.5 -30t7.5 -37.5v-83l130 139q15 17 31.5 23t33.5 6q20 0 39 -8.5t33.5 -22.5t23.5 -33t9 -39q0 -18 -7 -36t-21 -32l-129 -129l137 -135q14 -14 21 -32
t7 -36t-7 -35.5t-21 -31.5q-16 -16 -35.5 -26t-41.5 -10q-17 0 -33.5 6t-31.5 23l-138 146v-83q0 -26 -9 -44t-24 -29.5t-34 -16.5t-38 -5z" />
    <glyph glyph-name="L" unicode="L" horiz-adv-x="528" 
d="M145 600q19 0 38 -5t34 -16.5t24 -29.5t9 -44v-233q0 -44 15 -59t61 -15h82q26 0 44 -8.5t29.5 -23t16.5 -33t5 -38.5q0 -19 -7.5 -36.5t-20 -30.5t-30 -20.5t-37.5 -7.5h-148q-44 0 -82 17.5t-66.5 46.5t-45 67t-16.5 79v295q0 20 7.5 37.5t20.5 30t30.5 20t36.5 7.5z
" />
    <glyph glyph-name="M" unicode="M" horiz-adv-x="760" 
d="M380 410l147 165q15 14 37 20t42 6q21 0 40 -8.5t33 -22.5t22.5 -33.5t8.5 -42.5v-399q0 -20 -8 -37.5t-21 -30t-30.5 -20t-36.5 -7.5q-20 0 -38.5 5t-33 16.5t-23.5 29.5t-9 44v199q-14 -21 -30 -47t-33 -49.5t-34 -39.5t-33 -16q-17 0 -34.5 16t-34 39t-32 49.5
t-29.5 47.5v-199q0 -26 -9 -44t-23.5 -29.5t-33 -16.5t-38.5 -5q-19 0 -36.5 7.5t-30.5 20t-21 30t-8 37.5v399q0 23 8.5 42.5t22.5 33.5t33 22.5t40 8.5q20 0 42 -6t37 -20z" />
    <glyph glyph-name="N" unicode="N" horiz-adv-x="699" 
d="M451 331v174q0 26 8.5 44t23 29.5t33 16.5t38.5 5q19 0 36.5 -7.5t30.5 -20t20.5 -30t7.5 -37.5v-419q0 -21 -8.5 -38.5t-22.5 -30t-32.5 -20t-38.5 -7.5q-23 0 -43.5 9.5t-34.5 28.5l-219 256v-189q0 -26 -9 -44t-23.5 -29.5t-33 -16.5t-38.5 -5q-19 0 -36.5 7.5
t-30.5 20t-21 30t-8 37.5v399q0 23 8.5 42.5t22.5 33.5t33 22.5t40 8.5q20 0 42 -6t37 -20z" />
    <glyph glyph-name="O" unicode="O" 
d="M260 0q-39 0 -77 15t-67.5 42.5t-47.5 66t-18 86.5v180q0 44 17.5 82t46.5 66.5t67 45t79 16.5h181q41 0 79 -16.5t67 -45t46.5 -66.5t17.5 -82v-180q0 -48 -18 -86.5t-47.5 -66t-67.5 -42.5t-77 -15h-181zM322 400q-22 0 -36.5 -3t-22.5 -11.5t-11.5 -23.5t-3.5 -38v-50
q0 -24 3.5 -39t12 -23t23 -10.5t35.5 -2.5h57q21 0 35.5 2.5t23 10.5t12 23t3.5 39v50q0 23 -3.5 38t-11.5 23.5t-22.5 11.5t-36.5 3h-57z" />
    <glyph glyph-name="P" unicode="P" horiz-adv-x="598" 
d="M50 505q0 44 26 68.5t61 24.5h11t28.5 0.5t63 0.5h114.5q44 0 82 -17t66.5 -49t45 -79t16.5 -106q0 -60 -16.5 -106t-45 -77.5t-66.5 -48t-82 -16.5h-104v-15q0 -26 -9 -44t-24 -29.5t-34 -16.5t-38 -5t-36.5 7.5t-30.5 20t-20.5 30t-7.5 37.5v420zM250 401v-102h38
q39 0 57 9.5t18 40.5t-17.5 41.5t-57.5 10.5h-38z" />
    <glyph glyph-name="Q" unicode="Q" 
d="M349 -119q-31 0 -53.5 22t-22.5 54v43h-13q-39 0 -77 15t-67.5 42.5t-47.5 66t-18 86.5v180q0 44 17.5 82t46.5 66.5t67 45t79 16.5h181q41 0 79 -16.5t67 -45t46.5 -66.5t17.5 -82v-180q0 -48 -18 -86.5t-47.5 -66t-67.5 -42.5t-77 -15h-8v-43q0 -21 -7.5 -35.5
t-19.5 -23.5t-27 -13t-30 -4zM322 400q-22 0 -36.5 -3t-22.5 -11.5t-11.5 -23.5t-3.5 -38v-50q0 -24 3.5 -39t12 -23t23 -10.5t35.5 -2.5h57q21 0 35.5 2.5t23 10.5t12 23t3.5 39v50q0 23 -3.5 38t-11.5 23.5t-22.5 11.5t-36.5 3h-57z" />
    <glyph glyph-name="R" unicode="R" horiz-adv-x="598" 
d="M50 505q0 44 26 68.5t61 24.5h11t28.5 0.5t63 0.5h114.5q44 0 82 -17t66.5 -49t45 -79t16.5 -106q0 -60 -16 -105.5t-44 -77.5l16 -25q14 -21 14 -49q0 -21 -9 -40t-24.5 -32.5t-35 -21.5t-40.5 -8t-40.5 10.5t-34.5 34.5l-42 66h-58v-15q0 -26 -9 -44t-24 -29.5
t-34 -16.5t-38 -5t-36.5 7.5t-30.5 20t-20.5 30t-7.5 37.5v420zM250 401v-102h38q39 0 57 9.5t18 40.5t-17.5 41.5t-57.5 10.5h-38z" />
    <glyph glyph-name="S" unicode="S" horiz-adv-x="577" 
d="M225 245q-44 0 -80.5 12.5t-63 36t-41.5 57.5t-15 76q0 41 16.5 73t45 54t66.5 33.5t82 11.5h208q20 0 37.5 -7.5t30 -20.5t20 -30.5t7.5 -36.5q0 -20 -5 -38.5t-16.5 -33t-29.5 -23t-44 -8.5h-142q-29 0 -48.5 -4.5t-19.5 -19.5q0 -16 19.5 -19.5t48.5 -3.5h51
q44 0 80.5 -12.5t63 -36t41.5 -57.5t15 -76q0 -41 -16.5 -73t-45 -54t-66.5 -33.5t-82 -11.5h-208q-20 0 -37.5 7.5t-30 20.5t-20 30.5t-7.5 36.5q0 20 5 38.5t16.5 33t29.5 23t44 8.5h142q29 0 48.5 4.5t19.5 19.5q0 17 -19.5 20t-48.5 3h-51z" />
    <glyph glyph-name="T" unicode="T" horiz-adv-x="675" 
d="M340 0q-46 0 -74.5 25t-28.5 70v305h-117q-26 0 -44 9t-29.5 23.5t-16.5 33.5t-5 39q0 19 7.5 36.5t20 30.5t30 20.5t37.5 7.5h435q20 0 37.5 -7.5t30 -20.5t20 -30.5t7.5 -36.5q0 -20 -5 -39t-16.5 -33.5t-29.5 -23.5t-44 -9h-117v-305q0 -20 -8 -37.5t-21.5 -30
t-31.5 -20t-37 -7.5z" />
    <glyph glyph-name="U" unicode="U" 
d="M145 610q20 0 38.5 -5t33 -16.5t23 -29.5t8.5 -44v-239q0 -46 15 -61t59 -15h57q23 0 37 3.5t22 12t11 23.5t3 37v239q0 20 7.5 37.5t20.5 30t30 20t36 7.5t38 -5t34 -16.5t24 -29.5t9 -44v-305q0 -44 -17.5 -82t-46.5 -66.5t-67 -45t-79 -16.5h-181q-41 0 -79 16.5
t-67 45t-46.5 66.5t-17.5 82v305q0 20 7.5 37.5t20.5 30t30.5 20t36.5 7.5z" />
    <glyph glyph-name="V" unicode="V" horiz-adv-x="627" 
d="M416 546q14 31 37 43t47 12q21 0 40.5 -7.5t34.5 -20.5t23.5 -31.5t8.5 -39.5q0 -19 -9 -39l-193 -414q-15 -32 -41 -46t-52 -14q-23 0 -48.5 12t-39.5 41q0 -1 3 -6q2 -3 3 -6l-3 6l-11 22t-22 46t-36 78t-54 117.5t-75 164.5q-9 20 -9 39q0 21 8.5 39.5t23.5 31.5
t34.5 20.5t40.5 7.5q24 0 47 -12t37 -43l102 -267z" />
    <glyph glyph-name="W" unicode="W" horiz-adv-x="1012" 
d="M885 601q21 0 40.5 -7.5t34.5 -20.5t23.5 -31.5t8.5 -39.5q0 -19 -9 -39l-193 -414q-15 -32 -41 -46t-52 -14q-22 0 -46 10t-38 35q-2 3 -8 20t-18 48.5t-31.5 79.5t-49.5 114l-101 -247q-14 -33 -40.5 -46.5t-52.5 -13.5q-22 0 -47.5 10t-36.5 35l-199 430q-9 20 -9 39
q0 21 8.5 39.5t23.5 31.5t34.5 20.5t40.5 7.5q24 0 47 -12t37 -43l102 -267l94 241q15 38 43 58t58 20q29 0 55.5 -19t40.5 -57l94 -243l103 266q14 31 37 43t47 12z" />
    <glyph glyph-name="X" unicode="X" horiz-adv-x="662" 
d="M604 35q-16 -16 -35.5 -26t-41.5 -10q-17 0 -33 6.5t-32 22.5l-131 130l-131 -130q-16 -16 -32 -22.5t-33 -6.5q-22 0 -41.5 10t-35.5 26q-14 14 -21 31.5t-7 35.5t7 36t21 32l130 129l-129 129q-14 14 -21 32t-7 36q0 20 9 39t23.5 33t33.5 22.5t39 8.5q17 0 33 -6.5
t32 -22.5l130 -129l130 129q16 16 32 22.5t33 6.5q20 0 39 -8.5t33.5 -22.5t23.5 -33t9 -39q0 -18 -7 -36t-21 -32l-130 -129l131 -129q14 -14 21 -32t7 -36t-7 -35.5t-21 -31.5z" />
    <glyph glyph-name="Y" unicode="Y" 
d="M145 610q20 0 38.5 -5t33 -16.5t23 -29.5t8.5 -44v-89q0 -46 15 -61t59 -15h57q23 0 37 3.5t22 12t11 23.5t3 37v89q0 20 7.5 37.5t20.5 30t30 20t36 7.5t38 -5t34 -16.5t24 -29.5t9 -44v-155q0 -43 -16.5 -80.5t-44 -65.5t-64 -45t-75.5 -19v-65q0 -26 -9 -44t-24 -29.5
t-34 -16.5t-38 -5t-36.5 7.5t-30.5 20t-20.5 30t-7.5 37.5v65q-40 2 -76 19t-64 45t-44.5 65.5t-16.5 80.5v155q0 20 7.5 37.5t20.5 30t30.5 20t36.5 7.5z" />
    <glyph glyph-name="Z" unicode="Z" horiz-adv-x="621" 
d="M351 199h144q26 0 44 -8.5t29.5 -23t16.5 -33t5 -38.5q0 -19 -7.5 -36.5t-20 -30.5t-30 -20.5t-37.5 -7.5h-369q-21 0 -38.5 8.5t-30 22.5t-20 32.5t-7.5 38.5q0 23 9.5 43.5t28.5 34.5l236 219h-174q-26 0 -44 9t-29.5 23.5t-16.5 33t-5 38.5q0 19 7.5 36.5t20 30.5
t30 21t37.5 8h354q23 0 42.5 -8.5t33.5 -22.5t22.5 -33t8.5 -40q0 -20 -6 -42t-20 -37z" />
    <glyph glyph-name="bracketleft" unicode="[" horiz-adv-x="300" 
d="M50 705q0 20 7.5 37.5t20.5 30t30.5 20t36.5 7.5h116q32 0 54 -22.5t22 -53.5q0 -15 -4 -30t-13 -27t-23.5 -19.5t-35.5 -7.5h-11v-680h11q32 0 54 -22.5t22 -53.5q0 -15 -4 -30t-13 -27t-23.5 -19.5t-35.5 -7.5h-116q-37 0 -65.5 25t-29.5 70v810z" />
    <glyph glyph-name="backslash" unicode="\" horiz-adv-x="465" 
d="M1 508q0 21 8.5 39.5t23.5 32t34.5 21.5t41.5 8q20 0 40 -10.5t36 -35.5l266 -423q14 -21 14 -49q0 -21 -9 -40t-24.5 -32.5t-35 -21.5t-40.5 -8t-40.5 10.5t-34.5 34.5l-266 424q-14 22 -14 50z" />
    <glyph glyph-name="bracketright" unicode="]" horiz-adv-x="300" 
d="M250 -105q-1 -45 -29.5 -70t-65.5 -25h-116q-21 0 -35.5 7.5t-23.5 19.5t-13 27t-4 30q0 31 22 53.5t54 22.5h11v680h-11q-21 0 -35.5 7.5t-23.5 19.5t-13 27t-4 30q0 31 22 53.5t54 22.5h116q19 0 36.5 -7.5t30.5 -20t20.5 -30t7.5 -37.5v-810z" />
    <glyph glyph-name="asciicircum" unicode="^" horiz-adv-x="925" 
d="M456 -10q-19 0 -36 7.5t-29.5 20t-20 30t-7.5 37.5v315h-51q-23 0 -35.5 -3.5t-18.5 -12t-7.5 -23t-1.5 -37.5v-239q0 -20 -7.5 -37.5t-20.5 -30t-30 -20t-36 -7.5t-38 5t-34 16.5t-24 29.5t-9 44v305q0 44 17.5 82t46.5 66.5t67 45t79 16.5h405q41 0 79 -16.5t67 -45
t46.5 -66.5t17.5 -82v-305q0 -20 -7.5 -37.5t-20.5 -30t-30.5 -20t-36.5 -7.5q-20 0 -38.5 5t-33 16.5t-23 29.5t-8.5 44v239q0 23 -1.5 38t-8 23.5t-19.5 11.5t-35 3h-50v-315q0 -26 -9.5 -44t-25 -29.5t-34.5 -16.5t-38 -5z" />
    <glyph glyph-name="underscore" unicode="_" horiz-adv-x="393" 
d="M394 -3q0 -31 -22 -53.5t-54 -22.5h-242q-21 0 -35.5 7.5t-23.5 19.5t-13 27t-4 30q0 31 22 53.5t54 22.5h242q21 0 35.5 -7.5t23.5 -19.5t13 -27t4 -30z" />
    <glyph glyph-name="grave" unicode="`" horiz-adv-x="393" 
d="M365 717q0 -31 -22 -53.5t-54 -22.5h-186q-21 0 -35.5 7.5t-23.5 19.5t-13 27t-4 30q0 31 22 53.5t54 22.5h186q21 0 35.5 -7.5t23.5 -19.5t13 -27t4 -30z" />
    <glyph glyph-name="a" unicode="a" horiz-adv-x="700" 
d="M421 95q0 -19 -7.5 -36.5t-20 -30.5t-30 -20.5t-37.5 -7.5h-66q-44 0 -82 17.5t-66.5 46.5t-45 67t-16.5 79v179q0 44 17.5 82t47 66.5t67.5 45t79 16.5h179q41 0 79 -16.5t67 -45t46.5 -66.5t17.5 -82v-304q0 -26 -9 -44t-24 -29.5t-34 -16.5t-38 -5t-36 7.5t-30 20
t-20.5 30t-7.5 37.5v238q0 23 -3 37.5t-11 23t-22 12t-37 3.5h-55q-22 0 -36.5 -3t-22.5 -11.5t-11.5 -23.5t-3.5 -38v-51q0 -44 15.5 -59t61.5 -15q26 0 44 -8.5t29.5 -23t16.5 -33t5 -38.5z" />
    <glyph glyph-name="b" unicode="b" 
d="M155 800q19 0 36.5 -7.5t30.5 -20t20.5 -30t7.5 -37.5v-105h191q41 0 79 -16.5t67 -45t46.5 -66.5t17.5 -82v-180q0 -48 -18 -86.5t-47.5 -66t-67.5 -42.5t-77 -15h-179q-49 0 -88 17.5t-66.5 46.5t-42.5 67t-15 79v495q0 26 9 44t24 29.5t34 16.5t38 5zM251 274
q0 -22 2.5 -37t11 -23t23.5 -11.5t39 -3.5h52q21 0 35.5 2.5t23 10.5t12 23t3.5 39v50q0 23 -3.5 38t-11.5 23.5t-22.5 11.5t-36.5 3h-128v-126z" />
    <glyph glyph-name="c" unicode="c" horiz-adv-x="598" 
d="M563 504q0 -20 -5 -38.5t-16.5 -33t-29.5 -23t-44 -8.5h-142q-46 0 -61 -15t-15 -59v-55q0 -23 3.5 -37t12 -22t23.5 -11t37 -3h142q20 0 37.5 -7.5t30 -20.5t20 -30t7.5 -36t-5 -38t-16.5 -34t-29.5 -24t-44 -9h-208q-44 0 -82 17.5t-66.5 46.5t-45 67t-16.5 79v179
q0 41 16.5 79t45 67t66.5 46.5t82 17.5h208q20 0 37.5 -7.5t30 -20.5t20 -30.5t7.5 -36.5z" />
    <glyph glyph-name="d" unicode="d" 
d="M546 800q19 0 38 -5t34 -16.5t24 -29.5t9 -44v-495q0 -41 -15 -79t-42.5 -67t-66.5 -46.5t-88 -17.5h-179q-39 0 -77 15t-67.5 42.5t-47.5 66t-18 86.5v180q0 44 17.5 82t46.5 66.5t67 45t79 16.5h191v105q0 20 7.5 37.5t20.5 30t30.5 20t36.5 7.5zM450 400h-128
q-22 0 -36.5 -3t-22.5 -11.5t-11.5 -23.5t-3.5 -38v-50q0 -24 3.5 -39t12 -23t23 -10.5t35.5 -2.5h52q24 0 39 3.5t23.5 11.5t11 23t2.5 37v126z" />
    <glyph glyph-name="e" unicode="e" horiz-adv-x="643" 
d="M261 245v-47h229q26 0 44 -8.5t29.5 -23t16.5 -33t5 -38.5q0 -19 -7.5 -36.5t-20 -30.5t-30 -20.5t-37.5 -7.5h-228q-44 0 -82 11.5t-66.5 33.5t-45 54t-16.5 73v255q0 41 16.5 73t45 54t66.5 33.5t82 11.5h127q44 0 81.5 -8.5t65.5 -32t43.5 -65.5t15.5 -109
q0 -42 -14 -69t-40 -42.5t-62 -21.5t-80 -6h-138zM391 377q0 14 -12 19t-32 5h-33q-24 0 -39 -3.5t-15 -20.5t14 -20t37 -3h33q20 0 33.5 4.5t13.5 18.5z" />
    <glyph glyph-name="f" unicode="f" horiz-adv-x="443" 
d="M409 404q0 -20 -5 -38.5t-16.5 -33t-29.5 -23t-44 -8.5h-64v-216q0 -26 -9 -44t-24 -29.5t-34 -16.5t-38 -5t-36.5 7.5t-30.5 20t-20.5 30t-7.5 37.5v505q0 41 16.5 79t45 67t66.5 46.5t82 17.5h78q20 0 37.5 -7.5t30 -20.5t20 -30.5t7.5 -36.5q0 -20 -5 -38.5t-16.5 -33
t-29.5 -23t-44 -8.5h-12q-46 0 -61 -15t-15 -59v-29h64q20 0 37.5 -7.5t30 -20.5t20 -30.5t7.5 -36.5z" />
    <glyph glyph-name="g" unicode="g" horiz-adv-x="700" 
d="M381 113q0 -19 -7.5 -36.5t-20 -30.5t-30 -20.5t-37.5 -7.5h-26q-44 0 -82 17.5t-66.5 46.5t-45 67t-16.5 79v161q0 44 17.5 82t46.5 66.5t67 45t79 16.5h179q41 0 79 -16.5t67.5 -45t47 -66.5t17.5 -82v-378q0 -41 -15 -79t-42.5 -67t-66 -46.5t-86.5 -17.5h-66
q-20 0 -37.5 7.5t-30 20.5t-20 30.5t-7.5 36.5q0 20 5 38.5t16.5 33t29.5 23t44 8.5q23 0 38 3.5t23.5 11.5t12 22.5t3.5 36.5v250q0 23 -3.5 38t-11.5 23.5t-22.5 11.5t-36.5 3h-55q-23 0 -37 -3.5t-22 -12t-11 -23t-3 -37.5v-33q0 -44 10.5 -59t26.5 -15q26 0 44 -8.5
t29.5 -23t16.5 -33t5 -38.5z" />
    <glyph glyph-name="h" unicode="h" horiz-adv-x="700" 
d="M247 600h193q41 0 79 -16.5t67 -45t46.5 -66.5t17.5 -82v-305q0 -20 -7.5 -37.5t-20.5 -30t-30.5 -20t-36.5 -7.5q-20 0 -38.5 5t-33 16.5t-23 29.5t-8.5 44v239q0 23 -3.5 38t-11.5 23.5t-22.5 11.5t-36.5 3h-131v-315q0 -20 -7.5 -37.5t-20 -30t-29.5 -20t-36 -7.5
t-37.5 5t-33.5 16.5t-24 29.5t-9 44v621q0 26 9 44t24 29.5t34 16.5t38 5t36 -7.5t29.5 -20t19.5 -30t7 -37.5v-106z" />
    <glyph glyph-name="i" unicode="i" horiz-adv-x="300" 
d="M145 -10q-19 0 -36.5 7.5t-30.5 20t-20.5 30t-7.5 37.5v420q0 26 9 44t24 29.5t34 16.5t38 5t36.5 -7.5t30.5 -20t20.5 -30t7.5 -37.5v-420q0 -26 -9 -44t-24 -29.5t-34 -16.5t-38 -5z" />
    <glyph glyph-name="j" unicode="j" horiz-adv-x="300" 
d="M155 600q19 0 36.5 -7.5t30.5 -20t20.5 -30t7.5 -37.5v-494q0 -41 -16.5 -79t-45 -67t-66.5 -46.5t-82 -17.5h-78q-20 0 -37.5 7.5t-30 20.5t-20 30.5t-7.5 36.5q0 20 5 38.5t16.5 33t29.5 23t44 8.5h12q23 0 38 3.5t23.5 11.5t11.5 22.5t3 36.5v432q0 26 9 44t24 29.5
t34 16.5t38 5z" />
    <glyph glyph-name="k" unicode="k" horiz-adv-x="578" 
d="M145 -10q-19 0 -36.5 7.5t-30.5 20t-20.5 30t-7.5 37.5v620q0 26 9 44t24 29.5t34 16.5t38 5t36.5 -7.5t30.5 -20t20.5 -30t7.5 -37.5v-274l130 139q15 17 31.5 23t33.5 6q20 0 39 -8.5t33.5 -22.5t23.5 -33t9 -39q0 -18 -7 -36t-21 -32l-129 -129l137 -135
q14 -14 21 -32t7 -36t-7 -35.5t-21 -31.5q-16 -16 -35.5 -26t-41.5 -10q-17 0 -33.5 6t-31.5 23l-138 146v-83q0 -26 -9 -44t-24 -29.5t-34 -16.5t-38 -5z" />
    <glyph glyph-name="l" unicode="l" horiz-adv-x="300" 
d="M145 -10q-19 0 -36.5 7.5t-30.5 20t-20.5 30t-7.5 37.5v620q0 26 9 44t24 29.5t34 16.5t38 5t36.5 -7.5t30.5 -20t20.5 -30t7.5 -37.5v-620q0 -26 -9 -44t-24 -29.5t-34 -16.5t-38 -5z" />
    <glyph glyph-name="m" unicode="m" horiz-adv-x="925" 
d="M465 -10q-19 0 -37 7.5t-32 20t-22.5 30t-8.5 37.5v320h-61q-19 0 -29.5 -3.5t-16 -12t-6.5 -23t-1 -37.5v-244q0 -20 -7.5 -37.5t-20.5 -30t-30 -20t-36 -7.5t-38 5t-34 16.5t-24 29.5t-9 44v310q0 44 17.5 82t46.5 66.5t67 45t79 16.5q25 0 54 -1.5t57.5 -10
t52.5 -26.5t39 -52q12 34 34.5 52t51 26.5t59 10t57.5 1.5q41 0 79 -16.5t67 -45t46.5 -66.5t17.5 -82v-310q0 -20 -7.5 -37.5t-20.5 -30t-30.5 -20t-36.5 -7.5q-20 0 -38.5 5t-33 16.5t-23 29.5t-8.5 44v244q0 23 -1.5 38t-7 23.5t-16.5 11.5t-29 3h-60v-320
q0 -26 -8.5 -44t-22.5 -29.5t-32 -16.5t-37 -5z" />
    <glyph glyph-name="n" unicode="n" 
d="M556 -10q-20 0 -38.5 5t-33 16.5t-23 29.5t-8.5 44v239q0 23 -3.5 38t-11.5 23.5t-22.5 11.5t-36.5 3h-57q-23 0 -37 -3.5t-22 -12t-11 -23t-3 -37.5v-239q0 -20 -7.5 -37.5t-20.5 -30t-30 -20t-36 -7.5t-38 5t-34 16.5t-24 29.5t-9 44v305q0 44 17.5 82t46.5 66.5t67 45
t79 16.5h181q41 0 79 -16.5t67 -45t46.5 -66.5t17.5 -82v-305q0 -20 -7.5 -37.5t-20.5 -30t-30.5 -20t-36.5 -7.5z" />
    <glyph glyph-name="o" unicode="o" 
d="M260 0q-39 0 -77 15t-67.5 42.5t-47.5 66t-18 86.5v180q0 44 17.5 82t46.5 66.5t67 45t79 16.5h181q41 0 79 -16.5t67 -45t46.5 -66.5t17.5 -82v-180q0 -48 -18 -86.5t-47.5 -66t-67.5 -42.5t-77 -15h-181zM322 400q-22 0 -36.5 -3t-22.5 -11.5t-11.5 -23.5t-3.5 -38v-50
q0 -24 3.5 -39t12 -23t23 -10.5t35.5 -2.5h57q21 0 35.5 2.5t23 10.5t12 23t3.5 39v50q0 23 -3.5 38t-11.5 23.5t-22.5 11.5t-36.5 3h-57z" />
    <glyph glyph-name="p" unicode="p" 
d="M155 -200q-19 0 -38 5t-34 16.5t-24 29.5t-9 44v495q0 41 15 79t42.5 67t66.5 46.5t88 17.5h179q39 0 77 -15t67.5 -42.5t47.5 -66t18 -86.5v-180q0 -44 -17.5 -82t-46.5 -66.5t-67 -45t-79 -16.5h-191v-105q0 -20 -7.5 -37.5t-20.5 -30t-30.5 -20t-36.5 -7.5zM251 200
h128q44 0 59 15t15 61v50q0 24 -3.5 39t-12 23t-23 10.5t-35.5 2.5h-52q-24 0 -39 -3.5t-23.5 -11.5t-11 -22.5t-2.5 -37.5v-126z" />
    <glyph glyph-name="q" unicode="q" 
d="M546 -200q-19 0 -36.5 7.5t-30.5 20t-20.5 30t-7.5 37.5v105h-191q-41 0 -79 16.5t-67 45t-46.5 66.5t-17.5 82v180q0 48 18 86.5t47.5 66t67.5 42.5t77 15h179q49 0 88 -17.5t66.5 -46.5t42.5 -67t15 -79v-495q0 -26 -9 -44t-24 -29.5t-34 -16.5t-38 -5zM450 326
q0 23 -2.5 37.5t-11 22.5t-23.5 11.5t-39 3.5h-52q-21 0 -35.5 -2.5t-23 -10.5t-12 -23t-3.5 -39v-50q0 -46 15 -61t59 -15h128v126z" />
    <glyph glyph-name="r" unicode="r" horiz-adv-x="528" 
d="M145 -10q-19 0 -36.5 7.5t-30.5 20t-20.5 30t-7.5 37.5v304q0 41 16.5 79t45 67t66.5 46.5t82 17.5h148q20 0 37.5 -7.5t30 -20.5t20 -30.5t7.5 -36.5q0 -20 -5 -38.5t-16.5 -33t-29.5 -23t-44 -8.5h-82q-46 0 -61 -15t-15 -59v-242q0 -26 -9 -44t-24 -29.5t-34 -16.5
t-38 -5z" />
    <glyph glyph-name="s" unicode="s" horiz-adv-x="554" 
d="M137 588q28 28 67 28q18 0 35.5 -7t31.5 -21l167 -166q42 -42 61.5 -93t19.5 -102q0 -44 -14.5 -85t-42 -72.5t-67.5 -50.5t-91 -19h-184q-20 0 -37.5 7.5t-30 20.5t-20 30.5t-7.5 36.5q0 20 5 39t16.5 33.5t29.5 23.5t44 9h135q21 0 35.5 14t14.5 35q0 14 -4 23t-11 15
l-161 159q-30 29 -30 63q0 22 11 42.5t27 36.5z" />
    <glyph glyph-name="t" unicode="t" horiz-adv-x="458" 
d="M409 496q0 -19 -7.5 -36.5t-20 -30.5t-30 -20.5t-37.5 -7.5h-64v-129q0 -44 15 -59t61 -15h12q26 0 44 -8.5t29.5 -23t16.5 -33t5 -38.5q0 -19 -7.5 -36.5t-20 -30.5t-30 -20.5t-37.5 -7.5h-78q-44 0 -82 17.5t-66.5 46.5t-45 67t-16.5 79v495q0 20 7.5 37.5t20.5 30
t30.5 20t36.5 7.5t38 -5t34 -16.5t24 -29.5t9 -44v-106h64q26 0 44 -8.5t29.5 -23t16.5 -33t5 -38.5z" />
    <glyph glyph-name="u" unicode="u" 
d="M145 610q20 0 38.5 -5t33 -16.5t23 -29.5t8.5 -44v-239q0 -46 15 -61t59 -15h57q23 0 37 3.5t22 12t11 23.5t3 37v239q0 20 7.5 37.5t20.5 30t30 20t36 7.5t38 -5t34 -16.5t24 -29.5t9 -44v-305q0 -44 -17.5 -82t-46.5 -66.5t-67 -45t-79 -16.5h-181q-41 0 -79 16.5
t-67 45t-46.5 66.5t-17.5 82v305q0 20 7.5 37.5t20.5 30t30.5 20t36.5 7.5z" />
    <glyph glyph-name="v" unicode="v" horiz-adv-x="627" 
d="M416 546q14 31 37 43t47 12q21 0 40.5 -7.5t34.5 -20.5t23.5 -31.5t8.5 -39.5q0 -19 -9 -39l-193 -414q-15 -32 -41 -46t-52 -14q-23 0 -48.5 12t-39.5 41q0 -1 3 -6q2 -3 3 -6l-3 6l-11 22t-22 46t-36 78t-54 117.5t-75 164.5q-9 20 -9 39q0 21 8.5 39.5t23.5 31.5
t34.5 20.5t40.5 7.5q24 0 47 -12t37 -43l102 -267z" />
    <glyph glyph-name="w" unicode="w" horiz-adv-x="925" 
d="M463 610q19 0 37 -7.5t32 -20t22.5 -30t8.5 -37.5v-321h61q19 0 29.5 3.5t16 12t6.5 23.5t1 37v245q0 20 7.5 37.5t20.5 30t30 20t36 7.5t38 -5t34 -16.5t24 -29.5t9 -44v-311q0 -44 -17.5 -82t-46.5 -66.5t-67 -45t-79 -16.5q-25 0 -54 1.5t-57.5 10t-52.5 26.5t-39 52
q-12 -34 -34.5 -52t-51 -26.5t-59 -10t-57.5 -1.5q-41 0 -79 16.5t-67 45t-46.5 66.5t-17.5 82v311q0 20 7.5 37.5t20.5 30t30.5 20t36.5 7.5q20 0 38.5 -5t33 -16.5t23 -29.5t8.5 -44v-245q0 -23 1.5 -38t7 -23.5t16.5 -11.5t29 -3h60v321q0 26 8.5 44t22.5 29.5t32 16.5
t37 5z" />
    <glyph glyph-name="x" unicode="x" horiz-adv-x="662" 
d="M604 35q-16 -16 -35.5 -26t-41.5 -10q-17 0 -33 6.5t-32 22.5l-131 130l-131 -130q-16 -16 -32 -22.5t-33 -6.5q-22 0 -41.5 10t-35.5 26q-14 14 -21 31.5t-7 35.5t7 36t21 32l130 129l-129 129q-14 14 -21 32t-7 36q0 20 9 39t23.5 33t33.5 22.5t39 8.5q17 0 33 -6.5
t32 -22.5l130 -129l130 129q16 16 32 22.5t33 6.5q20 0 39 -8.5t33.5 -22.5t23.5 -33t9 -39q0 -18 -7 -36t-21 -32l-130 -129l131 -129q14 -14 21 -32t7 -36t-7 -35.5t-21 -31.5z" />
    <glyph glyph-name="y" unicode="y" 
d="M145 610q20 0 38.5 -5t33 -16.5t23 -29.5t8.5 -44v-239q0 -46 15 -61t59 -15h57q23 0 37 3.5t22 12t11 23.5t3 37v239q0 20 7.5 37.5t20.5 30t30 20t36 7.5t38 -5t34 -16.5t24 -29.5t9 -44v-305q0 -43 -16.5 -80.5t-44 -65.5t-64 -45t-75.5 -19v-105q0 -26 -9 -44
t-24 -29.5t-34 -16.5t-38 -5t-36.5 7.5t-30.5 20t-20.5 30t-7.5 37.5v105q-40 2 -76 19t-64 45t-44.5 65.5t-16.5 80.5v305q0 20 7.5 37.5t20.5 30t30.5 20t36.5 7.5z" />
    <glyph glyph-name="z" unicode="z" horiz-adv-x="621" 
d="M351 199h144q26 0 44 -8.5t29.5 -23t16.5 -33t5 -38.5q0 -19 -7.5 -36.5t-20 -30.5t-30 -20.5t-37.5 -7.5h-369q-21 0 -38.5 8.5t-30 22.5t-20 32.5t-7.5 38.5q0 23 9.5 43.5t28.5 34.5l236 219h-174q-26 0 -44 9t-29.5 23.5t-16.5 33t-5 38.5q0 19 7.5 36.5t20 30.5
t30 21t37.5 8h354q23 0 42.5 -8.5t33.5 -22.5t22.5 -33t8.5 -40q0 -20 -6 -42t-20 -37z" />
    <glyph glyph-name="braceleft" unicode="{" horiz-adv-x="389" 
d="M20 300q0 20 5 38.5t16.5 33t29.5 23t44 8.5h24v303q0 20 7.5 37.5t20.5 30t30.5 20t36.5 7.5t38 -5t34 -16.5t24 -29.5t9 -44v-813q0 -20 -7.5 -37.5t-20.5 -30t-30.5 -20t-36.5 -7.5t-38 5t-34 16.5t-24 29.5t-9 44v312h-24q-20 0 -37.5 7.5t-30 20.5t-20 30.5
t-7.5 36.5z" />
    <glyph glyph-name="bar" unicode="|" horiz-adv-x="300" 
d="M145 -203q-19 0 -36.5 7.5t-30.5 20t-20.5 30t-7.5 37.5v813q0 26 9 44t24 29.5t34 16.5t38 5t36.5 -7.5t30.5 -20t20.5 -30t7.5 -37.5v-813q0 -26 -9 -44t-24 -29.5t-34 -16.5t-38 -5z" />
    <glyph glyph-name="braceright" unicode="}" horiz-adv-x="389" 
d="M372 300q0 -19 -7.5 -36.5t-20 -30.5t-30 -20.5t-37.5 -7.5h-24v-312q0 -26 -9 -44t-24 -29.5t-34 -16.5t-38 -5t-36.5 7.5t-30.5 20t-20.5 30t-7.5 37.5v813q0 26 9 44t24 29.5t34 16.5t38 5t36.5 -7.5t30.5 -20t20.5 -30t7.5 -37.5v-303h24q26 0 44 -8.5t29.5 -23
t16.5 -33t5 -38.5z" />
    <glyph glyph-name="asciitilde" unicode="~" horiz-adv-x="300" 
d="M145 -10q-19 0 -36.5 7.5t-30.5 20t-20.5 30t-7.5 37.5v420q0 26 9 44t24 29.5t34 16.5t38 5t36.5 -7.5t30.5 -20t20.5 -30t7.5 -37.5v-420q0 -26 -9 -44t-24 -29.5t-34 -16.5t-38 -5zM155 824q19 0 36.5 -7.5t30.5 -20t20.5 -30t7.5 -37.5q0 -26 -9 -44t-24 -29.5
t-34 -16.5t-38 -5t-36.5 7.5t-30.5 20t-20.5 30t-7.5 37.5q0 26 9 44t24 29.5t34 16.5t38 5z" />
    <glyph glyph-name="uni00A0" unicode="&#xa0;" horiz-adv-x="173" 
 />
    <glyph glyph-name="exclamdown" unicode="&#xa1;" horiz-adv-x="300" 
d="M145 -200q-19 0 -36.5 7.5t-30.5 20t-20.5 30t-7.5 37.5v220q0 26 9 44t24 29.5t34 16.5t38 5t36.5 -7.5t30.5 -20t20.5 -30t7.5 -37.5v-220q0 -26 -9 -44t-24 -29.5t-34 -16.5t-38 -5zM145 220q-19 0 -36.5 7.5t-30.5 20t-20.5 30t-7.5 37.5q0 26 9 44t24 29.5t34 16.5
t38 5t36.5 -7.5t30.5 -20t20.5 -30t7.5 -37.5q0 -26 -9 -44t-24 -29.5t-34 -16.5t-38 -5z" />
    <glyph glyph-name="cent" unicode="&#xa2;" horiz-adv-x="598" 
d="M352 -120q-30 0 -52.5 22t-22.5 54v44h-17q-44 0 -82 17.5t-66.5 46.5t-45 67t-16.5 79v180q0 41 16.5 79t45 67t66.5 46.5t82 17.5h17v39q0 21 7.5 35.5t19 24t26.5 13.5t30 4q31 0 53.5 -22.5t22.5 -54.5v-39h32q20 0 37.5 -7.5t30 -20.5t20 -30.5t7.5 -36.5
q0 -20 -5 -38.5t-16.5 -33t-29.5 -23t-44 -8.5h-142q-46 0 -61 -15t-15 -59v-56q0 -23 3.5 -37t12 -22t23.5 -11t37 -3h142q20 0 37.5 -7.5t30 -20.5t20 -30t7.5 -36t-5 -38t-16.5 -34t-29.5 -24t-44 -9h-32v-44q0 -21 -7.5 -35.5t-19.5 -23.5t-27 -13t-30 -4z" />
    <glyph glyph-name="sterling" unicode="&#xa3;" horiz-adv-x="532" 
d="M116 0q-26 0 -44 9t-29.5 24t-16.5 34t-5 38q0 32 19 56.5t48 33.5v35h-21q-17 0 -26.5 2.5t-14 7t-5 10t-0.5 11.5q0 11 10 19t36 8h21v29h-21q-17 0 -26.5 2.5t-14 7t-5 10t-0.5 11.5q0 11 10 19.5t36 8.5h21v14q0 41 16.5 79t45 67t66.5 46.5t82 17.5h108
q20 0 37.5 -7.5t30 -20.5t20 -30.5t7.5 -36.5q0 -20 -5 -38.5t-16.5 -33t-29.5 -23t-44 -8.5h-42q-30 0 -46 -5.5t-23 -20.5h154q17 0 26.5 -2.5t14 -7t5.5 -10t1 -11.5q0 -11 -10.5 -19.5t-36.5 -8.5h-161v-29h161q17 0 26.5 -2.5t14 -7t5.5 -9.5t1 -11q0 -11 -10.5 -19.5
t-36.5 -8.5h-157q5 -18 19 -24.5t40 -6.5h55q20 0 37.5 -7.5t30 -20.5t20 -30t7.5 -36t-5 -38t-16.5 -34t-29.5 -24t-44 -9h-290z" />
    <glyph glyph-name="currency" unicode="&#xa4;" horiz-adv-x="598" 
d="M453 258q0 -11 -10.5 -19.5t-36.5 -8.5h-151q6 -19 22.5 -25t48.5 -6h142q20 0 37.5 -7.5t30 -20.5t20 -30t7.5 -36t-5 -38t-16.5 -34t-29.5 -24t-44 -9h-208q-44 0 -82 17.5t-66.5 46.5t-45 67t-16.5 79v20q-16 0 -25 2.5t-13 7t-4.5 10t-0.5 11.5q0 10 9 18t34 9v29
q-16 0 -25 2.5t-13 7t-4.5 10t-0.5 11.5q0 11 9 19t34 9v14q0 41 16.5 79t45 67t66.5 46.5t82 17.5h208q20 0 37.5 -7.5t30 -20.5t20 -30.5t7.5 -36.5q0 -20 -5 -38.5t-16.5 -33t-29.5 -23t-44 -8.5h-142q-30 0 -46 -5.5t-23 -20.5h149q17 0 26.5 -2.5t14 -7t5.5 -10
t1 -11.5q0 -11 -10.5 -19.5t-36.5 -8.5h-156v-29h156q17 0 26.5 -2.5t14 -7t5.5 -9.5t1 -11z" />
    <glyph glyph-name="yen" unicode="&#xa5;" 
d="M651 88q0 -11 -10.5 -19.5t-36.5 -8.5h-156q-4 -19 -14.5 -32.5t-24.5 -21.5t-30 -12t-33 -4q-32 0 -58 19.5t-34 50.5h-153q-17 0 -26.5 2.5t-14 7t-5 10t-0.5 11.5q0 11 10 19.5t36 8.5h150v32h-150q-17 0 -26.5 2.5t-14 7t-5 10t-0.5 11.5q0 11 10 19.5t36 8.5h150v29
q-40 2 -76 19t-64 45t-44.5 65.5t-16.5 80.5v66q0 20 7.5 37.5t20.5 30t30.5 20t36.5 7.5q20 0 38.5 -5t33 -16.5t23 -29.5t8.5 -44q0 -46 15 -61t59 -15h57q23 0 37 3.5t22 12t11 23.5t3 37q0 20 7.5 37.5t20.5 30t30 20t36 7.5t38 -5t34 -16.5t24 -29.5t9 -44v-66
q0 -43 -16.5 -80.5t-44 -65.5t-64 -45t-75.5 -19v-29h153q17 0 26.5 -2.5t14 -7t5.5 -10t1 -11.5q0 -11 -10.5 -19.5t-36.5 -8.5h-153v-32h153q17 0 26.5 -2.5t14 -7t5.5 -10t1 -11.5z" />
    <glyph glyph-name="brokenbar" unicode="&#xa6;" horiz-adv-x="669" 
d="M539 229q-20 0 -38.5 5t-33 16.5t-23 29.5t-8.5 44q0 23 -3.5 38t-11.5 23.5t-22.5 12t-36.5 3.5h-36q-46 0 -61 -15t-15 -59v-55q0 -23 3.5 -37t12 -22t23.5 -11t37 -3h52q20 0 37.5 -7.5t30 -20.5t20 -30t7.5 -36t-5 -38t-16.5 -34t-29.5 -24t-44 -9h-118
q-44 0 -82 17.5t-66.5 46.5t-45 67t-16.5 79v179q0 41 16.5 79t45 67.5t66.5 47t82 17.5h164q41 0 79 -16.5t67 -45t46.5 -66.5t17.5 -82v-66q0 -20 -7.5 -37.5t-20.5 -30t-30.5 -20t-36.5 -7.5z" />
    <glyph glyph-name="section" unicode="&#xa7;" horiz-adv-x="598" 
d="M550 298q0 -21 -15.5 -37t-38.5 -16h-245q0 -29 18.5 -37.5t56.5 -8.5h142q20 0 37.5 -7.5t30 -20.5t20 -30t7.5 -36t-5 -38t-16.5 -34t-29.5 -24t-44 -9h-208q-44 0 -82 13t-66.5 36.5t-45 56.5t-16.5 74q0 15 3 33.5t11 35.5t21.5 31t34.5 20q-21 8 -34.5 22
t-21.5 30.5t-11 34t-3 32.5q0 41 16.5 74t45 56.5t66.5 36.5t82 13h208q20 0 37.5 -7.5t30 -20.5t20 -30.5t7.5 -36.5q0 -20 -5 -38.5t-16.5 -33t-29.5 -23t-44 -8.5h-142q-38 0 -56.5 -9.5t-18.5 -36.5h245q29 0 41.5 -18t12.5 -39z" />
    <glyph glyph-name="dieresis" unicode="&#xa8;" horiz-adv-x="526" 
d="M141 620q-37 0 -64 26t-27 63q0 25 9 42t23 28t31.5 16t35.5 5t34.5 -7t29 -19.5t20 -29t7.5 -35.5q0 -24 -9 -41t-23 -27.5t-31.5 -15.5t-35.5 -5zM376 620q-37 0 -64 26t-27 63q0 25 9 42t23 28t31.5 16t35.5 5t34.5 -7t29 -19.5t20 -29t7.5 -35.5q0 -24 -9 -41
t-23 -27.5t-31.5 -15.5t-35.5 -5z" />
    <glyph glyph-name="copyright" unicode="&#xa9;" horiz-adv-x="1100" 
d="M400 -199q-66 0 -128.5 25t-112 71t-79.5 110.5t-30 143.5v299q0 73 29 137t78 111t112 74.5t131 27.5h300q68 0 131 -27.5t112 -74.5t78 -111t29 -137v-299q0 -79 -30 -143.5t-79.5 -110.5t-112 -71t-128.5 -25h-300zM805 504q0 19 -7.5 36.5t-20 30.5t-30 20.5
t-37.5 7.5h-208q-44 0 -82 -17.5t-66.5 -46.5t-45 -67t-16.5 -79v-179q0 -41 16.5 -79t45 -67t66.5 -46.5t82 -17.5h208q26 0 44 9t29.5 24t16.5 34t5 38t-7.5 36t-20 30t-30 20.5t-37.5 7.5h-142q-22 0 -37 3t-23.5 11t-12 22t-3.5 37v55q0 44 15 59t61 15h142q26 0 44 8.5
t29.5 23t16.5 33t5 38.5z" />
    <glyph glyph-name="ordfeminine" unicode="&#xaa;" horiz-adv-x="925" 
d="M470 600q19 0 36 -7.5t29.5 -20t20 -30t7.5 -37.5v-305h61q19 0 29.5 3.5t16 12t6.5 23.5t1 37v229q0 20 7.5 37.5t20.5 30t30 20t36 7.5t38 -5t34 -16.5t24 -29.5t9 -44v-295q0 -44 -17.5 -82t-46.5 -66.5t-67 -45t-79 -16.5h-405q-41 0 -79 16.5t-67 45t-46.5 66.5
t-17.5 82v295q0 20 7.5 37.5t20.5 30t30.5 20t36.5 7.5q20 0 38.5 -5t33 -16.5t23 -29.5t8.5 -44v-229q0 -23 1.5 -38t7 -23.5t16.5 -11.5t29 -3h60v305q0 26 9.5 44t25 29.5t34.5 16.5t38 5z" />
    <glyph glyph-name="guillemotleft" unicode="&#xab;" horiz-adv-x="501" 
d="M120 148q-19 0 -36.5 7.5t-30.5 20t-20.5 30t-7.5 37.5v105q0 26 9 44t24 29.5t34 16.5t38 5t36.5 -7.5t30.5 -20t20.5 -30t7.5 -37.5v-105q0 -26 -9 -44t-24 -29.5t-34 -16.5t-38 -5zM371 148q-19 0 -36.5 7.5t-30.5 20t-20.5 30t-7.5 37.5v105q0 26 9 44t24 29.5
t34 16.5t38 5t36.5 -7.5t30.5 -20t20.5 -30t7.5 -37.5v-105q0 -26 -9 -44t-24 -29.5t-34 -16.5t-38 -5z" />
    <glyph glyph-name="logicalnot" unicode="&#xac;" horiz-adv-x="656" 
d="M425 210q0 -41 -16.5 -79t-45 -67t-66.5 -46.5t-82 -17.5h-98q-20 0 -37.5 7.5t-30 20.5t-20 30.5t-7.5 36.5q0 20 5 38.5t16.5 33t29.5 23t44 8.5h32q41 0 56.5 10.5t18.5 41.5q0 2 -0.5 6t-0.5 17.5v40.5v76q0 41 16.5 79t45 67t66.5 46.5t82 17.5h98q20 0 37.5 -7.5
t30 -20.5t20 -30.5t7.5 -36.5q0 -20 -5 -38.5t-16.5 -33t-29.5 -23t-44 -8.5h-32q-41 0 -57 -12t-18 -46q1 -4 1 -8v-9v-117z" />
    <glyph glyph-name="registered" unicode="&#xae;" horiz-adv-x="1100" 
d="M400 -199q-66 0 -128.5 25t-112 71t-79.5 110.5t-30 143.5v299q0 73 29 137t78 111t112 74.5t131 27.5h300q68 0 131 -27.5t112 -74.5t78 -111t29 -137v-299q0 -79 -30 -143.5t-79.5 -110.5t-112 -71t-128.5 -25h-300zM305 85q0 -20 7.5 -37.5t20.5 -30t30.5 -20
t36.5 -7.5t38 5t34 16.5t24 29.5t9 44v15h58l42 -66q15 -24 34.5 -34.5t40.5 -10.5t40.5 8t35 21.5t24.5 32.5t9 40q0 28 -14 49l-16 25q28 32 44 77.5t16 105.5q0 59 -16.5 106t-45 79t-66.5 49t-82 17h-114.5t-63 -0.5t-28.5 -0.5h-11q-35 0 -61 -24.5t-26 -68.5v-420z
M543 401q40 0 57.5 -10.5t17.5 -41.5t-18 -40.5t-57 -9.5h-38v102h38z" />
    <glyph glyph-name="macron" unicode="&#xaf;" horiz-adv-x="393" 
d="M365 717q0 -31 -22 -53.5t-54 -22.5h-186q-21 0 -35.5 7.5t-23.5 19.5t-13 27t-4 30q0 31 22 53.5t54 22.5h186q21 0 35.5 -7.5t23.5 -19.5t13 -27t4 -30z" />
    <glyph glyph-name="degree" unicode="&#xb0;" horiz-adv-x="692" 
d="M610 588q16 -16 27 -36.5t11 -42.5q0 -34 -30 -63l-161 -159q-7 -6 -11 -15t-4 -23q0 -21 14.5 -35t35.5 -14h75q26 0 44 -9t29.5 -23.5t16.5 -33.5t5 -39q0 -19 -7.5 -36.5t-20 -30.5t-30 -20.5t-37.5 -7.5h-124q-54 0 -95 20t-68 54l-64 -63q-14 -14 -31.5 -21
t-35.5 -7q-39 0 -67 28q-16 16 -27 36.5t-11 42.5q0 34 30 63l161 159q7 6 11 15t4 23q0 21 -14.5 35t-35.5 14h-75q-26 0 -44 9t-29.5 23.5t-16.5 33.5t-5 39q0 19 7.5 36.5t20 30.5t30 20.5t37.5 7.5h124q54 0 94.5 -20.5t68.5 -54.5l64 64q14 14 31.5 21t35.5 7
q39 0 67 -28z" />
    <glyph glyph-name="plusminus" unicode="&#xb1;" horiz-adv-x="550" 
d="M20 495q0 20 5 38.5t16.5 33t29.5 23t44 8.5h42v107q0 20 7.5 37.5t20.5 30t30.5 20t36.5 7.5t38 -5t34 -16.5t24 -29.5t9 -44v-433q0 -44 15 -59t61 -15h12q26 0 44 -8.5t29.5 -23t16.5 -33t5 -38.5q0 -19 -7.5 -36.5t-20 -30.5t-30 -20.5t-37.5 -7.5h-78
q-44 0 -82 17.5t-66.5 46.5t-45 67t-16.5 79v190h-42q-20 0 -37.5 7.5t-30 20.5t-20 30.5t-7.5 36.5z" />
    <glyph glyph-name="twosuperior" unicode="&#xb2;" 
d="M556 -200q-20 0 -38.5 5t-33 16.5t-23 29.5t-8.5 44v629q0 23 -3.5 38t-11.5 23.5t-22.5 11.5t-36.5 3h-57q-23 0 -37 -3.5t-22 -12t-11 -23t-3 -37.5v-629q0 -20 -7.5 -37.5t-20.5 -30t-30 -20t-36 -7.5t-38 5t-34 16.5t-24 29.5t-9 44v695q0 44 17.5 82t46.5 66.5
t67 45t79 16.5h181q41 0 79 -16.5t67 -45t46.5 -66.5t17.5 -82v-695q0 -20 -7.5 -37.5t-20.5 -30t-30.5 -20t-36.5 -7.5z" />
    <glyph glyph-name="threesuperior" unicode="&#xb3;" horiz-adv-x="627" 
d="M127 0q-21 0 -40.5 7.5t-34 20.5t-23 31.5t-8.5 39.5q0 20 9 39l193 414q15 32 41 46t52 14q29 0 52 -12t34 -38q4 -9 16 -34.5t35 -74.5t59 -126t87 -190q9 -19 9 -39q0 -21 -8.5 -39t-23.5 -31t-34.5 -20.5t-40.5 -7.5h-374zM238 181h153l-76 190z" />
    <glyph glyph-name="acute" unicode="&#xb4;" horiz-adv-x="393" 
d="M365 717q0 -31 -22 -53.5t-54 -22.5h-186q-21 0 -35.5 7.5t-23.5 19.5t-13 27t-4 30q0 31 22 53.5t54 22.5h186q21 0 35.5 -7.5t23.5 -19.5t13 -27t4 -30z" />
    <glyph glyph-name="mu" unicode="&#xb5;" horiz-adv-x="550" 
d="M20 404q0 19 7.5 36.5t20 30.5t30 20.5t37.5 7.5h42v91q0 41 16.5 79t45 67t66.5 46.5t82 17.5h78q20 0 37.5 -7.5t30 -20.5t20 -30.5t7.5 -36.5q0 -20 -5 -38.5t-16.5 -33t-29.5 -23t-44 -8.5h-12q-46 0 -61 -15t-15 -59v-443q0 -26 -9 -44t-24 -29.5t-34 -16.5t-38 -5
t-36.5 7.5t-30.5 20t-20.5 30t-7.5 37.5v216h-42q-26 0 -44 8.5t-29.5 23t-16.5 33t-5 38.5z" />
    <glyph glyph-name="paragraph" unicode="&#xb6;" 
d="M546 -200q-19 0 -36.5 7.5t-30.5 20t-20.5 30t-7.5 37.5v105h-191q-41 0 -79 16.5t-67 45t-46.5 66.5t-17.5 82v180q0 48 18 86.5t47.5 66t67.5 42.5t77 15h179q49 0 88 -17.5t66.5 -46.5t42.5 -67t15 -79v-495q0 -26 -9 -44t-24 -29.5t-34 -16.5t-38 -5z" />
    <glyph glyph-name="periodcentered" unicode="&#xb7;" horiz-adv-x="250" 
d="M130 494q19 0 36.5 -7.5t30.5 -20t20.5 -30t7.5 -37.5q0 -26 -9 -44t-24 -29.5t-34 -16.5t-38 -5t-36.5 7.5t-30.5 20t-20.5 30t-7.5 37.5q0 26 9 44t24 29.5t34 16.5t38 5z" />
    <glyph glyph-name="cedilla" unicode="&#xb8;" horiz-adv-x="393" 
d="M192 -157q-31 0 -53.5 22t-22.5 54v105h160v-105q0 -21 -7.5 -35.5t-19.5 -23.5t-27 -13t-30 -4z" />
    <glyph glyph-name="onesuperior" unicode="&#xb9;" horiz-adv-x="300" 
d="M155 800q19 0 36.5 -7.5t30.5 -20t20.5 -30t7.5 -37.5v-694q0 -41 -16.5 -79t-45 -67t-66.5 -46.5t-82 -17.5h-78q-20 0 -37.5 7.5t-30 20.5t-20 30.5t-7.5 36.5q0 20 5 38.5t16.5 33t29.5 23t44 8.5h12q23 0 38 3.5t23.5 11.5t11.5 22.5t3 36.5v632q0 26 9 44t24 29.5
t34 16.5t38 5z" />
    <glyph glyph-name="ordmasculine" unicode="&#xba;" horiz-adv-x="427" 
d="M194 222q0 11 -12.5 18t-31.5 15t-40.5 19.5t-40.5 30.5t-31.5 48.5t-12.5 73.5q0 41 16.5 73t45 54t66.5 33.5t82 11.5q42 0 71 -7.5t47 -20.5t26.5 -30.5t8.5 -36.5t-2 -37.5t-11 -33t-27 -23.5t-50 -9q-36 0 -50.5 -5t-14.5 -19q0 -12 12.5 -19t31.5 -14.5t40.5 -18.5
t40.5 -29.5t31.5 -48.5t12.5 -75q0 -41 -16.5 -73t-45 -54t-66.5 -33.5t-82 -11.5q-42 0 -71 7.5t-47 20.5t-26.5 30.5t-8.5 36.5q0 20 2.5 38.5t12 33t28.5 23t52 8.5t46.5 5t13.5 19z" />
    <glyph glyph-name="guillemotright" unicode="&#xbb;" horiz-adv-x="501" 
d="M120 148q-19 0 -36.5 7.5t-30.5 20t-20.5 30t-7.5 37.5v105q0 26 9 44t24 29.5t34 16.5t38 5t36.5 -7.5t30.5 -20t20.5 -30t7.5 -37.5v-105q0 -26 -9 -44t-24 -29.5t-34 -16.5t-38 -5zM371 148q-19 0 -36.5 7.5t-30.5 20t-20.5 30t-7.5 37.5v105q0 26 9 44t24 29.5
t34 16.5t38 5t36.5 -7.5t30.5 -20t20.5 -30t7.5 -37.5v-105q0 -26 -9 -44t-24 -29.5t-34 -16.5t-38 -5z" />
    <glyph glyph-name="onequarter" unicode="&#xbc;" horiz-adv-x="656" 
d="M425 210q0 -41 -16.5 -79t-45 -67t-66.5 -46.5t-82 -17.5h-98q-20 0 -37.5 7.5t-30 20.5t-20 30.5t-7.5 36.5q0 20 5 38.5t16.5 33t29.5 23t44 8.5h32q41 0 56.5 10.5t18.5 41.5q0 2 -0.5 37t-0.5 86v109.5v107.5q0 41 16.5 79t45 67t66.5 46.5t82 17.5h98
q20 0 37.5 -7.5t30 -20.5t20 -30.5t7.5 -36.5q0 -20 -5 -38.5t-16.5 -33t-29.5 -23t-44 -8.5h-32q-41 0 -57 -12t-18 -46q0 -1 0.5 -17.5t0.5 -40v-50.5v-51v-40.5v-17.5v-117z" />
    <glyph glyph-name="onehalf" unicode="&#xbd;" 
d="M145 610q20 0 38.5 -5t33 -16.5t23 -29.5t8.5 -44v-166q0 -46 15 -61t59 -15h57q23 0 37 3.5t22 12t11 23.5t3 37v166q0 20 7.5 37.5t20.5 30t30 20t36 7.5t38 -5t34 -16.5t24 -29.5t9 -44v-503q0 -41 -15 -79t-42.5 -67t-66 -46.5t-86.5 -17.5h-66q-20 0 -37.5 7.5
t-30 20.5t-20 30.5t-7.5 36.5q0 20 5 38.5t16.5 33t29.5 23t44 8.5q23 0 38 3.5t23.5 11.5t12 22t3.5 36h-192q-41 0 -79 16.5t-67 45t-46.5 66.5t-17.5 82v232q0 20 7.5 37.5t20.5 30t30.5 20t36.5 7.5z" />
    <glyph glyph-name="threequarters" unicode="&#xbe;" horiz-adv-x="655" 
d="M255 318q11 0 18 12.5t15 31.5t19.5 40.5t30.5 40.5t48.5 31.5t73.5 12.5q41 0 73 -16.5t54 -45t33.5 -66.5t11.5 -82q0 -42 -7.5 -71t-20.5 -47t-30.5 -26.5t-36.5 -8.5t-37.5 2t-33 11t-23.5 27t-9 50q0 36 -5 50.5t-19 14.5q-12 0 -19 -12.5t-14.5 -31.5t-18.5 -40.5
t-29.5 -40.5t-48.5 -31.5t-75 -12.5q-41 0 -73 16.5t-54 45t-33.5 66.5t-11.5 82q0 42 7.5 71t20.5 47t30.5 26.5t36.5 8.5q20 0 38.5 -2.5t33 -12t23 -28.5t8.5 -52t5 -46.5t19 -13.5z" />
    <glyph glyph-name="questiondown" unicode="&#xbf;" horiz-adv-x="554" 
d="M278 449q16 -16 27 -36.5t11 -42.5q0 -34 -30 -63l-21 -20q-7 -6 -11 -15t-4 -23q0 -21 14.5 -35t35.5 -14h135q26 0 44 -9t29.5 -23.5t16.5 -33.5t5 -39q0 -19 -7.5 -36.5t-20 -30.5t-30 -20.5t-37.5 -7.5h-184q-51 0 -91 19t-67.5 50.5t-42 72.5t-14.5 85
q0 51 19.5 102t61.5 93l27 27q14 14 31.5 21t35.5 7q39 0 67 -28zM396 419q-19 0 -36.5 7.5t-30.5 20t-20.5 30t-7.5 37.5q0 26 9 44t24 29.5t34 16.5t38 5t36.5 -7.5t30.5 -20t20.5 -30t7.5 -37.5q0 -26 -9 -44t-24 -29.5t-34 -16.5t-38 -5z" />
    <glyph glyph-name="Agrave" unicode="&#xc0;" horiz-adv-x="700" 
d="M421 95q0 -19 -7.5 -36.5t-20 -30.5t-30 -20.5t-37.5 -7.5h-66q-44 0 -82 17.5t-66.5 46.5t-45 67t-16.5 79v179q0 44 17.5 82t47 66.5t67.5 45t79 16.5h179q41 0 79 -16.5t67 -45t46.5 -66.5t17.5 -82v-304q0 -26 -9 -44t-24 -29.5t-34 -16.5t-38 -5t-36 7.5t-30 20
t-20.5 30t-7.5 37.5v238q0 23 -3 37.5t-11 23t-22 12t-37 3.5h-55q-22 0 -36.5 -3t-22.5 -11.5t-11.5 -23.5t-3.5 -38v-51q0 -44 15.5 -59t61.5 -15q26 0 44 -8.5t29.5 -23t16.5 -33t5 -38.5zM519 717q0 -31 -22 -53.5t-54 -22.5h-186q-21 0 -35.5 7.5t-23.5 19.5t-13 27
t-4 30q0 31 22 53.5t54 22.5h186q21 0 35.5 -7.5t23.5 -19.5t13 -27t4 -30z" />
    <glyph glyph-name="Aacute" unicode="&#xc1;" horiz-adv-x="700" 
d="M421 95q0 -19 -7.5 -36.5t-20 -30.5t-30 -20.5t-37.5 -7.5h-66q-44 0 -82 17.5t-66.5 46.5t-45 67t-16.5 79v179q0 44 17.5 82t47 66.5t67.5 45t79 16.5h179q41 0 79 -16.5t67 -45t46.5 -66.5t17.5 -82v-304q0 -26 -9 -44t-24 -29.5t-34 -16.5t-38 -5t-36 7.5t-30 20
t-20.5 30t-7.5 37.5v238q0 23 -3 37.5t-11 23t-22 12t-37 3.5h-55q-22 0 -36.5 -3t-22.5 -11.5t-11.5 -23.5t-3.5 -38v-51q0 -44 15.5 -59t61.5 -15q26 0 44 -8.5t29.5 -23t16.5 -33t5 -38.5zM519 717q0 -31 -22 -53.5t-54 -22.5h-186q-21 0 -35.5 7.5t-23.5 19.5t-13 27
t-4 30q0 31 22 53.5t54 22.5h186q21 0 35.5 -7.5t23.5 -19.5t13 -27t4 -30z" />
    <glyph glyph-name="Acircumflex" unicode="&#xc2;" horiz-adv-x="700" 
d="M421 95q0 -19 -7.5 -36.5t-20 -30.5t-30 -20.5t-37.5 -7.5h-66q-44 0 -82 17.5t-66.5 46.5t-45 67t-16.5 79v179q0 44 17.5 82t47 66.5t67.5 45t79 16.5h179q41 0 79 -16.5t67 -45t46.5 -66.5t17.5 -82v-304q0 -26 -9 -44t-24 -29.5t-34 -16.5t-38 -5t-36 7.5t-30 20
t-20.5 30t-7.5 37.5v238q0 23 -3 37.5t-11 23t-22 12t-37 3.5h-55q-22 0 -36.5 -3t-22.5 -11.5t-11.5 -23.5t-3.5 -38v-51q0 -44 15.5 -59t61.5 -15q26 0 44 -8.5t29.5 -23t16.5 -33t5 -38.5zM519 717q0 -31 -22 -53.5t-54 -22.5h-186q-21 0 -35.5 7.5t-23.5 19.5t-13 27
t-4 30q0 31 22 53.5t54 22.5h186q21 0 35.5 -7.5t23.5 -19.5t13 -27t4 -30z" />
    <glyph glyph-name="Atilde" unicode="&#xc3;" horiz-adv-x="700" 
d="M421 95q0 -19 -7.5 -36.5t-20 -30.5t-30 -20.5t-37.5 -7.5h-66q-44 0 -82 17.5t-66.5 46.5t-45 67t-16.5 79v179q0 44 17.5 82t47 66.5t67.5 45t79 16.5h179q41 0 79 -16.5t67 -45t46.5 -66.5t17.5 -82v-304q0 -26 -9 -44t-24 -29.5t-34 -16.5t-38 -5t-36 7.5t-30 20
t-20.5 30t-7.5 37.5v238q0 23 -3 37.5t-11 23t-22 12t-37 3.5h-55q-22 0 -36.5 -3t-22.5 -11.5t-11.5 -23.5t-3.5 -38v-51q0 -44 15.5 -59t61.5 -15q26 0 44 -8.5t29.5 -23t16.5 -33t5 -38.5zM519 717q0 -31 -22 -53.5t-54 -22.5h-186q-21 0 -35.5 7.5t-23.5 19.5t-13 27
t-4 30q0 31 22 53.5t54 22.5h186q21 0 35.5 -7.5t23.5 -19.5t13 -27t4 -30z" />
    <glyph glyph-name="Adieresis" unicode="&#xc4;" horiz-adv-x="700" 
d="M421 95q0 -19 -7.5 -36.5t-20 -30.5t-30 -20.5t-37.5 -7.5h-66q-44 0 -82 17.5t-66.5 46.5t-45 67t-16.5 79v179q0 44 17.5 82t47 66.5t67.5 45t79 16.5h179q41 0 79 -16.5t67 -45t46.5 -66.5t17.5 -82v-304q0 -26 -9 -44t-24 -29.5t-34 -16.5t-38 -5t-36 7.5t-30 20
t-20.5 30t-7.5 37.5v238q0 23 -3 37.5t-11 23t-22 12t-37 3.5h-55q-22 0 -36.5 -3t-22.5 -11.5t-11.5 -23.5t-3.5 -38v-51q0 -44 15.5 -59t61.5 -15q26 0 44 -8.5t29.5 -23t16.5 -33t5 -38.5zM228 620q-37 0 -64 26t-27 63q0 25 9 42t23 28t31.5 16t35.5 5t34.5 -7t29 -19.5
t20 -29t7.5 -35.5q0 -24 -9 -41t-23 -27.5t-31.5 -15.5t-35.5 -5zM463 620q-37 0 -64 26t-27 63q0 25 9 42t23 28t31.5 16t35.5 5t34.5 -7t29 -19.5t20 -29t7.5 -35.5q0 -24 -9 -41t-23 -27.5t-31.5 -15.5t-35.5 -5z" />
    <glyph glyph-name="Aring" unicode="&#xc5;" horiz-adv-x="700" 
d="M421 95q0 -19 -7.5 -36.5t-20 -30.5t-30 -20.5t-37.5 -7.5h-66q-44 0 -82 17.5t-66.5 46.5t-45 67t-16.5 79v179q0 44 17.5 82t47 66.5t67.5 45t79 16.5h179q41 0 79 -16.5t67 -45t46.5 -66.5t17.5 -82v-304q0 -26 -9 -44t-24 -29.5t-34 -16.5t-38 -5t-36 7.5t-30 20
t-20.5 30t-7.5 37.5v238q0 23 -3 37.5t-11 23t-22 12t-37 3.5h-55q-22 0 -36.5 -3t-22.5 -11.5t-11.5 -23.5t-3.5 -38v-51q0 -44 15.5 -59t61.5 -15q26 0 44 -8.5t29.5 -23t16.5 -33t5 -38.5zM358 801q19 0 36.5 -7.5t30.5 -20t20.5 -30t7.5 -37.5q0 -26 -9 -44t-24 -29.5
t-34 -16.5t-38 -5t-36.5 7.5t-30.5 20t-20.5 30t-7.5 37.5q0 26 9 44t24 29.5t34 16.5t38 5z" />
    <glyph glyph-name="AE" unicode="&#xc6;" horiz-adv-x="1001" 
d="M953 298q0 -21 -15.5 -37t-38.5 -16h-245q0 -29 18.5 -37.5t56.5 -8.5h142q20 0 37.5 -7.5t30 -20.5t20 -30t7.5 -36t-5 -38t-16.5 -34t-29.5 -24t-44 -9h-208q-60 0 -107.5 29.5t-74.5 77.5h-232v-22q0 -20 -7.5 -37.5t-20.5 -30t-30 -20t-36 -7.5t-38 5t-34 16.5
t-24 29.5t-9 44v305q0 44 17.5 82t46.5 66.5t67 45t79 16.5h181q60 0 111 -34q50 33 111 33h208q20 0 37.5 -7.5t30 -20.5t20 -30.5t7.5 -36.5q0 -20 -5 -38.5t-16.5 -33t-29.5 -23t-44 -8.5h-142q-38 0 -56.5 -9.5t-18.5 -36.5h245q29 0 41.5 -18t12.5 -39zM249 307h204v17
q0 23 -3.5 38t-11.5 23.5t-22.5 11.5t-36.5 3h-57q-23 0 -37 -3.5t-22 -12t-11 -23t-3 -37.5v-17z" />
    <glyph glyph-name="Ccedilla" unicode="&#xc7;" horiz-adv-x="598" 
d="M345 -155q-31 0 -53.5 22t-22.5 54v79h-9q-44 0 -82 17.5t-66.5 46.5t-45 67t-16.5 79v179q0 41 16.5 79t45 67t66.5 46.5t82 17.5h208q20 0 37.5 -7.5t30 -20.5t20 -30.5t7.5 -36.5q0 -20 -5 -38.5t-16.5 -33t-29.5 -23t-44 -8.5h-142q-46 0 -61 -15t-15 -59v-55
q0 -23 3.5 -37t12 -22t23.5 -11t37 -3h142q20 0 37.5 -7.5t30 -20.5t20 -30t7.5 -36t-5 -38t-16.5 -34t-29.5 -24t-44 -9h-39v-79q0 -21 -7.5 -35.5t-19.5 -23.5t-27 -13t-30 -4z" />
    <glyph glyph-name="Egrave" unicode="&#xc8;" horiz-adv-x="598" 
d="M550 298q0 -21 -15.5 -37t-38.5 -16h-245q0 -29 18.5 -37.5t56.5 -8.5h142q20 0 37.5 -7.5t30 -20.5t20 -30t7.5 -36t-5 -38t-16.5 -34t-29.5 -24t-44 -9h-208q-44 0 -82 17.5t-66.5 46.5t-45 67t-16.5 79v179q0 41 16.5 79t45 67t66.5 46.5t82 17.5h208q20 0 37.5 -7.5
t30 -20.5t20 -30.5t7.5 -36.5q0 -20 -5 -38.5t-16.5 -33t-29.5 -23t-44 -8.5h-142q-38 0 -56.5 -9.5t-18.5 -36.5h245q29 0 41.5 -18t12.5 -39zM498 717q0 -31 -22 -53.5t-54 -22.5h-186q-21 0 -35.5 7.5t-23.5 19.5t-13 27t-4 30q0 31 22 53.5t54 22.5h186q21 0 35.5 -7.5
t23.5 -19.5t13 -27t4 -30z" />
    <glyph glyph-name="Eacute" unicode="&#xc9;" horiz-adv-x="598" 
d="M550 298q0 -21 -15.5 -37t-38.5 -16h-245q0 -29 18.5 -37.5t56.5 -8.5h142q20 0 37.5 -7.5t30 -20.5t20 -30t7.5 -36t-5 -38t-16.5 -34t-29.5 -24t-44 -9h-208q-44 0 -82 17.5t-66.5 46.5t-45 67t-16.5 79v179q0 41 16.5 79t45 67t66.5 46.5t82 17.5h208q20 0 37.5 -7.5
t30 -20.5t20 -30.5t7.5 -36.5q0 -20 -5 -38.5t-16.5 -33t-29.5 -23t-44 -8.5h-142q-38 0 -56.5 -9.5t-18.5 -36.5h245q29 0 41.5 -18t12.5 -39zM508 717q0 -31 -22 -53.5t-54 -22.5h-186q-21 0 -35.5 7.5t-23.5 19.5t-13 27t-4 30q0 31 22 53.5t54 22.5h186q21 0 35.5 -7.5
t23.5 -19.5t13 -27t4 -30z" />
    <glyph glyph-name="Ecircumflex" unicode="&#xca;" horiz-adv-x="598" 
d="M550 298q0 -21 -15.5 -37t-38.5 -16h-245q0 -29 18.5 -37.5t56.5 -8.5h142q20 0 37.5 -7.5t30 -20.5t20 -30t7.5 -36t-5 -38t-16.5 -34t-29.5 -24t-44 -9h-208q-44 0 -82 17.5t-66.5 46.5t-45 67t-16.5 79v179q0 41 16.5 79t45 67t66.5 46.5t82 17.5h208q20 0 37.5 -7.5
t30 -20.5t20 -30.5t7.5 -36.5q0 -20 -5 -38.5t-16.5 -33t-29.5 -23t-44 -8.5h-142q-38 0 -56.5 -9.5t-18.5 -36.5h245q29 0 41.5 -18t12.5 -39zM508 717q0 -31 -22 -53.5t-54 -22.5h-186q-21 0 -35.5 7.5t-23.5 19.5t-13 27t-4 30q0 31 22 53.5t54 22.5h186q21 0 35.5 -7.5
t23.5 -19.5t13 -27t4 -30z" />
    <glyph glyph-name="Edieresis" unicode="&#xcb;" horiz-adv-x="598" 
d="M550 298q0 -21 -15.5 -37t-38.5 -16h-245q0 -29 18.5 -37.5t56.5 -8.5h142q20 0 37.5 -7.5t30 -20.5t20 -30t7.5 -36t-5 -38t-16.5 -34t-29.5 -24t-44 -9h-208q-44 0 -82 17.5t-66.5 46.5t-45 67t-16.5 79v179q0 41 16.5 79t45 67t66.5 46.5t82 17.5h208q20 0 37.5 -7.5
t30 -20.5t20 -30.5t7.5 -36.5q0 -20 -5 -38.5t-16.5 -33t-29.5 -23t-44 -8.5h-142q-38 0 -56.5 -9.5t-18.5 -36.5h245q29 0 41.5 -18t12.5 -39zM207 620q-37 0 -64 26t-27 63q0 25 9 42t23 28t31.5 16t35.5 5t34.5 -7t29 -19.5t20 -29t7.5 -35.5q0 -24 -9 -41t-23 -27.5
t-31.5 -15.5t-35.5 -5zM442 620q-37 0 -64 26t-27 63q0 25 9 42t23 28t31.5 16t35.5 5t34.5 -7t29 -19.5t20 -29t7.5 -35.5q0 -24 -9 -41t-23 -27.5t-31.5 -15.5t-35.5 -5z" />
    <glyph glyph-name="Igrave" unicode="&#xcc;" horiz-adv-x="475" 
d="M355 600q20 0 37.5 -7.5t30 -20.5t20 -30.5t7.5 -36.5q0 -20 -5 -39t-16.5 -33.5t-29.5 -23.5t-44 -9h-17v-200h16q26 0 44 -9t29.5 -23.5t16.5 -33.5t5 -39q0 -19 -7.5 -36.5t-20 -30.5t-30 -20.5t-37.5 -7.5h-233q-20 0 -37.5 7.5t-30 20.5t-20 30.5t-7.5 36.5
q0 20 5 39t16.5 33.5t29.5 23.5t44 9h16v200h-17q-26 0 -44 9t-29.5 23.5t-16.5 33.5t-5 39q0 19 7.5 36.5t20 30.5t30 20.5t37.5 7.5h235zM406 717q0 -31 -22 -53.5t-54 -22.5h-186q-21 0 -35.5 7.5t-23.5 19.5t-13 27t-4 30q0 31 22 53.5t54 22.5h186q21 0 35.5 -7.5
t23.5 -19.5t13 -27t4 -30z" />
    <glyph glyph-name="Iacute" unicode="&#xcd;" horiz-adv-x="475" 
d="M355 600q20 0 37.5 -7.5t30 -20.5t20 -30.5t7.5 -36.5q0 -20 -5 -39t-16.5 -33.5t-29.5 -23.5t-44 -9h-17v-200h16q26 0 44 -9t29.5 -23.5t16.5 -33.5t5 -39q0 -19 -7.5 -36.5t-20 -30.5t-30 -20.5t-37.5 -7.5h-233q-20 0 -37.5 7.5t-30 20.5t-20 30.5t-7.5 36.5
q0 20 5 39t16.5 33.5t29.5 23.5t44 9h16v200h-17q-26 0 -44 9t-29.5 23.5t-16.5 33.5t-5 39q0 19 7.5 36.5t20 30.5t30 20.5t37.5 7.5h235zM406 717q0 -31 -22 -53.5t-54 -22.5h-186q-21 0 -35.5 7.5t-23.5 19.5t-13 27t-4 30q0 31 22 53.5t54 22.5h186q21 0 35.5 -7.5
t23.5 -19.5t13 -27t4 -30z" />
    <glyph glyph-name="Icircumflex" unicode="&#xce;" horiz-adv-x="475" 
d="M355 600q20 0 37.5 -7.5t30 -20.5t20 -30.5t7.5 -36.5q0 -20 -5 -39t-16.5 -33.5t-29.5 -23.5t-44 -9h-17v-200h16q26 0 44 -9t29.5 -23.5t16.5 -33.5t5 -39q0 -19 -7.5 -36.5t-20 -30.5t-30 -20.5t-37.5 -7.5h-233q-20 0 -37.5 7.5t-30 20.5t-20 30.5t-7.5 36.5
q0 20 5 39t16.5 33.5t29.5 23.5t44 9h16v200h-17q-26 0 -44 9t-29.5 23.5t-16.5 33.5t-5 39q0 19 7.5 36.5t20 30.5t30 20.5t37.5 7.5h235zM406 717q0 -31 -22 -53.5t-54 -22.5h-186q-21 0 -35.5 7.5t-23.5 19.5t-13 27t-4 30q0 31 22 53.5t54 22.5h186q21 0 35.5 -7.5
t23.5 -19.5t13 -27t4 -30z" />
    <glyph glyph-name="Idieresis" unicode="&#xcf;" horiz-adv-x="475" 
d="M355 600q20 0 37.5 -7.5t30 -20.5t20 -30.5t7.5 -36.5q0 -20 -5 -39t-16.5 -33.5t-29.5 -23.5t-44 -9h-17v-200h16q26 0 44 -9t29.5 -23.5t16.5 -33.5t5 -39q0 -19 -7.5 -36.5t-20 -30.5t-30 -20.5t-37.5 -7.5h-233q-20 0 -37.5 7.5t-30 20.5t-20 30.5t-7.5 36.5
q0 20 5 39t16.5 33.5t29.5 23.5t44 9h16v200h-17q-26 0 -44 9t-29.5 23.5t-16.5 33.5t-5 39q0 19 7.5 36.5t20 30.5t30 20.5t37.5 7.5h235zM116 620q-37 0 -64 26t-27 63q0 25 9 42t23 28t31.5 16t35.5 5t34.5 -7t29 -19.5t20 -29t7.5 -35.5q0 -24 -9 -41t-23 -27.5
t-31.5 -15.5t-35.5 -5zM351 620q-37 0 -64 26t-27 63q0 25 9 42t23 28t31.5 16t35.5 5t34.5 -7t29 -19.5t20 -29t7.5 -35.5q0 -24 -9 -41t-23 -27.5t-31.5 -15.5t-35.5 -5z" />
    <glyph glyph-name="Eth" unicode="&#xd0;" horiz-adv-x="598" 
d="M354 600q44 0 82 -17.5t66.5 -46.5t45 -67t16.5 -79v-179q0 -41 -16.5 -79t-45 -67.5t-66.5 -47t-82 -17.5h-208q-19 0 -36.5 7.5t-30.5 20.5t-20.5 30.5t-7.5 36.5v144q-35 4 -48.5 23t-13.5 41q0 21 17.5 37t44.5 20v145q0 43 26 69t69 26h208zM323 297
q0 -23 -21.5 -40t-50.5 -18v-40h37q23 0 38 3.5t23.5 11.5t11.5 22.5t3 36.5v55q0 23 -3.5 37t-12 22t-23 11t-37.5 3h-37v-40q39 -1 55.5 -21t16.5 -43z" />
    <glyph glyph-name="Ntilde" unicode="&#xd1;" horiz-adv-x="699" 
d="M451 331v174q0 26 8.5 44t23 29.5t33 16.5t38.5 5q19 0 36.5 -7.5t30.5 -20t20.5 -30t7.5 -37.5v-419q0 -21 -8.5 -38.5t-22.5 -30t-32.5 -20t-38.5 -7.5q-23 0 -43.5 9.5t-34.5 28.5l-219 256v-189q0 -26 -9 -44t-23.5 -29.5t-33 -16.5t-38.5 -5q-19 0 -36.5 7.5
t-30.5 20t-21 30t-8 37.5v399q0 23 8.5 42.5t22.5 33.5t33 22.5t40 8.5q20 0 42 -6t37 -20zM524 717q0 -31 -22 -53.5t-54 -22.5h-186q-21 0 -35.5 7.5t-23.5 19.5t-13 27t-4 30q0 31 22 53.5t54 22.5h186q21 0 35.5 -7.5t23.5 -19.5t13 -27t4 -30z" />
    <glyph glyph-name="Ograve" unicode="&#xd2;" 
d="M260 0q-39 0 -77 15t-67.5 42.5t-47.5 66t-18 86.5v180q0 44 17.5 82t46.5 66.5t67 45t79 16.5h181q41 0 79 -16.5t67 -45t46.5 -66.5t17.5 -82v-180q0 -48 -18 -86.5t-47.5 -66t-67.5 -42.5t-77 -15h-181zM322 400q-22 0 -36.5 -3t-22.5 -11.5t-11.5 -23.5t-3.5 -38v-50
q0 -24 3.5 -39t12 -23t23 -10.5t35.5 -2.5h57q21 0 35.5 2.5t23 10.5t12 23t3.5 39v50q0 23 -3.5 38t-11.5 23.5t-22.5 11.5t-36.5 3h-57zM519 717q0 -31 -22 -53.5t-54 -22.5h-186q-21 0 -35.5 7.5t-23.5 19.5t-13 27t-4 30q0 31 22 53.5t54 22.5h186q21 0 35.5 -7.5
t23.5 -19.5t13 -27t4 -30z" />
    <glyph glyph-name="Oacute" unicode="&#xd3;" 
d="M260 0q-39 0 -77 15t-67.5 42.5t-47.5 66t-18 86.5v180q0 44 17.5 82t46.5 66.5t67 45t79 16.5h181q41 0 79 -16.5t67 -45t46.5 -66.5t17.5 -82v-180q0 -48 -18 -86.5t-47.5 -66t-67.5 -42.5t-77 -15h-181zM322 400q-22 0 -36.5 -3t-22.5 -11.5t-11.5 -23.5t-3.5 -38v-50
q0 -24 3.5 -39t12 -23t23 -10.5t35.5 -2.5h57q21 0 35.5 2.5t23 10.5t12 23t3.5 39v50q0 23 -3.5 38t-11.5 23.5t-22.5 11.5t-36.5 3h-57zM519 717q0 -31 -22 -53.5t-54 -22.5h-186q-21 0 -35.5 7.5t-23.5 19.5t-13 27t-4 30q0 31 22 53.5t54 22.5h186q21 0 35.5 -7.5
t23.5 -19.5t13 -27t4 -30z" />
    <glyph glyph-name="Ocircumflex" unicode="&#xd4;" 
d="M260 0q-39 0 -77 15t-67.5 42.5t-47.5 66t-18 86.5v180q0 44 17.5 82t46.5 66.5t67 45t79 16.5h181q41 0 79 -16.5t67 -45t46.5 -66.5t17.5 -82v-180q0 -48 -18 -86.5t-47.5 -66t-67.5 -42.5t-77 -15h-181zM322 400q-22 0 -36.5 -3t-22.5 -11.5t-11.5 -23.5t-3.5 -38v-50
q0 -24 3.5 -39t12 -23t23 -10.5t35.5 -2.5h57q21 0 35.5 2.5t23 10.5t12 23t3.5 39v50q0 23 -3.5 38t-11.5 23.5t-22.5 11.5t-36.5 3h-57zM519 717q0 -31 -22 -53.5t-54 -22.5h-186q-21 0 -35.5 7.5t-23.5 19.5t-13 27t-4 30q0 31 22 53.5t54 22.5h186q21 0 35.5 -7.5
t23.5 -19.5t13 -27t4 -30z" />
    <glyph glyph-name="Otilde" unicode="&#xd5;" 
d="M260 0q-39 0 -77 15t-67.5 42.5t-47.5 66t-18 86.5v180q0 44 17.5 82t46.5 66.5t67 45t79 16.5h181q41 0 79 -16.5t67 -45t46.5 -66.5t17.5 -82v-180q0 -48 -18 -86.5t-47.5 -66t-67.5 -42.5t-77 -15h-181zM322 400q-22 0 -36.5 -3t-22.5 -11.5t-11.5 -23.5t-3.5 -38v-50
q0 -24 3.5 -39t12 -23t23 -10.5t35.5 -2.5h57q21 0 35.5 2.5t23 10.5t12 23t3.5 39v50q0 23 -3.5 38t-11.5 23.5t-22.5 11.5t-36.5 3h-57zM519 717q0 -31 -22 -53.5t-54 -22.5h-186q-21 0 -35.5 7.5t-23.5 19.5t-13 27t-4 30q0 31 22 53.5t54 22.5h186q21 0 35.5 -7.5
t23.5 -19.5t13 -27t4 -30z" />
    <glyph glyph-name="Odieresis" unicode="&#xd6;" 
d="M260 0q-39 0 -77 15t-67.5 42.5t-47.5 66t-18 86.5v180q0 44 17.5 82t46.5 66.5t67 45t79 16.5h181q41 0 79 -16.5t67 -45t46.5 -66.5t17.5 -82v-180q0 -48 -18 -86.5t-47.5 -66t-67.5 -42.5t-77 -15h-181zM322 400q-22 0 -36.5 -3t-22.5 -11.5t-11.5 -23.5t-3.5 -38v-50
q0 -24 3.5 -39t12 -23t23 -10.5t35.5 -2.5h57q21 0 35.5 2.5t23 10.5t12 23t3.5 39v50q0 23 -3.5 38t-11.5 23.5t-22.5 11.5t-36.5 3h-57zM229 620q-37 0 -64 26t-27 63q0 25 9 42t23 28t31.5 16t35.5 5t34.5 -7t29 -19.5t20 -29t7.5 -35.5q0 -24 -9 -41t-23 -27.5
t-31.5 -15.5t-35.5 -5zM464 620q-37 0 -64 26t-27 63q0 25 9 42t23 28t31.5 16t35.5 5t34.5 -7t29 -19.5t20 -29t7.5 -35.5q0 -24 -9 -41t-23 -27.5t-31.5 -15.5t-35.5 -5z" />
    <glyph glyph-name="multiply" unicode="&#xd7;" horiz-adv-x="457" 
d="M408 476q11 -11 16.5 -25t5.5 -29q0 -14 -5.5 -28.5t-16.5 -25.5l-67 -67l67 -67q24 -24 24 -52q0 -16 -7 -31t-18.5 -26.5t-26.5 -18.5t-31 -7q-14 0 -28.5 5.5t-25.5 16.5l-67 67l-66 -67q-11 -11 -25 -17t-27 -6q-16 0 -31 7t-27 18t-19 26.5t-7 31.5q0 14 5.5 28.5
t16.5 25.5l67 66l-67 66q-12 12 -17 27t-6 25q0 16 7 31t18 27t26.5 19t31.5 7q14 0 28.5 -5.5t25.5 -16.5l66 -67l67 67q24 24 52 24q17 0 33 -8t28 -21z" />
    <glyph glyph-name="Oslash" unicode="&#xd8;" 
d="M349 -64q-14 0 -23.5 9t-9.5 22v33h-56q-39 0 -77 15t-67.5 42.5t-47.5 66t-18 86.5v180q0 44 17.5 82t46.5 66.5t67 45t79 16.5h56v42q0 17 11.5 24.5t24.5 7.5q14 0 23.5 -9t9.5 -23v-42h56q41 0 79 -16.5t67 -45t46.5 -66.5t17.5 -82v-180q0 -48 -18 -86.5t-47.5 -66
t-67.5 -42.5t-77 -15h-56v-33q0 -17 -11 -24t-25 -7zM248 274q0 -24 3.5 -38.5t11 -22.5t21 -11t32.5 -3v201q-40 -1 -54 -16t-14 -60v-50zM453 324q0 23 -3 37.5t-10.5 23t-21 12t-33.5 3.5v-201q20 0 33 3t20.5 11t11 22.5t3.5 38.5v50z" />
    <glyph glyph-name="Ugrave" unicode="&#xd9;" 
d="M145 610q20 0 38.5 -5t33 -16.5t23 -29.5t8.5 -44v-239q0 -46 15 -61t59 -15h57q23 0 37 3.5t22 12t11 23.5t3 37v239q0 20 7.5 37.5t20.5 30t30 20t36 7.5t38 -5t34 -16.5t24 -29.5t9 -44v-305q0 -44 -17.5 -82t-46.5 -66.5t-67 -45t-79 -16.5h-181q-41 0 -79 16.5
t-67 45t-46.5 66.5t-17.5 82v305q0 20 7.5 37.5t20.5 30t30.5 20t36.5 7.5zM519 717q0 -31 -22 -53.5t-54 -22.5h-186q-21 0 -35.5 7.5t-23.5 19.5t-13 27t-4 30q0 31 22 53.5t54 22.5h186q21 0 35.5 -7.5t23.5 -19.5t13 -27t4 -30z" />
    <glyph glyph-name="Uacute" unicode="&#xda;" 
d="M145 610q20 0 38.5 -5t33 -16.5t23 -29.5t8.5 -44v-239q0 -46 15 -61t59 -15h57q23 0 37 3.5t22 12t11 23.5t3 37v239q0 20 7.5 37.5t20.5 30t30 20t36 7.5t38 -5t34 -16.5t24 -29.5t9 -44v-305q0 -44 -17.5 -82t-46.5 -66.5t-67 -45t-79 -16.5h-181q-41 0 -79 16.5
t-67 45t-46.5 66.5t-17.5 82v305q0 20 7.5 37.5t20.5 30t30.5 20t36.5 7.5zM519 717q0 -31 -22 -53.5t-54 -22.5h-186q-21 0 -35.5 7.5t-23.5 19.5t-13 27t-4 30q0 31 22 53.5t54 22.5h186q21 0 35.5 -7.5t23.5 -19.5t13 -27t4 -30z" />
    <glyph glyph-name="Ucircumflex" unicode="&#xdb;" 
d="M145 610q20 0 38.5 -5t33 -16.5t23 -29.5t8.5 -44v-239q0 -46 15 -61t59 -15h57q23 0 37 3.5t22 12t11 23.5t3 37v239q0 20 7.5 37.5t20.5 30t30 20t36 7.5t38 -5t34 -16.5t24 -29.5t9 -44v-305q0 -44 -17.5 -82t-46.5 -66.5t-67 -45t-79 -16.5h-181q-41 0 -79 16.5
t-67 45t-46.5 66.5t-17.5 82v305q0 20 7.5 37.5t20.5 30t30.5 20t36.5 7.5zM519 717q0 -31 -22 -53.5t-54 -22.5h-186q-21 0 -35.5 7.5t-23.5 19.5t-13 27t-4 30q0 31 22 53.5t54 22.5h186q21 0 35.5 -7.5t23.5 -19.5t13 -27t4 -30z" />
    <glyph glyph-name="Udieresis" unicode="&#xdc;" 
d="M145 610q20 0 38.5 -5t33 -16.5t23 -29.5t8.5 -44v-239q0 -46 15 -61t59 -15h57q23 0 37 3.5t22 12t11 23.5t3 37v239q0 20 7.5 37.5t20.5 30t30 20t36 7.5t38 -5t34 -16.5t24 -29.5t9 -44v-305q0 -44 -17.5 -82t-46.5 -66.5t-67 -45t-79 -16.5h-181q-41 0 -79 16.5
t-67 45t-46.5 66.5t-17.5 82v305q0 20 7.5 37.5t20.5 30t30.5 20t36.5 7.5zM229 620q-37 0 -64 26t-27 63q0 25 9 42t23 28t31.5 16t35.5 5t34.5 -7t29 -19.5t20 -29t7.5 -35.5q0 -24 -9 -41t-23 -27.5t-31.5 -15.5t-35.5 -5zM464 620q-37 0 -64 26t-27 63q0 25 9 42t23 28
t31.5 16t35.5 5t34.5 -7t29 -19.5t20 -29t7.5 -35.5q0 -24 -9 -41t-23 -27.5t-31.5 -15.5t-35.5 -5z" />
    <glyph glyph-name="Yacute" unicode="&#xdd;" 
d="M145 610q20 0 38.5 -5t33 -16.5t23 -29.5t8.5 -44v-89q0 -46 15 -61t59 -15h57q23 0 37 3.5t22 12t11 23.5t3 37v89q0 20 7.5 37.5t20.5 30t30 20t36 7.5t38 -5t34 -16.5t24 -29.5t9 -44v-155q0 -43 -16.5 -80.5t-44 -65.5t-64 -45t-75.5 -19v-65q0 -26 -9 -44t-24 -29.5
t-34 -16.5t-38 -5t-36.5 7.5t-30.5 20t-20.5 30t-7.5 37.5v65q-40 2 -76 19t-64 45t-44.5 65.5t-16.5 80.5v155q0 20 7.5 37.5t20.5 30t30.5 20t36.5 7.5zM519 717q0 -31 -22 -53.5t-54 -22.5h-186q-21 0 -35.5 7.5t-23.5 19.5t-13 27t-4 30q0 31 22 53.5t54 22.5h186
q21 0 35.5 -7.5t23.5 -19.5t13 -27t4 -30z" />
    <glyph glyph-name="Thorn" unicode="&#xde;" horiz-adv-x="598" 
d="M50 505q0 26 9 44t24 29.5t34 16.5t38 5q26 0 49 -14t35 -37h115q44 0 82 -15.5t66.5 -46t45 -77.5t16.5 -110t-16.5 -110t-45 -78t-66.5 -46.5t-82 -15.5h-110q-11 -32 -39.5 -46t-59.5 -14q-19 0 -36.5 7.5t-30.5 20t-20.5 30t-7.5 37.5v420zM250 351v-102h38
q39 0 57 9.5t18 40.5t-17.5 41.5t-57.5 10.5h-38z" />
    <glyph glyph-name="germandbls" unicode="&#xdf;" horiz-adv-x="931" 
d="M20 404q0 19 7.5 36.5t20 30.5t30 20.5t37.5 7.5h42v91q0 41 16.5 79t45 67t66.5 46.5t82 17.5h78q20 0 37.5 -7.5t30 -20.5t20 -30.5t7.5 -36.5q0 -20 -5 -38.5t-16.5 -33t-29.5 -23t-44 -8.5h-12q-46 0 -61 -15t-15 -59v-633q0 -26 -9 -44t-24 -29.5t-34 -16.5t-38 -5
t-36.5 7.5t-30.5 20t-20.5 30t-7.5 37.5v406h-42q-26 0 -44 8.5t-29.5 23t-16.5 33t-5 38.5zM526 588q28 28 67 28q18 0 35.5 -7t31.5 -21l167 -166q42 -42 61.5 -93t19.5 -102q0 -44 -14.5 -85t-42 -72.5t-67.5 -50.5t-91 -19h-184q-20 0 -37.5 7.5t-30 20.5t-20 30.5
t-7.5 36.5q0 20 5 39t16.5 33.5t29.5 23.5t44 9h135q21 0 35.5 14t14.5 35q0 14 -4 23t-11 15l-161 159q-30 29 -30 63q0 22 11 42.5t27 36.5z" />
    <glyph glyph-name="agrave" unicode="&#xe0;" horiz-adv-x="700" 
d="M421 95q0 -19 -7.5 -36.5t-20 -30.5t-30 -20.5t-37.5 -7.5h-66q-44 0 -82 17.5t-66.5 46.5t-45 67t-16.5 79v179q0 44 17.5 82t47 66.5t67.5 45t79 16.5h179q41 0 79 -16.5t67 -45t46.5 -66.5t17.5 -82v-304q0 -26 -9 -44t-24 -29.5t-34 -16.5t-38 -5t-36 7.5t-30 20
t-20.5 30t-7.5 37.5v238q0 23 -3 37.5t-11 23t-22 12t-37 3.5h-55q-22 0 -36.5 -3t-22.5 -11.5t-11.5 -23.5t-3.5 -38v-51q0 -44 15.5 -59t61.5 -15q26 0 44 -8.5t29.5 -23t16.5 -33t5 -38.5zM519 717q0 -31 -22 -53.5t-54 -22.5h-186q-21 0 -35.5 7.5t-23.5 19.5t-13 27
t-4 30q0 31 22 53.5t54 22.5h186q21 0 35.5 -7.5t23.5 -19.5t13 -27t4 -30z" />
    <glyph glyph-name="aacute" unicode="&#xe1;" horiz-adv-x="700" 
d="M421 95q0 -19 -7.5 -36.5t-20 -30.5t-30 -20.5t-37.5 -7.5h-66q-44 0 -82 17.5t-66.5 46.5t-45 67t-16.5 79v179q0 44 17.5 82t47 66.5t67.5 45t79 16.5h179q41 0 79 -16.5t67 -45t46.5 -66.5t17.5 -82v-304q0 -26 -9 -44t-24 -29.5t-34 -16.5t-38 -5t-36 7.5t-30 20
t-20.5 30t-7.5 37.5v238q0 23 -3 37.5t-11 23t-22 12t-37 3.5h-55q-22 0 -36.5 -3t-22.5 -11.5t-11.5 -23.5t-3.5 -38v-51q0 -44 15.5 -59t61.5 -15q26 0 44 -8.5t29.5 -23t16.5 -33t5 -38.5zM519 717q0 -31 -22 -53.5t-54 -22.5h-186q-21 0 -35.5 7.5t-23.5 19.5t-13 27
t-4 30q0 31 22 53.5t54 22.5h186q21 0 35.5 -7.5t23.5 -19.5t13 -27t4 -30z" />
    <glyph glyph-name="acircumflex" unicode="&#xe2;" horiz-adv-x="700" 
d="M421 95q0 -19 -7.5 -36.5t-20 -30.5t-30 -20.5t-37.5 -7.5h-66q-44 0 -82 17.5t-66.5 46.5t-45 67t-16.5 79v179q0 44 17.5 82t47 66.5t67.5 45t79 16.5h179q41 0 79 -16.5t67 -45t46.5 -66.5t17.5 -82v-304q0 -26 -9 -44t-24 -29.5t-34 -16.5t-38 -5t-36 7.5t-30 20
t-20.5 30t-7.5 37.5v238q0 23 -3 37.5t-11 23t-22 12t-37 3.5h-55q-22 0 -36.5 -3t-22.5 -11.5t-11.5 -23.5t-3.5 -38v-51q0 -44 15.5 -59t61.5 -15q26 0 44 -8.5t29.5 -23t16.5 -33t5 -38.5zM519 717q0 -31 -22 -53.5t-54 -22.5h-186q-21 0 -35.5 7.5t-23.5 19.5t-13 27
t-4 30q0 31 22 53.5t54 22.5h186q21 0 35.5 -7.5t23.5 -19.5t13 -27t4 -30z" />
    <glyph glyph-name="atilde" unicode="&#xe3;" horiz-adv-x="700" 
d="M421 95q0 -19 -7.5 -36.5t-20 -30.5t-30 -20.5t-37.5 -7.5h-66q-44 0 -82 17.5t-66.5 46.5t-45 67t-16.5 79v179q0 44 17.5 82t47 66.5t67.5 45t79 16.5h179q41 0 79 -16.5t67 -45t46.5 -66.5t17.5 -82v-304q0 -26 -9 -44t-24 -29.5t-34 -16.5t-38 -5t-36 7.5t-30 20
t-20.5 30t-7.5 37.5v238q0 23 -3 37.5t-11 23t-22 12t-37 3.5h-55q-22 0 -36.5 -3t-22.5 -11.5t-11.5 -23.5t-3.5 -38v-51q0 -44 15.5 -59t61.5 -15q26 0 44 -8.5t29.5 -23t16.5 -33t5 -38.5zM519 717q0 -31 -22 -53.5t-54 -22.5h-186q-21 0 -35.5 7.5t-23.5 19.5t-13 27
t-4 30q0 31 22 53.5t54 22.5h186q21 0 35.5 -7.5t23.5 -19.5t13 -27t4 -30z" />
    <glyph glyph-name="adieresis" unicode="&#xe4;" horiz-adv-x="700" 
d="M421 95q0 -19 -7.5 -36.5t-20 -30.5t-30 -20.5t-37.5 -7.5h-66q-44 0 -82 17.5t-66.5 46.5t-45 67t-16.5 79v179q0 44 17.5 82t47 66.5t67.5 45t79 16.5h179q41 0 79 -16.5t67 -45t46.5 -66.5t17.5 -82v-304q0 -26 -9 -44t-24 -29.5t-34 -16.5t-38 -5t-36 7.5t-30 20
t-20.5 30t-7.5 37.5v238q0 23 -3 37.5t-11 23t-22 12t-37 3.5h-55q-22 0 -36.5 -3t-22.5 -11.5t-11.5 -23.5t-3.5 -38v-51q0 -44 15.5 -59t61.5 -15q26 0 44 -8.5t29.5 -23t16.5 -33t5 -38.5zM228 620q-37 0 -64 26t-27 63q0 25 9 42t23 28t31.5 16t35.5 5t34.5 -7t29 -19.5
t20 -29t7.5 -35.5q0 -24 -9 -41t-23 -27.5t-31.5 -15.5t-35.5 -5zM463 620q-37 0 -64 26t-27 63q0 25 9 42t23 28t31.5 16t35.5 5t34.5 -7t29 -19.5t20 -29t7.5 -35.5q0 -24 -9 -41t-23 -27.5t-31.5 -15.5t-35.5 -5z" />
    <glyph glyph-name="aring" unicode="&#xe5;" horiz-adv-x="700" 
d="M421 95q0 -19 -7.5 -36.5t-20 -30.5t-30 -20.5t-37.5 -7.5h-66q-44 0 -82 17.5t-66.5 46.5t-45 67t-16.5 79v179q0 44 17.5 82t47 66.5t67.5 45t79 16.5h179q41 0 79 -16.5t67 -45t46.5 -66.5t17.5 -82v-304q0 -26 -9 -44t-24 -29.5t-34 -16.5t-38 -5t-36 7.5t-30 20
t-20.5 30t-7.5 37.5v238q0 23 -3 37.5t-11 23t-22 12t-37 3.5h-55q-22 0 -36.5 -3t-22.5 -11.5t-11.5 -23.5t-3.5 -38v-51q0 -44 15.5 -59t61.5 -15q26 0 44 -8.5t29.5 -23t16.5 -33t5 -38.5zM358 801q19 0 36.5 -7.5t30.5 -20t20.5 -30t7.5 -37.5q0 -26 -9 -44t-24 -29.5
t-34 -16.5t-38 -5t-36.5 7.5t-30.5 20t-20.5 30t-7.5 37.5q0 26 9 44t24 29.5t34 16.5t38 5z" />
    <glyph glyph-name="ae" unicode="&#xe6;" horiz-adv-x="1043" 
d="M659 245v-47h229q26 0 44 -8.5t29.5 -23t16.5 -33t5 -38.5q0 -19 -7.5 -36.5t-20 -30.5t-30 -20.5t-37.5 -7.5h-228q-44 0 -82 11.5t-66.5 33.5t-45 54t-16.5 73v177q0 29 -17 39.5t-55 10.5h-55q-22 0 -36.5 -3t-22.5 -11.5t-11.5 -23.5t-3.5 -38v-51q0 -44 15.5 -59
t61.5 -15q26 0 44 -8.5t29.5 -23t16.5 -33t5 -38.5q0 -19 -7.5 -36.5t-20 -30.5t-30 -20.5t-37.5 -7.5h-66q-44 0 -82 17.5t-66.5 46.5t-45 67t-16.5 79v179q0 44 17.5 82t47 66.5t67.5 45t79 16.5h179q26 0 51.5 -7t48.5 -20q51 27 120 27h127q44 0 81.5 -8.5t65.5 -32
t43.5 -65.5t15.5 -109q0 -42 -14 -69t-40 -42.5t-62 -21.5t-80 -6h-138zM789 377q0 14 -12 19t-32 5h-33q-24 0 -39 -3.5t-15 -20.5t14 -20t37 -3h33q20 0 33.5 4.5t13.5 18.5z" />
    <glyph glyph-name="ccedilla" unicode="&#xe7;" horiz-adv-x="598" 
d="M345 -155q-31 0 -53.5 22t-22.5 54v79h-9q-44 0 -82 17.5t-66.5 46.5t-45 67t-16.5 79v179q0 41 16.5 79t45 67t66.5 46.5t82 17.5h208q20 0 37.5 -7.5t30 -20.5t20 -30.5t7.5 -36.5q0 -20 -5 -38.5t-16.5 -33t-29.5 -23t-44 -8.5h-142q-46 0 -61 -15t-15 -59v-55
q0 -23 3.5 -37t12 -22t23.5 -11t37 -3h142q20 0 37.5 -7.5t30 -20.5t20 -30t7.5 -36t-5 -38t-16.5 -34t-29.5 -24t-44 -9h-39v-79q0 -21 -7.5 -35.5t-19.5 -23.5t-27 -13t-30 -4z" />
    <glyph glyph-name="egrave" unicode="&#xe8;" horiz-adv-x="643" 
d="M259 245v-47h229q26 0 44 -8.5t29.5 -23t16.5 -33t5 -38.5q0 -19 -7.5 -36.5t-20 -30.5t-30 -20.5t-37.5 -7.5h-228q-44 0 -82 11.5t-66.5 33.5t-45 54t-16.5 73v255q0 41 16.5 73t45 54t66.5 33.5t82 11.5h127q44 0 81.5 -8.5t65.5 -32t43.5 -65.5t15.5 -109
q0 -42 -14 -69t-40 -42.5t-62 -21.5t-80 -6h-138zM389 377q0 14 -12 19t-32 5h-33q-24 0 -39 -3.5t-15 -20.5t14 -20t37 -3h33q20 0 33.5 4.5t13.5 18.5zM490 717q0 -31 -22 -53.5t-54 -22.5h-186q-21 0 -35.5 7.5t-23.5 19.5t-13 27t-4 30q0 31 22 53.5t54 22.5h186
q21 0 35.5 -7.5t23.5 -19.5t13 -27t4 -30z" />
    <glyph glyph-name="eacute" unicode="&#xe9;" horiz-adv-x="643" 
d="M259 245v-47h229q26 0 44 -8.5t29.5 -23t16.5 -33t5 -38.5q0 -19 -7.5 -36.5t-20 -30.5t-30 -20.5t-37.5 -7.5h-228q-44 0 -82 11.5t-66.5 33.5t-45 54t-16.5 73v255q0 41 16.5 73t45 54t66.5 33.5t82 11.5h127q44 0 81.5 -8.5t65.5 -32t43.5 -65.5t15.5 -109
q0 -42 -14 -69t-40 -42.5t-62 -21.5t-80 -6h-138zM389 377q0 14 -12 19t-32 5h-33q-24 0 -39 -3.5t-15 -20.5t14 -20t37 -3h33q20 0 33.5 4.5t13.5 18.5zM490 717q0 -31 -22 -53.5t-54 -22.5h-186q-21 0 -35.5 7.5t-23.5 19.5t-13 27t-4 30q0 31 22 53.5t54 22.5h186
q21 0 35.5 -7.5t23.5 -19.5t13 -27t4 -30z" />
    <glyph glyph-name="ecircumflex" unicode="&#xea;" horiz-adv-x="643" 
d="M259 245v-47h229q26 0 44 -8.5t29.5 -23t16.5 -33t5 -38.5q0 -19 -7.5 -36.5t-20 -30.5t-30 -20.5t-37.5 -7.5h-228q-44 0 -82 11.5t-66.5 33.5t-45 54t-16.5 73v255q0 41 16.5 73t45 54t66.5 33.5t82 11.5h127q44 0 81.5 -8.5t65.5 -32t43.5 -65.5t15.5 -109
q0 -42 -14 -69t-40 -42.5t-62 -21.5t-80 -6h-138zM389 377q0 14 -12 19t-32 5h-33q-24 0 -39 -3.5t-15 -20.5t14 -20t37 -3h33q20 0 33.5 4.5t13.5 18.5zM490 717q0 -31 -22 -53.5t-54 -22.5h-186q-21 0 -35.5 7.5t-23.5 19.5t-13 27t-4 30q0 31 22 53.5t54 22.5h186
q21 0 35.5 -7.5t23.5 -19.5t13 -27t4 -30z" />
    <glyph glyph-name="edieresis" unicode="&#xeb;" horiz-adv-x="643" 
d="M259 245v-47h229q26 0 44 -8.5t29.5 -23t16.5 -33t5 -38.5q0 -19 -7.5 -36.5t-20 -30.5t-30 -20.5t-37.5 -7.5h-228q-44 0 -82 11.5t-66.5 33.5t-45 54t-16.5 73v255q0 41 16.5 73t45 54t66.5 33.5t82 11.5h127q44 0 81.5 -8.5t65.5 -32t43.5 -65.5t15.5 -109
q0 -42 -14 -69t-40 -42.5t-62 -21.5t-80 -6h-138zM389 377q0 14 -12 19t-32 5h-33q-24 0 -39 -3.5t-15 -20.5t14 -20t37 -3h33q20 0 33.5 4.5t13.5 18.5zM200 620q-37 0 -64 26t-27 63q0 25 9 42t23 28t31.5 16t35.5 5t34.5 -7t29 -19.5t20 -29t7.5 -35.5q0 -24 -9 -41
t-23 -27.5t-31.5 -15.5t-35.5 -5zM435 620q-37 0 -64 26t-27 63q0 25 9 42t23 28t31.5 16t35.5 5t34.5 -7t29 -19.5t20 -29t7.5 -35.5q0 -24 -9 -41t-23 -27.5t-31.5 -15.5t-35.5 -5z" />
    <glyph glyph-name="igrave" unicode="&#xec;" horiz-adv-x="300" 
d="M145 -10q-19 0 -36.5 7.5t-30.5 20t-20.5 30t-7.5 37.5v420q0 26 9 44t24 29.5t34 16.5t38 5t36.5 -7.5t30.5 -20t20.5 -30t7.5 -37.5v-420q0 -26 -9 -44t-24 -29.5t-34 -16.5t-38 -5zM319 717q0 -31 -22 -53.5t-54 -22.5h-186q-21 0 -35.5 7.5t-23.5 19.5t-13 27t-4 30
q0 31 22 53.5t54 22.5h186q21 0 35.5 -7.5t23.5 -19.5t13 -27t4 -30z" />
    <glyph glyph-name="iacute" unicode="&#xed;" horiz-adv-x="300" 
d="M145 -10q-19 0 -36.5 7.5t-30.5 20t-20.5 30t-7.5 37.5v420q0 26 9 44t24 29.5t34 16.5t38 5t36.5 -7.5t30.5 -20t20.5 -30t7.5 -37.5v-420q0 -26 -9 -44t-24 -29.5t-34 -16.5t-38 -5zM319 717q0 -31 -22 -53.5t-54 -22.5h-186q-21 0 -35.5 7.5t-23.5 19.5t-13 27t-4 30
q0 31 22 53.5t54 22.5h186q21 0 35.5 -7.5t23.5 -19.5t13 -27t4 -30z" />
    <glyph glyph-name="icircumflex" unicode="&#xee;" horiz-adv-x="300" 
d="M145 -10q-19 0 -36.5 7.5t-30.5 20t-20.5 30t-7.5 37.5v420q0 26 9 44t24 29.5t34 16.5t38 5t36.5 -7.5t30.5 -20t20.5 -30t7.5 -37.5v-420q0 -26 -9 -44t-24 -29.5t-34 -16.5t-38 -5zM319 717q0 -31 -22 -53.5t-54 -22.5h-186q-21 0 -35.5 7.5t-23.5 19.5t-13 27t-4 30
q0 31 22 53.5t54 22.5h186q21 0 35.5 -7.5t23.5 -19.5t13 -27t4 -30z" />
    <glyph glyph-name="idieresis" unicode="&#xef;" horiz-adv-x="300" 
d="M145 -10q-19 0 -36.5 7.5t-30.5 20t-20.5 30t-7.5 37.5v420q0 26 9 44t24 29.5t34 16.5t38 5t36.5 -7.5t30.5 -20t20.5 -30t7.5 -37.5v-420q0 -26 -9 -44t-24 -29.5t-34 -16.5t-38 -5zM29 620q-37 0 -64 26t-27 63q0 25 9 42t23 28t31.5 16t35.5 5t34.5 -7t29 -19.5
t20 -29t7.5 -35.5q0 -24 -9 -41t-23 -27.5t-31.5 -15.5t-35.5 -5zM264 620q-37 0 -64 26t-27 63q0 25 9 42t23 28t31.5 16t35.5 5t34.5 -7t29 -19.5t20 -29t7.5 -35.5q0 -24 -9 -41t-23 -27.5t-31.5 -15.5t-35.5 -5z" />
    <glyph glyph-name="eth" unicode="&#xf0;" 
d="M697 687q0 -11 -10 -19.5t-36 -8.5v-449q0 -41 -15 -79t-42.5 -67t-66.5 -46.5t-88 -17.5h-179q-39 0 -77 15t-67.5 42.5t-47.5 66t-18 86.5v180q0 44 17.5 82t46.5 66.5t67 45t79 16.5h191v59h-5q-17 0 -26.5 2.5t-14 7t-5 10t-0.5 11.5q0 11 10 19.5t36 8.5h6
q2 17 10.5 32t21 26t28.5 17.5t34 6.5t35.5 -4.5t31.5 -14.5t24 -25.5t13 -37.5q17 0 26.5 -2.5t14 -7t5.5 -10t1 -11.5zM450 400h-128q-22 0 -36.5 -3t-22.5 -11.5t-11.5 -23.5t-3.5 -38v-50q0 -24 3.5 -39t12 -23t23 -10.5t35.5 -2.5h52q24 0 39 3.5t23.5 11.5t11 23
t2.5 37v126z" />
    <glyph glyph-name="ntilde" unicode="&#xf1;" 
d="M556 -10q-20 0 -38.5 5t-33 16.5t-23 29.5t-8.5 44v239q0 23 -3.5 38t-11.5 23.5t-22.5 11.5t-36.5 3h-57q-23 0 -37 -3.5t-22 -12t-11 -23t-3 -37.5v-239q0 -20 -7.5 -37.5t-20.5 -30t-30 -20t-36 -7.5t-38 5t-34 16.5t-24 29.5t-9 44v305q0 44 17.5 82t46.5 66.5t67 45
t79 16.5h181q41 0 79 -16.5t67 -45t46.5 -66.5t17.5 -82v-305q0 -20 -7.5 -37.5t-20.5 -30t-30.5 -20t-36.5 -7.5zM519 717q0 -31 -22 -53.5t-54 -22.5h-186q-21 0 -35.5 7.5t-23.5 19.5t-13 27t-4 30q0 31 22 53.5t54 22.5h186q21 0 35.5 -7.5t23.5 -19.5t13 -27t4 -30z
" />
    <glyph glyph-name="ograve" unicode="&#xf2;" 
d="M260 0q-39 0 -77 15t-67.5 42.5t-47.5 66t-18 86.5v180q0 44 17.5 82t46.5 66.5t67 45t79 16.5h181q41 0 79 -16.5t67 -45t46.5 -66.5t17.5 -82v-180q0 -48 -18 -86.5t-47.5 -66t-67.5 -42.5t-77 -15h-181zM322 400q-22 0 -36.5 -3t-22.5 -11.5t-11.5 -23.5t-3.5 -38v-50
q0 -24 3.5 -39t12 -23t23 -10.5t35.5 -2.5h57q21 0 35.5 2.5t23 10.5t12 23t3.5 39v50q0 23 -3.5 38t-11.5 23.5t-22.5 11.5t-36.5 3h-57zM519 717q0 -31 -22 -53.5t-54 -22.5h-186q-21 0 -35.5 7.5t-23.5 19.5t-13 27t-4 30q0 31 22 53.5t54 22.5h186q21 0 35.5 -7.5
t23.5 -19.5t13 -27t4 -30z" />
    <glyph glyph-name="oacute" unicode="&#xf3;" 
d="M260 0q-39 0 -77 15t-67.5 42.5t-47.5 66t-18 86.5v180q0 44 17.5 82t46.5 66.5t67 45t79 16.5h181q41 0 79 -16.5t67 -45t46.5 -66.5t17.5 -82v-180q0 -48 -18 -86.5t-47.5 -66t-67.5 -42.5t-77 -15h-181zM322 400q-22 0 -36.5 -3t-22.5 -11.5t-11.5 -23.5t-3.5 -38v-50
q0 -24 3.5 -39t12 -23t23 -10.5t35.5 -2.5h57q21 0 35.5 2.5t23 10.5t12 23t3.5 39v50q0 23 -3.5 38t-11.5 23.5t-22.5 11.5t-36.5 3h-57zM519 717q0 -31 -22 -53.5t-54 -22.5h-186q-21 0 -35.5 7.5t-23.5 19.5t-13 27t-4 30q0 31 22 53.5t54 22.5h186q21 0 35.5 -7.5
t23.5 -19.5t13 -27t4 -30z" />
    <glyph glyph-name="ocircumflex" unicode="&#xf4;" 
d="M260 0q-39 0 -77 15t-67.5 42.5t-47.5 66t-18 86.5v180q0 44 17.5 82t46.5 66.5t67 45t79 16.5h181q41 0 79 -16.5t67 -45t46.5 -66.5t17.5 -82v-180q0 -48 -18 -86.5t-47.5 -66t-67.5 -42.5t-77 -15h-181zM322 400q-22 0 -36.5 -3t-22.5 -11.5t-11.5 -23.5t-3.5 -38v-50
q0 -24 3.5 -39t12 -23t23 -10.5t35.5 -2.5h57q21 0 35.5 2.5t23 10.5t12 23t3.5 39v50q0 23 -3.5 38t-11.5 23.5t-22.5 11.5t-36.5 3h-57zM519 717q0 -31 -22 -53.5t-54 -22.5h-186q-21 0 -35.5 7.5t-23.5 19.5t-13 27t-4 30q0 31 22 53.5t54 22.5h186q21 0 35.5 -7.5
t23.5 -19.5t13 -27t4 -30z" />
    <glyph glyph-name="otilde" unicode="&#xf5;" 
d="M260 0q-39 0 -77 15t-67.5 42.5t-47.5 66t-18 86.5v180q0 44 17.5 82t46.5 66.5t67 45t79 16.5h181q41 0 79 -16.5t67 -45t46.5 -66.5t17.5 -82v-180q0 -48 -18 -86.5t-47.5 -66t-67.5 -42.5t-77 -15h-181zM322 400q-22 0 -36.5 -3t-22.5 -11.5t-11.5 -23.5t-3.5 -38v-50
q0 -24 3.5 -39t12 -23t23 -10.5t35.5 -2.5h57q21 0 35.5 2.5t23 10.5t12 23t3.5 39v50q0 23 -3.5 38t-11.5 23.5t-22.5 11.5t-36.5 3h-57zM519 717q0 -31 -22 -53.5t-54 -22.5h-186q-21 0 -35.5 7.5t-23.5 19.5t-13 27t-4 30q0 31 22 53.5t54 22.5h186q21 0 35.5 -7.5
t23.5 -19.5t13 -27t4 -30z" />
    <glyph glyph-name="odieresis" unicode="&#xf6;" 
d="M260 0q-39 0 -77 15t-67.5 42.5t-47.5 66t-18 86.5v180q0 44 17.5 82t46.5 66.5t67 45t79 16.5h181q41 0 79 -16.5t67 -45t46.5 -66.5t17.5 -82v-180q0 -48 -18 -86.5t-47.5 -66t-67.5 -42.5t-77 -15h-181zM322 400q-22 0 -36.5 -3t-22.5 -11.5t-11.5 -23.5t-3.5 -38v-50
q0 -24 3.5 -39t12 -23t23 -10.5t35.5 -2.5h57q21 0 35.5 2.5t23 10.5t12 23t3.5 39v50q0 23 -3.5 38t-11.5 23.5t-22.5 11.5t-36.5 3h-57zM229 620q-37 0 -64 26t-27 63q0 25 9 42t23 28t31.5 16t35.5 5t34.5 -7t29 -19.5t20 -29t7.5 -35.5q0 -24 -9 -41t-23 -27.5
t-31.5 -15.5t-35.5 -5zM464 620q-37 0 -64 26t-27 63q0 25 9 42t23 28t31.5 16t35.5 5t34.5 -7t29 -19.5t20 -29t7.5 -35.5q0 -24 -9 -41t-23 -27.5t-31.5 -15.5t-35.5 -5z" />
    <glyph glyph-name="divide" unicode="&#xf7;" horiz-adv-x="300" 
d="M155 824q19 0 36.5 -7.5t30.5 -20t20.5 -30t7.5 -37.5q0 -26 -9 -44t-24 -29.5t-34 -16.5t-38 -5t-36.5 7.5t-30.5 20t-20.5 30t-7.5 37.5q0 26 9 44t24 29.5t34 16.5t38 5zM155 600q19 0 36.5 -7.5t30.5 -20t20.5 -30t7.5 -37.5v-494q0 -41 -16.5 -79t-45 -67
t-66.5 -46.5t-82 -17.5h-78q-20 0 -37.5 7.5t-30 20.5t-20 30.5t-7.5 36.5q0 20 5 38.5t16.5 33t29.5 23t44 8.5h12q23 0 38 3.5t23.5 11.5t11.5 22.5t3 36.5v432q0 26 9 44t24 29.5t34 16.5t38 5z" />
    <glyph glyph-name="oslash" unicode="&#xf8;" 
d="M349 -64q-14 0 -23.5 9t-9.5 22v33h-56q-39 0 -77 15t-67.5 42.5t-47.5 66t-18 86.5v180q0 44 17.5 82t46.5 66.5t67 45t79 16.5h56v42q0 17 11.5 24.5t24.5 7.5q14 0 23.5 -9t9.5 -23v-42h56q41 0 79 -16.5t67 -45t46.5 -66.5t17.5 -82v-180q0 -48 -18 -86.5t-47.5 -66
t-67.5 -42.5t-77 -15h-56v-33q0 -17 -11 -24t-25 -7zM248 274q0 -24 3.5 -38.5t11 -22.5t21 -11t32.5 -3v201q-40 -1 -54 -16t-14 -60v-50zM453 324q0 23 -3 37.5t-10.5 23t-21 12t-33.5 3.5v-201q20 0 33 3t20.5 11t11 22.5t3.5 38.5v50z" />
    <glyph glyph-name="ugrave" unicode="&#xf9;" 
d="M145 610q20 0 38.5 -5t33 -16.5t23 -29.5t8.5 -44v-239q0 -46 15 -61t59 -15h57q23 0 37 3.5t22 12t11 23.5t3 37v239q0 20 7.5 37.5t20.5 30t30 20t36 7.5t38 -5t34 -16.5t24 -29.5t9 -44v-305q0 -44 -17.5 -82t-46.5 -66.5t-67 -45t-79 -16.5h-181q-41 0 -79 16.5
t-67 45t-46.5 66.5t-17.5 82v305q0 20 7.5 37.5t20.5 30t30.5 20t36.5 7.5zM519 717q0 -31 -22 -53.5t-54 -22.5h-186q-21 0 -35.5 7.5t-23.5 19.5t-13 27t-4 30q0 31 22 53.5t54 22.5h186q21 0 35.5 -7.5t23.5 -19.5t13 -27t4 -30z" />
    <glyph glyph-name="uacute" unicode="&#xfa;" 
d="M145 610q20 0 38.5 -5t33 -16.5t23 -29.5t8.5 -44v-239q0 -46 15 -61t59 -15h57q23 0 37 3.5t22 12t11 23.5t3 37v239q0 20 7.5 37.5t20.5 30t30 20t36 7.5t38 -5t34 -16.5t24 -29.5t9 -44v-305q0 -44 -17.5 -82t-46.5 -66.5t-67 -45t-79 -16.5h-181q-41 0 -79 16.5
t-67 45t-46.5 66.5t-17.5 82v305q0 20 7.5 37.5t20.5 30t30.5 20t36.5 7.5zM519 717q0 -31 -22 -53.5t-54 -22.5h-186q-21 0 -35.5 7.5t-23.5 19.5t-13 27t-4 30q0 31 22 53.5t54 22.5h186q21 0 35.5 -7.5t23.5 -19.5t13 -27t4 -30z" />
    <glyph glyph-name="ucircumflex" unicode="&#xfb;" 
d="M145 610q20 0 38.5 -5t33 -16.5t23 -29.5t8.5 -44v-239q0 -46 15 -61t59 -15h57q23 0 37 3.5t22 12t11 23.5t3 37v239q0 20 7.5 37.5t20.5 30t30 20t36 7.5t38 -5t34 -16.5t24 -29.5t9 -44v-305q0 -44 -17.5 -82t-46.5 -66.5t-67 -45t-79 -16.5h-181q-41 0 -79 16.5
t-67 45t-46.5 66.5t-17.5 82v305q0 20 7.5 37.5t20.5 30t30.5 20t36.5 7.5zM519 717q0 -31 -22 -53.5t-54 -22.5h-186q-21 0 -35.5 7.5t-23.5 19.5t-13 27t-4 30q0 31 22 53.5t54 22.5h186q21 0 35.5 -7.5t23.5 -19.5t13 -27t4 -30z" />
    <glyph glyph-name="udieresis" unicode="&#xfc;" 
d="M145 610q20 0 38.5 -5t33 -16.5t23 -29.5t8.5 -44v-239q0 -46 15 -61t59 -15h57q23 0 37 3.5t22 12t11 23.5t3 37v239q0 20 7.5 37.5t20.5 30t30 20t36 7.5t38 -5t34 -16.5t24 -29.5t9 -44v-305q0 -44 -17.5 -82t-46.5 -66.5t-67 -45t-79 -16.5h-181q-41 0 -79 16.5
t-67 45t-46.5 66.5t-17.5 82v305q0 20 7.5 37.5t20.5 30t30.5 20t36.5 7.5zM229 620q-37 0 -64 26t-27 63q0 25 9 42t23 28t31.5 16t35.5 5t34.5 -7t29 -19.5t20 -29t7.5 -35.5q0 -24 -9 -41t-23 -27.5t-31.5 -15.5t-35.5 -5zM464 620q-37 0 -64 26t-27 63q0 25 9 42t23 28
t31.5 16t35.5 5t34.5 -7t29 -19.5t20 -29t7.5 -35.5q0 -24 -9 -41t-23 -27.5t-31.5 -15.5t-35.5 -5z" />
    <glyph glyph-name="yacute" unicode="&#xfd;" 
d="M145 610q20 0 38.5 -5t33 -16.5t23 -29.5t8.5 -44v-239q0 -46 15 -61t59 -15h57q23 0 37 3.5t22 12t11 23.5t3 37v239q0 20 7.5 37.5t20.5 30t30 20t36 7.5t38 -5t34 -16.5t24 -29.5t9 -44v-305q0 -43 -16.5 -80.5t-44 -65.5t-64 -45t-75.5 -19v-105q0 -26 -9 -44
t-24 -29.5t-34 -16.5t-38 -5t-36.5 7.5t-30.5 20t-20.5 30t-7.5 37.5v105q-40 2 -76 19t-64 45t-44.5 65.5t-16.5 80.5v305q0 20 7.5 37.5t20.5 30t30.5 20t36.5 7.5zM519 717q0 -31 -22 -53.5t-54 -22.5h-186q-21 0 -35.5 7.5t-23.5 19.5t-13 27t-4 30q0 31 22 53.5
t54 22.5h186q21 0 35.5 -7.5t23.5 -19.5t13 -27t4 -30z" />
    <glyph glyph-name="thorn" unicode="&#xfe;" 
d="M155 -200q-19 0 -38 5t-34 16.5t-24 29.5t-9 44v810q0 26 9 44t24 29.5t34 16.5t38 5t36.5 -7.5t30.5 -20t20.5 -30t7.5 -37.5v-105h191q39 0 77 -15t67.5 -42.5t47.5 -66t18 -86.5v-180q0 -44 -17.5 -82t-46.5 -66.5t-67 -45t-79 -16.5h-191v-105q0 -20 -7.5 -37.5
t-20.5 -30t-30.5 -20t-36.5 -7.5zM251 200h128q44 0 59 15t15 61v50q0 24 -3.5 39t-12 23t-23 10.5t-35.5 2.5h-52q-24 0 -39 -3.5t-23.5 -11.5t-11 -22.5t-2.5 -37.5v-126z" />
    <glyph glyph-name="ydieresis" unicode="&#xff;" 
d="M145 610q20 0 38.5 -5t33 -16.5t23 -29.5t8.5 -44v-239q0 -46 15 -61t59 -15h57q23 0 37 3.5t22 12t11 23.5t3 37v239q0 20 7.5 37.5t20.5 30t30 20t36 7.5t38 -5t34 -16.5t24 -29.5t9 -44v-305q0 -43 -16.5 -80.5t-44 -65.5t-64 -45t-75.5 -19v-105q0 -26 -9 -44
t-24 -29.5t-34 -16.5t-38 -5t-36.5 7.5t-30.5 20t-20.5 30t-7.5 37.5v105q-40 2 -76 19t-64 45t-44.5 65.5t-16.5 80.5v305q0 20 7.5 37.5t20.5 30t30.5 20t36.5 7.5zM229 620q-37 0 -64 26t-27 63q0 25 9 42t23 28t31.5 16t35.5 5t34.5 -7t29 -19.5t20 -29t7.5 -35.5
q0 -24 -9 -41t-23 -27.5t-31.5 -15.5t-35.5 -5zM464 620q-37 0 -64 26t-27 63q0 25 9 42t23 28t31.5 16t35.5 5t34.5 -7t29 -19.5t20 -29t7.5 -35.5q0 -24 -9 -41t-23 -27.5t-31.5 -15.5t-35.5 -5z" />
    <glyph glyph-name="dotlessi" unicode="&#x131;" horiz-adv-x="300" 
d="M145 -10q-19 0 -36.5 7.5t-30.5 20t-20.5 30t-7.5 37.5v420q0 26 9 44t24 29.5t34 16.5t38 5t36.5 -7.5t30.5 -20t20.5 -30t7.5 -37.5v-420q0 -26 -9 -44t-24 -29.5t-34 -16.5t-38 -5z" />
    <glyph glyph-name="OE" unicode="&#x152;" horiz-adv-x="1001" 
d="M953 298q0 -21 -15.5 -37t-38.5 -16h-245q0 -29 18.5 -37.5t56.5 -8.5h142q20 0 37.5 -7.5t30 -20.5t20 -30t7.5 -36t-5 -38t-16.5 -34t-29.5 -24t-44 -9h-208q-31 0 -58.5 8.5t-51.5 23.5q-52 -32 -112 -32h-181q-39 0 -77 15t-67.5 42.5t-47.5 66t-18 86.5v180
q0 44 17.5 82t46.5 66.5t67 45t79 16.5h181q60 0 111 -34q50 33 111 33h208q20 0 37.5 -7.5t30 -20.5t20 -30.5t7.5 -36.5q0 -20 -5 -38.5t-16.5 -33t-29.5 -23t-44 -8.5h-142q-38 0 -56.5 -9.5t-18.5 -36.5h245q29 0 41.5 -18t12.5 -39zM322 400q-22 0 -36.5 -3
t-22.5 -11.5t-11.5 -23.5t-3.5 -38v-50q0 -24 3.5 -39t12 -23t23 -10.5t35.5 -2.5h57q20 0 34 2.5t23 9t13 19.5t4 34v60q0 23 -3.5 38t-11.5 23.5t-22.5 11.5t-36.5 3h-57z" />
    <glyph glyph-name="oe" unicode="&#x153;" horiz-adv-x="1042" 
d="M658 245v-47h229q26 0 44 -8.5t29.5 -23t16.5 -33t5 -38.5q0 -19 -7.5 -36.5t-20 -30.5t-30 -20.5t-37.5 -7.5h-224q-68 0 -120 26q-49 -26 -102 -26h-181q-39 0 -77 15t-67.5 42.5t-47.5 66t-18 86.5v180q0 44 17.5 82t46.5 66.5t67 45t79 16.5h181q53 0 101 -28
q51 27 121 27h123q44 0 81.5 -8.5t65.5 -32t43.5 -65.5t15.5 -109q0 -42 -14 -69t-40 -42.5t-62 -21.5t-80 -6h-138zM322 400q-22 0 -36.5 -3t-22.5 -11.5t-11.5 -23.5t-3.5 -38v-50q0 -24 3.5 -39t12 -23t23 -10.5t35.5 -2.5h57q20 0 34 2.5t23 9t13 19.5t4 34v60
q0 23 -3.5 38t-11.5 23.5t-22.5 11.5t-36.5 3h-57zM788 377q0 14 -12 19t-32 5h-33q-24 0 -39 -3.5t-15 -20.5t14 -20t37 -3h33q20 0 33.5 4.5t13.5 18.5z" />
    <glyph glyph-name="Scaron" unicode="&#x160;" horiz-adv-x="577" 
d="M225 245q-44 0 -80.5 12.5t-63 36t-41.5 57.5t-15 76q0 41 16.5 73t45 54t66.5 33.5t82 11.5h208q20 0 37.5 -7.5t30 -20.5t20 -30.5t7.5 -36.5q0 -20 -5 -38.5t-16.5 -33t-29.5 -23t-44 -8.5h-142q-29 0 -48.5 -4.5t-19.5 -19.5q0 -16 19.5 -19.5t48.5 -3.5h51
q44 0 80.5 -12.5t63 -36t41.5 -57.5t15 -76q0 -41 -16.5 -73t-45 -54t-66.5 -33.5t-82 -11.5h-208q-20 0 -37.5 7.5t-30 20.5t-20 30.5t-7.5 36.5q0 20 5 38.5t16.5 33t29.5 23t44 8.5h142q29 0 48.5 4.5t19.5 19.5q0 17 -19.5 20t-48.5 3h-51zM452 717q0 -31 -22 -53.5
t-54 -22.5h-186q-21 0 -35.5 7.5t-23.5 19.5t-13 27t-4 30q0 31 22 53.5t54 22.5h186q21 0 35.5 -7.5t23.5 -19.5t13 -27t4 -30z" />
    <glyph glyph-name="scaron" unicode="&#x161;" horiz-adv-x="554" 
d="M137 588q28 28 67 28q18 0 35.5 -7t31.5 -21l167 -166q42 -42 61.5 -93t19.5 -102q0 -44 -14.5 -85t-42 -72.5t-67.5 -50.5t-91 -19h-184q-20 0 -37.5 7.5t-30 20.5t-20 30.5t-7.5 36.5q0 20 5 39t16.5 33.5t29.5 23.5t44 9h135q21 0 35.5 14t14.5 35q0 14 -4 23t-11 15
l-161 159q-30 29 -30 63q0 22 11 42.5t27 36.5zM406 717q0 -31 -22 -53.5t-54 -22.5h-186q-21 0 -35.5 7.5t-23.5 19.5t-13 27t-4 30q0 31 22 53.5t54 22.5h186q21 0 35.5 -7.5t23.5 -19.5t13 -27t4 -30z" />
    <glyph glyph-name="Ydieresis" unicode="&#x178;" 
d="M229 620q-37 0 -64 26t-27 63q0 25 9 42t23 28t31.5 16t35.5 5t34.5 -7t29 -19.5t20 -29t7.5 -35.5q0 -24 -9 -41t-23 -27.5t-31.5 -15.5t-35.5 -5zM464 620q-37 0 -64 26t-27 63q0 25 9 42t23 28t31.5 16t35.5 5t34.5 -7t29 -19.5t20 -29t7.5 -35.5q0 -24 -9 -41
t-23 -27.5t-31.5 -15.5t-35.5 -5zM145 610q20 0 38.5 -5t33 -16.5t23 -29.5t8.5 -44v-89q0 -46 15 -61t59 -15h57q23 0 37 3.5t22 12t11 23.5t3 37v89q0 20 7.5 37.5t20.5 30t30 20t36 7.5t38 -5t34 -16.5t24 -29.5t9 -44v-155q0 -43 -16.5 -80.5t-44 -65.5t-64 -45
t-75.5 -19v-65q0 -26 -9 -44t-24 -29.5t-34 -16.5t-38 -5t-36.5 7.5t-30.5 20t-20.5 30t-7.5 37.5v65q-40 2 -76 19t-64 45t-44.5 65.5t-16.5 80.5v155q0 20 7.5 37.5t20.5 30t30.5 20t36.5 7.5z" />
    <glyph glyph-name="Zcaron" unicode="&#x17d;" horiz-adv-x="621" 
d="M351 199h144q26 0 44 -8.5t29.5 -23t16.5 -33t5 -38.5q0 -19 -7.5 -36.5t-20 -30.5t-30 -20.5t-37.5 -7.5h-369q-21 0 -38.5 8.5t-30 22.5t-20 32.5t-7.5 38.5q0 23 9.5 43.5t28.5 34.5l236 219h-174q-26 0 -44 9t-29.5 23.5t-16.5 33t-5 38.5q0 19 7.5 36.5t20 30.5
t30 21t37.5 8h354q23 0 42.5 -8.5t33.5 -22.5t22.5 -33t8.5 -40q0 -20 -6 -42t-20 -37zM479 717q0 -31 -22 -53.5t-54 -22.5h-186q-21 0 -35.5 7.5t-23.5 19.5t-13 27t-4 30q0 31 22 53.5t54 22.5h186q21 0 35.5 -7.5t23.5 -19.5t13 -27t4 -30z" />
    <glyph glyph-name="zcaron" unicode="&#x17e;" horiz-adv-x="621" 
d="M351 199h144q26 0 44 -8.5t29.5 -23t16.5 -33t5 -38.5q0 -19 -7.5 -36.5t-20 -30.5t-30 -20.5t-37.5 -7.5h-369q-21 0 -38.5 8.5t-30 22.5t-20 32.5t-7.5 38.5q0 23 9.5 43.5t28.5 34.5l236 219h-174q-26 0 -44 9t-29.5 23.5t-16.5 33t-5 38.5q0 19 7.5 36.5t20 30.5
t30 21t37.5 8h354q23 0 42.5 -8.5t33.5 -22.5t22.5 -33t8.5 -40q0 -20 -6 -42t-20 -37zM479 717q0 -31 -22 -53.5t-54 -22.5h-186q-21 0 -35.5 7.5t-23.5 19.5t-13 27t-4 30q0 31 22 53.5t54 22.5h186q21 0 35.5 -7.5t23.5 -19.5t13 -27t4 -30z" />
    <glyph glyph-name="florin" unicode="&#x192;" horiz-adv-x="595" 
d="M554 334q0 -31 -22 -53.5t-54 -22.5h-75v-249q0 -41 -16.5 -79t-45 -67t-66.5 -46.5t-82 -17.5h-78q-20 0 -37.5 7.5t-30 20.5t-20 30.5t-7.5 36.5q0 20 5 38.5t16.5 33t29.5 23t44 8.5h12q23 0 38 3.5t23.5 11.5t11.5 22.5t3 36.5v187h-74q-21 0 -35.5 7.5t-23.5 19.5
t-13 27t-4 30q0 31 22 53.5t54 22.5h74v172q0 41 16.5 79t45 67t66.5 46.5t82 17.5h78q20 0 37.5 -7.5t30 -20.5t20 -30.5t7.5 -36.5q0 -20 -5 -38.5t-16.5 -33t-29.5 -23t-44 -8.5h-12q-46 0 -61 -15t-15 -59v-110h75q21 0 35.5 -7.5t23.5 -19.5t13 -27t4 -30z" />
    <glyph glyph-name="circumflex" unicode="&#x2c6;" horiz-adv-x="393" 
d="M365 717q0 -31 -22 -53.5t-54 -22.5h-186q-21 0 -35.5 7.5t-23.5 19.5t-13 27t-4 30q0 31 22 53.5t54 22.5h186q21 0 35.5 -7.5t23.5 -19.5t13 -27t4 -30z" />
    <glyph glyph-name="caron" unicode="&#x2c7;" horiz-adv-x="393" 
d="M365 717q0 -31 -22 -53.5t-54 -22.5h-186q-21 0 -35.5 7.5t-23.5 19.5t-13 27t-4 30q0 31 22 53.5t54 22.5h186q21 0 35.5 -7.5t23.5 -19.5t13 -27t4 -30z" />
    <glyph glyph-name="breve" unicode="&#x2d8;" horiz-adv-x="919" 
d="M684 135l71 93l-104 -40l-12 77l-110 -103l63 196l-63 -30l-59 107l-66 -107l-50 30l37 -196l-103 103l-10 -77l-103 40l66 -93l-77 -14l173 -127l-49 -58l165 32v-168h-410v698h835v-698h-395v168l156 -32l-45 58l161 127zM462 563q-2 -18 -10.5 -25.5t-20.5 -7.5h-40
v170h40q12 0 20.5 -9t10.5 -29v-99zM265 530l-27 109l-5 13l3 -14v-108h-23v170h28l28 -117l5 -14l-2 15v116h23v-170h-30zM182 530l-7 35h-24l-3 -35h-23l23 170h34l20 -170h-20zM360 530l-5 35h-24l-4 -35h-23l23 170h33l21 -170h-21zM524 530l-5 35h-24l-3 -35h-22
l22 170h32l23 -170h-23zM805 635q0 -18 -9 -26t-22 -8h-18v-71h-20v170h38q13 0 22 -9t9 -29v-27zM120 562q0 -20 -10 -26.5t-26 -6.5q-15 0 -24.5 6.5t-11.5 26.5v103q2 20 11.5 28t24.5 8q16 0 26 -8t10 -28v-27h-24v24q-3 17 -12 17q-10 0 -13 -17v-99q4 -16 13 -16
q8 0 12 16v22h24v-23zM700 587v-57h-27v57l-25 113h24l14 -75l16 75h25zM817 530v170h54v-25h-32v-49h30v-24h-30v-51h32v-21h-54zM625 675v-145h-23v145h-19v25h64v-25h-22zM438 661q0 9 -3 11.5t-9 2.5h-12v-126h12q6 0 9 5t3 13v94zM781 662q0 16 -12 16h-13v-58h13
q12 0 12 17v25zM166 664q0 9 -2 11v-11l-10 -75h20zM344 664q0 9 -2 11v-11l-7 -75h19zM508 664q0 9 -1 11v-11l-10 -75h20z" />
    <glyph glyph-name="ring" unicode="&#x2da;" horiz-adv-x="700" 
d="M358 801q19 0 36.5 -7.5t30.5 -20t20.5 -30t7.5 -37.5q0 -26 -9 -44t-24 -29.5t-34 -16.5t-38 -5t-36.5 7.5t-30.5 20t-20.5 30t-7.5 37.5q0 26 9 44t24 29.5t34 16.5t38 5z" />
    <glyph glyph-name="tilde" unicode="&#x2dc;" horiz-adv-x="393" 
d="M365 717q0 -31 -22 -53.5t-54 -22.5h-186q-21 0 -35.5 7.5t-23.5 19.5t-13 27t-4 30q0 31 22 53.5t54 22.5h186q21 0 35.5 -7.5t23.5 -19.5t13 -27t4 -30z" />
    <glyph glyph-name="endash" unicode="&#x2013;" horiz-adv-x="556" 
d="M528 257q0 -31 -22 -53.5t-54 -22.5h-349q-21 0 -35.5 7.5t-23.5 19.5t-13 27t-4 30q0 31 22 53.5t54 22.5h349q21 0 35.5 -7.5t23.5 -19.5t13 -27t4 -30z" />
    <glyph glyph-name="emdash" unicode="&#x2014;" horiz-adv-x="788" 
d="M760 257q0 -31 -22 -53.5t-54 -22.5h-581q-21 0 -35.5 7.5t-23.5 19.5t-13 27t-4 30q0 31 22 53.5t54 22.5h581q21 0 35.5 -7.5t23.5 -19.5t13 -27t4 -30z" />
    <glyph glyph-name="quoteleft" unicode="&#x2018;" horiz-adv-x="250" 
d="M120 447q-19 0 -36.5 7.5t-30.5 20t-20.5 30t-7.5 37.5v105q0 26 9 44t24 29.5t34 16.5t38 5t36.5 -7.5t30.5 -20t20.5 -30t7.5 -37.5v-105q0 -26 -9 -44t-24 -29.5t-34 -16.5t-38 -5z" />
    <glyph glyph-name="quoteright" unicode="&#x2019;" horiz-adv-x="250" 
d="M120 447q-19 0 -36.5 7.5t-30.5 20t-20.5 30t-7.5 37.5v105q0 26 9 44t24 29.5t34 16.5t38 5t36.5 -7.5t30.5 -20t20.5 -30t7.5 -37.5v-105q0 -26 -9 -44t-24 -29.5t-34 -16.5t-38 -5z" />
    <glyph glyph-name="quotesinglbase" unicode="&#x201a;" horiz-adv-x="250" 
d="M120 -115q-19 0 -36.5 7.5t-30.5 20t-20.5 30t-7.5 37.5v105q0 26 9 44t24 29.5t34 16.5t38 5t36.5 -7.5t30.5 -20t20.5 -30t7.5 -37.5v-105q0 -26 -9 -44t-24 -29.5t-34 -16.5t-38 -5z" />
    <glyph glyph-name="quotedblleft" unicode="&#x201c;" horiz-adv-x="501" 
d="M120 448q-19 0 -36.5 7.5t-30.5 20t-20.5 30t-7.5 37.5v105q0 26 9 44t24 29.5t34 16.5t38 5t36.5 -7.5t30.5 -20t20.5 -30t7.5 -37.5v-105q0 -26 -9 -44t-24 -29.5t-34 -16.5t-38 -5zM371 448q-19 0 -36.5 7.5t-30.5 20t-20.5 30t-7.5 37.5v105q0 26 9 44t24 29.5
t34 16.5t38 5t36.5 -7.5t30.5 -20t20.5 -30t7.5 -37.5v-105q0 -26 -9 -44t-24 -29.5t-34 -16.5t-38 -5z" />
    <glyph glyph-name="quotedblright" unicode="&#x201d;" horiz-adv-x="501" 
d="M120 448q-19 0 -36.5 7.5t-30.5 20t-20.5 30t-7.5 37.5v105q0 26 9 44t24 29.5t34 16.5t38 5t36.5 -7.5t30.5 -20t20.5 -30t7.5 -37.5v-105q0 -26 -9 -44t-24 -29.5t-34 -16.5t-38 -5zM371 448q-19 0 -36.5 7.5t-30.5 20t-20.5 30t-7.5 37.5v105q0 26 9 44t24 29.5
t34 16.5t38 5t36.5 -7.5t30.5 -20t20.5 -30t7.5 -37.5v-105q0 -26 -9 -44t-24 -29.5t-34 -16.5t-38 -5z" />
    <glyph glyph-name="quotedblbase" unicode="&#x201e;" horiz-adv-x="501" 
d="M120 -115q-19 0 -36.5 7.5t-30.5 20t-20.5 30t-7.5 37.5v105q0 26 9 44t24 29.5t34 16.5t38 5t36.5 -7.5t30.5 -20t20.5 -30t7.5 -37.5v-105q0 -26 -9 -44t-24 -29.5t-34 -16.5t-38 -5zM371 -115q-19 0 -36.5 7.5t-30.5 20t-20.5 30t-7.5 37.5v105q0 26 9 44t24 29.5
t34 16.5t38 5t36.5 -7.5t30.5 -20t20.5 -30t7.5 -37.5v-105q0 -26 -9 -44t-24 -29.5t-34 -16.5t-38 -5z" />
    <glyph glyph-name="dagger" unicode="&#x2020;" horiz-adv-x="528" 
d="M503 516q0 -31 -22 -53.5t-54 -22.5h-63v-355q0 -26 -9 -44t-24 -29.5t-34 -16.5t-38 -5t-36.5 7.5t-30.5 20t-20.5 30t-7.5 37.5v355h-63q-21 0 -35.5 7.5t-23.5 19.5t-13 27t-4 30q0 31 22 53.5t54 22.5h63v105q0 26 9 44t24 29.5t34 16.5t38 5t36.5 -7.5t30.5 -20
t20.5 -30t7.5 -37.5v-105h63q21 0 35.5 -7.5t23.5 -19.5t13 -27t4 -30z" />
    <glyph glyph-name="daggerdbl" unicode="&#x2021;" horiz-adv-x="528" 
d="M503 257q0 -31 -22 -53.5t-54 -22.5h-63v-96q0 -26 -9 -44t-24 -29.5t-34 -16.5t-38 -5t-36.5 7.5t-30.5 20t-20.5 30t-7.5 37.5v96h-63q-21 0 -35.5 7.5t-23.5 19.5t-13 27t-4 30q0 31 22 53.5t54 22.5h63v99h-63q-21 0 -35.5 7.5t-23.5 19.5t-13 27t-4 30q0 31 22 53.5
t54 22.5h63v105q0 26 9 44t24 29.5t34 16.5t38 5t36.5 -7.5t30.5 -20t20.5 -30t7.5 -37.5v-105h63q21 0 35.5 -7.5t23.5 -19.5t13 -27t4 -30q0 -31 -22 -53.5t-54 -22.5h-63v-99h63q21 0 35.5 -7.5t23.5 -19.5t13 -27t4 -30z" />
    <glyph glyph-name="bullet" unicode="&#x2022;" horiz-adv-x="398" 
d="M209 490q31 0 59 -12t49 -33t33.5 -49t12.5 -61q0 -42 -15 -71.5t-39.5 -47.5t-55 -26.5t-61.5 -8.5t-59 12t-49 33t-33.5 49t-12.5 60q0 42 15 71.5t39.5 48t55 27t61.5 8.5z" />
    <glyph glyph-name="ellipsis" unicode="&#x2026;" horiz-adv-x="741" 
d="M130 180q19 0 36.5 -7.5t30.5 -20t20.5 -30t7.5 -37.5q0 -26 -9 -44t-24 -29.5t-34 -16.5t-38 -5t-36.5 7.5t-30.5 20t-20.5 30t-7.5 37.5q0 26 9 44t24 29.5t34 16.5t38 5zM376 180q19 0 36.5 -7.5t30.5 -20t20.5 -30t7.5 -37.5q0 -26 -9 -44t-24 -29.5t-34 -16.5
t-38 -5t-36.5 7.5t-30.5 20t-20.5 30t-7.5 37.5q0 26 9 44t24 29.5t34 16.5t38 5zM621 180q19 0 36.5 -7.5t30.5 -20t20.5 -30t7.5 -37.5q0 -26 -9 -44t-24 -29.5t-34 -16.5t-38 -5t-36.5 7.5t-30.5 20t-20.5 30t-7.5 37.5q0 26 9 44t24 29.5t34 16.5t38 5z" />
    <glyph glyph-name="perthousand" unicode="&#x2030;" horiz-adv-x="737" 
d="M537 508q0 -28 -14 -50l-266 -424q-15 -24 -34.5 -34.5t-40.5 -10.5t-40.5 8t-35 21.5t-24.5 32.5t-9 40q0 28 14 49l266 423q16 25 36 35.5t40 10.5q22 0 41.5 -8t34.5 -21.5t23.5 -32t8.5 -39.5zM131 599q19 0 36.5 -7.5t30.5 -20t20.5 -30t7.5 -37.5q0 -26 -9 -44
t-24 -29.5t-34 -16.5t-38 -5t-36.5 7.5t-30.5 20t-20.5 30t-7.5 37.5q0 26 9 44t24 29.5t34 16.5t38 5zM483 180q19 0 36.5 -7.5t30.5 -20t20.5 -30t7.5 -37.5q0 -26 -9 -44t-24 -29.5t-34 -16.5t-38 -5t-36.5 7.5t-30.5 20t-20.5 30t-7.5 37.5q0 26 9 44t24 29.5t34 16.5
t38 5zM614 395q19 0 36.5 -7.5t30.5 -20t20.5 -30t7.5 -37.5q0 -26 -9 -44t-24 -29.5t-34 -16.5t-38 -5t-36.5 7.5t-30.5 20t-20.5 30t-7.5 37.5q0 26 9 44t24 29.5t34 16.5t38 5z" />
    <glyph glyph-name="guilsinglleft" unicode="&#x2039;" horiz-adv-x="250" 
d="M120 148q-19 0 -36.5 7.5t-30.5 20t-20.5 30t-7.5 37.5v105q0 26 9 44t24 29.5t34 16.5t38 5t36.5 -7.5t30.5 -20t20.5 -30t7.5 -37.5v-105q0 -26 -9 -44t-24 -29.5t-34 -16.5t-38 -5z" />
    <glyph glyph-name="guilsinglright" unicode="&#x203a;" horiz-adv-x="250" 
d="M120 148q-19 0 -36.5 7.5t-30.5 20t-20.5 30t-7.5 37.5v105q0 26 9 44t24 29.5t34 16.5t38 5t36.5 -7.5t30.5 -20t20.5 -30t7.5 -37.5v-105q0 -26 -9 -44t-24 -29.5t-34 -16.5t-38 -5z" />
    <glyph glyph-name="fraction" unicode="&#x2044;" horiz-adv-x="465" 
d="M465 508q0 -28 -14 -50l-266 -424q-15 -24 -34.5 -34.5t-40.5 -10.5t-40.5 8t-35 21.5t-24.5 32.5t-9 40q0 28 14 49l266 423q16 25 36 35.5t40 10.5q22 0 41.5 -8t34.5 -21.5t23.5 -32t8.5 -39.5z" />
    <glyph glyph-name="Euro" unicode="&#x20ac;" horiz-adv-x="598" 
d="M453 258q0 -11 -10.5 -19.5t-36.5 -8.5h-151q6 -19 22.5 -25t48.5 -6h142q20 0 37.5 -7.5t30 -20.5t20 -30t7.5 -36t-5 -38t-16.5 -34t-29.5 -24t-44 -9h-208q-44 0 -82 17.5t-66.5 46.5t-45 67t-16.5 79v20q-16 0 -25 2.5t-13 7t-4.5 10t-0.5 11.5q0 10 9 18t34 9v29
q-16 0 -25 2.5t-13 7t-4.5 10t-0.5 11.5q0 11 9 19t34 9v14q0 41 16.5 79t45 67t66.5 46.5t82 17.5h208q20 0 37.5 -7.5t30 -20.5t20 -30.5t7.5 -36.5q0 -20 -5 -38.5t-16.5 -33t-29.5 -23t-44 -8.5h-142q-30 0 -46 -5.5t-23 -20.5h149q17 0 26.5 -2.5t14 -7t5.5 -10
t1 -11.5q0 -11 -10.5 -19.5t-36.5 -8.5h-156v-29h156q17 0 26.5 -2.5t14 -7t5.5 -9.5t1 -11z" />
    <glyph glyph-name="trademark" unicode="&#x2122;" horiz-adv-x="1213" 
d="M270 310q-46 0 -74.5 25t-28.5 70v195h-37q-26 0 -44 9t-29.5 23.5t-16.5 33.5t-5 39q0 19 7.5 36.5t20 30.5t30 20.5t37.5 7.5h275q20 0 37.5 -7.5t30 -20.5t20 -30.5t7.5 -36.5q0 -20 -5 -39t-16.5 -33.5t-29.5 -23.5t-44 -9h-37v-195q0 -20 -8 -37.5t-21.5 -30
t-31.5 -20t-37 -7.5zM868 590l127 185q15 14 37 20t42 6q21 0 40 -8.5t33 -22.5t22.5 -33.5t8.5 -42.5v-289q0 -20 -8 -37.5t-21 -30t-30.5 -20t-36.5 -7.5q-20 0 -38.5 5t-33 16.5t-23.5 29.5t-9 44v89q-14 -21 -27 -47t-26 -49.5t-27 -39.5t-30 -16q-17 0 -31 16t-27 39
t-25.5 49.5t-26.5 47.5v-89q0 -26 -9 -44t-23.5 -29.5t-33 -16.5t-38.5 -5q-19 0 -36.5 7.5t-30.5 20t-21 30t-8 37.5v289q0 23 8.5 42.5t22.5 33.5t33 22.5t40 8.5q20 0 42 -6t37 -20z" />
    <glyph glyph-name="Omega" unicode="&#x2126;" horiz-adv-x="1172" 
d="M896 245q-29 0 -48.5 -3t-19.5 -20q0 -15 19.5 -19.5t48.5 -4.5h142q26 0 44 -8.5t29.5 -23t16.5 -33t5 -38.5q0 -19 -7.5 -36.5t-20 -30.5t-30 -20.5t-37.5 -7.5h-208q-44 0 -82 11.5t-66.5 33.5t-45 54t-16.5 73q0 42 15 76t41.5 57.5t63 36t80.5 12.5h51
q29 0 48.5 3.5t19.5 19.5q0 15 -19.5 19.5t-48.5 4.5h-570q-29 0 -48.5 -4.5t-19.5 -19.5q0 -16 19.5 -19.5t48.5 -3.5h51q44 0 80.5 -12.5t63 -36t41.5 -57.5t15 -76q0 -41 -16.5 -73t-45 -54t-66.5 -33.5t-82 -11.5h-208q-20 0 -37.5 7.5t-30 20.5t-20 30.5t-7.5 36.5
q0 20 5 38.5t16.5 33t29.5 23t44 8.5h142q29 0 48.5 4.5t19.5 19.5q0 17 -19.5 20t-48.5 3h-51q-44 0 -80.5 12.5t-63 36t-41.5 57.5t-15 76q0 41 16.5 73t45 54t66.5 33.5t82 11.5h702q44 0 82 -11.5t66.5 -33.5t45 -54t16.5 -73q0 -42 -15 -76t-41.5 -57.5t-63 -36
t-80.5 -12.5h-51z" />
    <glyph glyph-name="partialdiff" unicode="&#x2202;" horiz-adv-x="1032" 
d="M784 35q-16 -16 -35.5 -26t-41.5 -10q-17 0 -33 6.5t-32 22.5l-131 130l-131 -130q-16 -16 -32 -22.5t-33 -6.5q-22 0 -41.5 10t-35.5 26q-14 14 -21 31.5t-7 35.5t7 36t21 32l130 129l-327 330q-14 14 -21 32t-7 36q0 20 9 39t23.5 33t33.5 22.5t39 8.5q17 0 33 -6.5
t32 -22.5l328 -330l337 333q16 16 32 22.5t33 6.5q20 0 39 -8.5t33.5 -22.5t23.5 -33t9 -39q0 -18 -7 -36t-21 -32l-337 -333l131 -129q14 -14 21 -32t7 -36t-7 -35.5t-21 -31.5zM516 787q19 0 36.5 -7.5t30.5 -20t20.5 -30t7.5 -37.5q0 -26 -9 -44t-24 -29.5t-34 -16.5
t-38 -5t-36.5 7.5t-30.5 20t-20.5 30t-7.5 37.5q0 26 9 44t24 29.5t34 16.5t38 5z" />
    <glyph glyph-name="Delta" unicode="&#x2206;" horiz-adv-x="627" 
d="M127 0q-21 0 -40.5 7.5t-34 20.5t-23 31.5t-8.5 39.5q0 20 9 39l193 414q15 32 41 46t52 14q29 0 52 -12t34 -38q4 -9 16 -34.5t35 -74.5t59 -126t87 -190q9 -19 9 -39q0 -21 -8.5 -39t-23.5 -31t-34.5 -20.5t-40.5 -7.5h-374zM238 181h153l-76 190z" />
    <glyph glyph-name="product" unicode="&#x220f;" 
d="M556 -200q-20 0 -38.5 5t-33 16.5t-23 29.5t-8.5 44v629q0 23 -3.5 38t-11.5 23.5t-22.5 11.5t-36.5 3h-57q-23 0 -37 -3.5t-22 -12t-11 -23t-3 -37.5v-629q0 -20 -7.5 -37.5t-20.5 -30t-30 -20t-36 -7.5t-38 5t-34 16.5t-24 29.5t-9 44v695q0 44 17.5 82t46.5 66.5
t67 45t79 16.5h181q41 0 79 -16.5t67 -45t46.5 -66.5t17.5 -82v-695q0 -20 -7.5 -37.5t-20.5 -30t-30.5 -20t-36.5 -7.5z" />
    <glyph glyph-name="summation" unicode="&#x2211;" horiz-adv-x="669" 
d="M539 229q-20 0 -38.5 5t-33 16.5t-23 29.5t-8.5 44q0 23 -3.5 38t-11.5 23.5t-22.5 12t-36.5 3.5h-36q-46 0 -61 -15t-15 -59v-55q0 -23 3.5 -37t12 -22t23.5 -11t37 -3h52q20 0 37.5 -7.5t30 -20.5t20 -30t7.5 -36t-5 -38t-16.5 -34t-29.5 -24t-44 -9h-118
q-44 0 -82 17.5t-66.5 46.5t-45 67t-16.5 79v179q0 41 16.5 79t45 67.5t66.5 47t82 17.5h164q41 0 79 -16.5t67 -45t46.5 -66.5t17.5 -82v-66q0 -20 -7.5 -37.5t-20.5 -30t-30.5 -20t-36.5 -7.5z" />
    <glyph glyph-name="minus" unicode="&#x2212;" horiz-adv-x="556" 
d="M528 297q0 -31 -22 -53.5t-54 -22.5h-349q-21 0 -35.5 7.5t-23.5 19.5t-13 27t-4 30q0 31 22 53.5t54 22.5h349q21 0 35.5 -7.5t23.5 -19.5t13 -27t4 -30z" />
    <glyph glyph-name="radical" unicode="&#x221a;" horiz-adv-x="739" 
d="M544 745q13 32 36.5 43.5t47.5 11.5q21 0 40.5 -7.5t34.5 -20.5t23.5 -31.5t8.5 -39.5q0 -19 -9 -39l-280 -613q-15 -32 -41 -46t-52 -14q-18 0 -33 6t-26 14q-12 9 -23 20q-1 0 -6.5 9t-22.5 43.5t-48.5 101.5t-84.5 184q-9 20 -9 39q0 21 8.5 39.5t23.5 31.5t34.5 20.5
t40.5 7.5q24 0 47 -12t37 -43l63 -170zM121 733q19 0 36.5 -7.5t30.5 -20t20.5 -30t7.5 -37.5q0 -26 -9 -44t-24 -29.5t-34 -16.5t-38 -5t-36.5 7.5t-30.5 20t-20.5 30t-7.5 37.5q0 26 9 44t24 29.5t34 16.5t38 5z" />
    <glyph glyph-name="infinity" unicode="&#x221e;" horiz-adv-x="1105" 
d="M680 504q0 19 7.5 36.5t20 30.5t30 20.5t37.5 7.5h66q44 0 82 -17.5t66.5 -46.5t45 -67t16.5 -79v-179q0 -44 -17.5 -82t-47 -66.5t-67.5 -45t-79 -16.5h-179q-41 0 -79 16.5t-67 45t-46.5 66.5t-17.5 82v113q0 23 -3 37.5t-11 23t-22 12t-37 3.5h-55q-22 0 -36.5 -3
t-22.5 -11.5t-11.5 -23.5t-3.5 -38v-51q0 -44 15.5 -59t61.5 -15q26 0 44 -8.5t29.5 -23t16.5 -33t5 -38.5q0 -19 -7.5 -36.5t-20 -30.5t-30 -20.5t-37.5 -7.5h-66q-44 0 -82 17.5t-66.5 46.5t-45 67t-16.5 79v179q0 44 17.5 82t47 66.5t67.5 45t79 16.5h179q41 0 79 -16.5
t67 -45t46.5 -66.5t17.5 -82v-126q0 -38 15 -50.5t58 -12.5h55q44 0 59 15t15 61v51q0 22 -3.5 36.5t-12 22.5t-23.5 11.5t-38 3.5q-26 0 -44 8.5t-29.5 23t-16.5 33t-5 38.5z" />
    <glyph glyph-name="integral" unicode="&#x222b;" horiz-adv-x="300" 
d="M155 800q19 0 36.5 -7.5t30.5 -20t20.5 -30t7.5 -37.5v-694q0 -41 -16.5 -79t-45 -67t-66.5 -46.5t-82 -17.5h-78q-20 0 -37.5 7.5t-30 20.5t-20 30.5t-7.5 36.5q0 20 5 38.5t16.5 33t29.5 23t44 8.5h12q23 0 38 3.5t23.5 11.5t11.5 22.5t3 36.5v632q0 26 9 44t24 29.5
t34 16.5t38 5z" />
    <glyph glyph-name="approxequal" unicode="&#x2248;" horiz-adv-x="655" 
d="M255 318q11 0 18 12.5t15 31.5t19.5 40.5t30.5 40.5t48.5 31.5t73.5 12.5q41 0 73 -16.5t54 -45t33.5 -66.5t11.5 -82q0 -42 -7.5 -71t-20.5 -47t-30.5 -26.5t-36.5 -8.5t-37.5 2t-33 11t-23.5 27t-9 50q0 36 -5 50.5t-19 14.5q-12 0 -19 -12.5t-14.5 -31.5t-18.5 -40.5
t-29.5 -40.5t-48.5 -31.5t-75 -12.5q-41 0 -73 16.5t-54 45t-33.5 66.5t-11.5 82q0 42 7.5 71t20.5 47t30.5 26.5t36.5 8.5q20 0 38.5 -2.5t33 -12t23 -28.5t8.5 -52t5 -46.5t19 -13.5z" />
    <glyph glyph-name="lozenge" unicode="&#x25ca;" horiz-adv-x="656" 
d="M425 210q0 -41 -16.5 -79t-45 -67t-66.5 -46.5t-82 -17.5h-98q-20 0 -37.5 7.5t-30 20.5t-20 30.5t-7.5 36.5q0 20 5 38.5t16.5 33t29.5 23t44 8.5h32q41 0 56.5 10.5t18.5 41.5q0 2 -0.5 37t-0.5 86v109.5v107.5q0 41 16.5 79t45 67t66.5 46.5t82 17.5h98
q20 0 37.5 -7.5t30 -20.5t20 -30.5t7.5 -36.5q0 -20 -5 -38.5t-16.5 -33t-29.5 -23t-44 -8.5h-32q-41 0 -57 -12t-18 -46q0 -1 0.5 -17.5t0.5 -40v-50.5v-51v-40.5v-17.5v-117z" />
    <glyph glyph-name="apple" unicode="&#xf8ff;" horiz-adv-x="1794" 
d="M776 -85q14 11 23 24.5t9 31.5q0 14 -6 30.5t-31 22.5q2 -12 4 -27.5t2 -39.5q0 -26 -12.5 -45t-31.5 -31t-42.5 -17.5t-45.5 -5.5q-15 0 -30 4.5t-27.5 13.5t-20 21.5t-7.5 28.5q0 17 7 27.5t16.5 16.5t19.5 8t16 2q11 0 16 -1q8 15 22 28.5t35 22.5v3q-2 8 -2.5 16
t-0.5 14q-11 -22 -28 -37t-42 -15t-41 26t-16 64q0 19 7 40.5t15.5 43.5t15.5 41.5t7 33.5q0 17 -3 23t-8 6q-8 0 -15 -5t-13 -11.5t-9.5 -12.5t-4.5 -9q0 -25 -12.5 -41.5t-31.5 -25.5q0 -92 -37 -136t-109 -44q-19 0 -37.5 4t-32.5 14t-23 25.5t-9 38.5q0 26 15 48t40 22
q17 0 24.5 -12t7.5 -25q0 -25 -13.5 -46.5t-38.5 -21.5q-5 0 -10.5 2t-10.5 4q4 -15 17 -25.5t26 -10.5q21 0 36.5 15t27 38.5t19.5 52.5t14 57q-31 13 -45 40q-12 -5 -18 -5q-71 0 -71 75q0 27 10.5 53.5t29 47.5t44 33.5t54.5 12.5q30 0 49 -5t32.5 -11t23.5 -11t22 -5
q5 0 10 0.5t10 1.5v-5q-34 -8 -65.5 -30t-51.5 -50q-3 24 -20 38.5t-43 14.5q-19 0 -36 -8.5t-30 -22.5t-21 -32t-8 -37q0 -53 58 -53q10 0 18 4q-7 14 -7 35q0 28 14.5 44.5t26.5 16.5q11 0 16.5 -7.5t5.5 -17.5q0 -21 -14.5 -41.5t-31.5 -31.5q6 -13 16.5 -21.5
t23.5 -13.5q8 34 20.5 68t38.5 65l14.5 14.5t21.5 19t25.5 17.5t26.5 9v-7q-18 -9 -29.5 -24.5t-18 -34t-9 -39.5t-2.5 -40q0 -21 3 -47q17 8 28.5 23t11.5 35q0 14 -4 27t-11 20v2q8 -5 12.5 -16t6.5 -22q6 12 21.5 26.5t40.5 14.5q15 0 26.5 -8t19 -21t11 -30.5t3.5 -35.5
q0 -12 -7 -31.5t-15.5 -41t-15.5 -44t-7 -40.5q0 -21 12 -21q13 0 23.5 14t19.5 37t16 52.5t13 59.5t11.5 58t10.5 49q8 -4 16 -7t17 -3q14 0 23.5 7t19.5 13q-5 -25 -13 -59.5t-15.5 -70t-12 -69t-3.5 -57.5l1 -17q20 -5 33 -21t13 -42q0 -20 -9 -35t-21 -25h-9zM1599 18
q-3 -15 -12 -27t-22 -20.5t-28 -12.5t-29 -4q-35 0 -67 12q-34 -34 -71.5 -54.5t-71.5 -20.5q-32 0 -53 27.5t-21 93.5q-2 -1 -7 -1q-18 0 -35.5 8.5t-31 25.5t-22 43t-8.5 61q0 20 14 46.5t36.5 50.5t51.5 41t59 17q20 0 35 -15.5t15 -51.5q0 -23 -12.5 -42.5t-31 -34
t-41 -23.5t-43.5 -11q-6 -34 -9 -58t-3 -25q0 -11 7.5 -16.5t18.5 -5.5q4 0 7 1v1q0 17 6.5 38t17.5 40t26.5 31.5t34.5 12.5q9 0 13 -8t4 -17q0 -16 -8.5 -34t-22 -33.5t-30 -26.5t-33.5 -13q0 -59 20.5 -84.5t51.5 -25.5q28 0 61 18.5t64 49.5q-35 17 -57.5 47.5
t-22.5 74.5q0 15 4.5 30t13 28t21 23t28.5 13v-4q-31 -9 -45.5 -36.5t-14.5 -57.5q0 -37 23 -65.5t58 -43.5q24 26 44.5 59t31.5 70l-114 35l50 20l-67 136l54 -16l-12 80l52 -59l31 45l31 -98l42 135l21 -35l79 46v-89h49l-104 -103l103 29l-17 -53l78 -8l-75 -36l40 -32
l-143 -27l9 -51l-88 71q-15 -35 -35.5 -66.5t-46.5 -57.5q26 -9 53 -9q38 0 59 13.5t33 38.5h4zM735 461q-8 4 -15.5 7.5t-17.5 3.5q-14 0 -22 -3t-17 -9q2 12 6 33.5t8.5 48t9.5 55t9 54t6.5 45t2.5 28.5q0 7 -2 12t-7 5q-12 0 -20.5 -16.5t-16.5 -36.5h-10q4 12 8.5 23.5
t12 21t18 15.5t25.5 6q28 0 41.5 -17t17.5 -40q6 8 13 18t15 19t18 15t23 6q16 0 27.5 -10t19.5 -26.5t12 -37t4 -41.5q0 -36 -8 -67t-17 -59t-17 -54.5t-8 -55.5q0 -27 7 -42t17.5 -23.5t23 -14t24 -13t20.5 -20t13 -36.5q18 31 31 40t28 9q19 0 33 -14t23.5 -34.5t14 -42
t4.5 -36.5q0 -17 -4 -37t-12 -40q8 -12 13.5 -26.5t5.5 -31.5q0 -20 -6 -40.5t-18 -37.5t-29.5 -28t-40.5 -11q-17 0 -28.5 9t-11.5 26q0 11 8.5 19.5t19.5 8.5q6 0 9 -1v-4q-9 0 -19 -6t-10 -17q0 -13 9 -20t20 -7q20 0 36 11.5t28 28.5t18.5 36.5t6.5 36.5q0 13 -4 24
t-10 21q-14 -31 -36 -55.5t-52 -24.5q-23 0 -31 16.5t-8 36.5q0 19 6 33t15 23.5t18.5 15t16.5 6.5q3 18 5.5 39t4.5 40.5t3.5 35t1.5 24.5q0 2 -3 6t-9 4q-4 0 -11.5 -4.5t-14.5 -14t-12 -24.5t-5 -36q0 -10 -4.5 -38.5t-11 -65t-14.5 -76.5t-15 -74.5t-12.5 -58
t-6.5 -27.5q-8 4 -15.5 7t-17.5 3q-14 0 -23.5 -7t-18.5 -13q2 12 8 44.5t14.5 75t17 90.5t16 89.5t12.5 72.5t5 40q0 23 -7.5 35t-18.5 21.5t-24 19.5t-24 27.5t-18.5 46t-7.5 74.5q0 27 7 54.5t16 56t16 57t7 55.5q0 22 -9 22q-11 0 -29 -21t-32 -56q-1 -14 -7 -46
t-12 -65.5t-11.5 -61t-7.5 -32.5zM202 323q5 0 12.5 2.5t14 7t11.5 11t5 15.5q0 4 -1 6q-12 -5 -24.5 -6.5t-24.5 -1.5q-9 0 -24 2t-28.5 7t-23.5 13t-10 21q0 9 5.5 14.5t14 9t17.5 5t15 1.5q11 0 24 -3.5t25.5 -10t23 -15.5t16.5 -19q19 8 32.5 22.5t13.5 35.5
q0 22 -11 36q-16 -10 -33.5 -15.5t-37.5 -5.5q-29 0 -54 10.5t-43.5 31t-29 49.5t-10.5 65q0 20 13 54q-17 12 -25 31t-8 42t7.5 46t21 41.5t32.5 30.5t41 12q6 0 16 -2v-6q-4 1 -12 1q-21 0 -38.5 -11t-31 -28.5t-21 -39t-7.5 -42.5q0 -20 7 -36.5t23 -27.5q16 36 42 76.5
t55.5 74.5t59 56.5t52.5 22.5q13 0 21 -6.5t12 -17t5.5 -22t1.5 -22.5q0 -28 -13 -55.5t-34.5 -50.5t-48 -41.5t-53.5 -28.5q0 -1 -0.5 -1.5t-0.5 -2.5q-4 -17 -9 -37t-9.5 -39.5t-7 -37.5t-2.5 -33q0 -16 6.5 -25.5t15 -14t16 -6t8.5 -1.5q33 0 63 22q-10 7 -21.5 9.5
t-22.5 2.5q-9 0 -21 -2.5t-14 -4.5v4q5 5 16 8t17 3q30 0 52 -14q24 20 38.5 51t14.5 63q0 9 -1 19.5t-5 18.5t-11 13.5t-18 5.5q-18 0 -32.5 -9t-24.5 -22.5t-15.5 -30.5t-5.5 -33q0 -9 4.5 -23t18.5 -14q10 0 17.5 7t12.5 17t7.5 21t2.5 20q0 3 -1 7t-2 9h8q2 -5 2 -9.5
v-6.5q0 -11 -3.5 -23.5t-10 -23.5t-15 -18.5t-18.5 -7.5q-19 0 -24.5 16.5t-5.5 31.5q0 16 6 33.5t16.5 32.5t25.5 24.5t34 9.5q27 0 42.5 -24t15.5 -56t-16.5 -61t-44.5 -49q16 -16 16 -43q0 -26 -16 -43t-39 -27q1 -2 1 -5q0 -20 -17 -32.5t-34 -12.5h-5zM1406 869
q8 -4 16 -7t17 -3q14 0 23.5 7t19.5 13q-2 -12 -8 -42.5t-13.5 -70t-16 -84t-15.5 -83t-11.5 -67.5t-4.5 -38q0 -7 2 -12t7 -5q9 0 18.5 10.5t17 25.5t13.5 31.5t9 27.5h11q-1 -7 -6.5 -24.5t-15 -36t-23 -33t-32.5 -14.5q-20 0 -38.5 14.5t-25.5 46.5q-10 -20 -19 -32.5
t-16.5 -19t-14.5 -9t-15 -2.5q-19 0 -32.5 13.5t-22.5 33.5t-13 42t-4 39q0 22 14 50.5t34 54t43.5 43t42.5 17.5q20 0 30 -24q5 26 10 49.5t9 42.5t6.5 31t3.5 15zM1200 530q-3 -12 -7.5 -23.5t-11 -21.5t-16 -16t-23.5 -6q-20 0 -37 14.5t-23 46.5q-21 -40 -35 -51
t-30 -11q-19 0 -32.5 13.5t-22.5 33.5t-13 42t-4 39q0 22 14 50.5t34 54t43.5 43t42.5 17.5q22 0 32 -29l7 26q8 -4 15.5 -7t17.5 -3q14 0 23.5 7t18.5 13q-3 -18 -11 -57t-16 -81.5t-14.5 -79.5t-6.5 -50q0 -17 8 -17q12 0 20.5 16.5t16.5 36.5h10zM1764 530
q-3 -12 -7.5 -23.5t-11 -21.5t-16 -16t-23.5 -6q-20 0 -37 14.5t-23 46.5q-21 -40 -35 -51t-30 -11q-19 0 -32.5 13.5t-22.5 33.5t-13 42t-4 39q0 22 14 50.5t34 54t43.5 43t42.5 17.5q22 0 32 -29l7 26q8 -4 15.5 -7t17.5 -3q14 0 23.5 7t18.5 13q-3 -18 -11 -57t-16 -81.5
t-14.5 -79.5t-6.5 -50q0 -17 8 -17q12 0 20.5 16.5t16.5 36.5h10zM630 530q-3 -12 -7 -23.5t-11 -21.5t-16.5 -16t-23.5 -6q-20 0 -37 14.5t-23 46.5q-10 -20 -18.5 -32t-16 -19t-15 -9t-15.5 -2q-19 0 -32.5 13.5t-22 33.5t-12.5 42t-4 39q0 22 14 50.5t34 54t43.5 43
t42.5 17.5q21 0 31 -29l7 26q8 -4 16 -7t17 -3q14 0 23.5 7t19.5 13q-3 -18 -11 -57t-16.5 -81.5t-15 -79.5t-6.5 -50q0 -17 9 -17q12 0 20.5 16.5t16.5 36.5h9zM153 214q-10 -14 -28 -27t-38 -13q-25 0 -44.5 13t-19.5 36q0 19 9.5 31t23.5 18.5t30.5 9t31.5 2.5
q56 0 86 -28.5t30 -76.5q0 -21 -11 -41t-26 -36.5t-30 -29t-23 -17.5l18 -4q24 -5 45 -12t40 -18.5t36.5 -27.5t35.5 -39h-2v-2q-6 2 -11 3t-10 1q-18 0 -25 -8.5t-7 -19.5q0 -15 10 -25.5t24 -17t29.5 -9.5t26.5 -3q17 0 33.5 7.5t25.5 18.5h-4q-8 0 -20.5 2.5t-24 8
t-19.5 14.5t-8 22q0 15 9.5 21.5t23.5 6.5q23 0 42.5 -15.5t19.5 -36.5q0 -4 -2 -10q14 3 27.5 9.5t24.5 17t18 24.5t7 33q0 11 -1 18.5t-5 19.5h4q2 -4 4.5 -15.5t2.5 -22.5q0 -38 -25.5 -63.5t-60.5 -31.5q-10 -18 -31.5 -26.5t-40.5 -8.5q-14 0 -31 3.5t-31.5 11
t-24.5 19t-10 28.5q0 14 8.5 25t24.5 11h6.5t8.5 -2q-43 38 -84 55t-98 17q-23 0 -48 -2.5t-60 -7.5q31 11 52.5 17t40.5 13q23 8 43.5 22.5t36.5 32.5t25.5 37.5t9.5 37.5q0 45 -29 67.5t-71 22.5q-13 0 -29 -1.5t-29.5 -6.5t-22.5 -15.5t-9 -27.5t17.5 -26t36.5 -9t35 11
t31 24v-9zM719 -72q0 21 -10 46.5t-15 44.5q-17 -5 -30 -15.5t-21 -27.5q20 -7 28.5 -21.5t8.5 -23.5q0 -7 -5.5 -16t-19.5 -9q-12 0 -20 12.5t-8 25.5v9t2 9q-5 1 -8.5 1h-7.5q-19 0 -30.5 -10.5t-11.5 -29.5q0 -14 6.5 -24.5t16.5 -18t23 -11t26 -3.5q12 0 25 4t24.5 12
t19 19.5t7.5 26.5zM1051 680q-2 -10 -7 -37t-10.5 -58t-9.5 -59t-4 -40q0 -3 1 -7t7 -4q14 0 27.5 21t24.5 69q2 23 8.5 57.5t13.5 66.5q0 33 -5 44.5t-13 11.5q-9 0 -15 -7.5t-9.5 -18t-5 -21.5t-3.5 -18zM1615 680q-2 -10 -7 -37t-10.5 -58t-9.5 -59t-4 -40q0 -3 1 -7
t7 -4q14 0 27.5 21t24.5 69q2 23 8.5 57.5t13.5 66.5q0 33 -5 44.5t-13 11.5q-9 0 -15 -7.5t-9.5 -18t-5 -21.5t-3.5 -18zM482 680q-2 -10 -7 -37t-10.5 -58t-9.5 -59t-4 -40q0 -3 1 -7t7 -4q13 0 26.5 21t24.5 69q2 23 8.5 57.5t14.5 66.5q0 33 -5.5 44.5t-12.5 11.5
t-12.5 -8t-10 -18.5t-7 -21.5t-3.5 -17zM1319 680q-2 -10 -7 -37t-10.5 -58t-9.5 -59t-4 -40q0 -3 1 -7t7 -4q13 0 22 11t17 36.5t16 69t19 107.5q-1 27 -6.5 36.5t-11.5 9.5q-9 0 -15 -7.5t-9.5 -18t-5 -21.5t-3.5 -18zM256 833q0 -1 -7 -19t-16.5 -43t-19 -51.5
t-15.5 -45.5q25 11 47.5 31.5t39 46.5t26.5 56t10 60q0 10 -3 17.5t-14 7.5t-21 -12t-27 -48zM1489 485q-7 -44 -36 -65t-60 -26q-1 -26 -27 -47t-62 -21q-13 0 -27 3t-26 10t-19.5 19t-7.5 30q0 19 16 37t37 19v-4q-16 -3 -29.5 -15.5t-13.5 -29.5q0 -16 6 -26t16.5 -15.5
t23.5 -7.5t26 -2t26.5 2t25 7.5t19.5 15.5t9 25q-3 -1 -7 -1q-23 0 -39 9t-16 25q0 8 8 14t15 6q16 0 28.5 -12.5t16.5 -28.5q31 4 59 26t36 53h2zM1276 294q-12 0 -23 -14.5t-20 -37.5t-16 -51t-12 -55q20 3 35 19t25 37t15.5 43t5.5 37q0 22 -10 22zM909 394
q17 -20 40 -35t55 -15q12 0 23.5 3t19.5 10q-15 3 -37 9.5t-42.5 19t-34.5 31t-14 44.5q0 8 1.5 17.5t8.5 16.5l4 -4q-5 -15 -5 -27q0 -24 13.5 -40.5t33 -28t42 -17t41.5 -7.5q3 8 3 17q0 23 -18.5 39t-43.5 16q-10 0 -20.5 -2.5t-19.5 -7.5l-4 1q8 8 19.5 11.5t22.5 3.5
q13 0 25.5 -4.5t22.5 -12t16.5 -18.5t6.5 -25q0 -10 -3 -18h4q16 0 33 4t32 13t25.5 23t14.5 33l10 -5q-3 -17 -14 -32t-27 -26.5t-36 -18.5t-41 -7h-11q-8 -8 -21 -12t-27 -4q-29 0 -57 13t-42 41zM1231 23q12 0 26.5 10t27.5 25t21.5 32.5t8.5 32.5q0 5 -1.5 9.5t-7.5 4.5
q-15 0 -28.5 -11.5t-24 -28.5t-16.5 -36.5t-6 -35.5v-2zM189 369q26 0 51 9q-11 20 -35 32.5t-44 12.5q-4 0 -11 -1t-13.5 -3t-11 -6.5t-4.5 -12.5q0 -10 7 -16t17.5 -9.5t22.5 -4.5t21 -1zM707 412q-5 -2 -10.5 -4t-11.5 -2q-10 0 -17.5 5t-7.5 14q0 12 13.5 18.5t24.5 6.5
q17 0 30 -9t13 -26t-13.5 -23.5t-24.5 -6.5l-59 7q-11 0 -24.5 -6t-13.5 -21q0 -10 9 -14t17 -4q12 0 25 5t25.5 11.5t24 11.5t20.5 5q26 0 43 -18t17 -46l-6 1v3q-5 29 -20.5 39t-26.5 10q-9 0 -18.5 -4.5t-21 -10t-26 -10t-34.5 -4.5q-18 0 -26 8t-8 17q0 18 16 25t28 7
l58 -6q11 0 21.5 4.5t10.5 18.5q0 15 -11.5 22.5t-25.5 7.5q-10 0 -19.5 -4.5t-9.5 -13.5q0 -13 16 -13q12 0 21 6zM953 58q0 -9 5 -21.5t19 -12.5q6 0 10.5 12t7 29t4.5 35.5t3 30.5q-11 -1 -20 -8t-15.5 -17.5t-10 -23t-3.5 -24.5zM404 -92q10 0 14.5 2.5t4.5 13.5
q0 18 -16.5 30t-32.5 12q-11 0 -19 -6t-8 -19q0 -9 6 -15.5t15 -10.5t19 -5.5t17 -1.5zM370 264q0 -19 5 -29q16 11 29 29t13 35q0 8 -3 14t-12 6q-10 0 -16 -6t-9.5 -14.5t-5 -18t-1.5 -16.5zM1385 406q-3 14 -12 23.5t-23 9.5q-6 0 -10.5 -2.5t-4.5 -10.5q0 -12 14.5 -16
t31.5 -4h4zM668 -72q0 11 -9 18.5t-20 12.5q-1 -3 -1 -6.5v-6.5q0 -10 3.5 -20t11.5 -10q9 0 12 4t3 8z" />
    <glyph glyph-name="fi" unicode="&#xfb01;" horiz-adv-x="726" 
d="M409 404q0 -20 -5 -38.5t-16.5 -33t-29.5 -23t-44 -8.5h-64v-216q0 -26 -9 -44t-24 -29.5t-34 -16.5t-38 -5t-36.5 7.5t-30.5 20t-20.5 30t-7.5 37.5v505q0 41 16.5 79t45 67t66.5 46.5t82 17.5h78q20 0 37.5 -7.5t30 -20.5t20 -30.5t7.5 -36.5q0 -20 -5 -38.5t-16.5 -33
t-29.5 -23t-44 -8.5h-12q-46 0 -61 -15t-15 -59v-29h64q20 0 37.5 -7.5t30 -20.5t20 -30.5t7.5 -36.5zM571 -10q-19 0 -36.5 7.5t-30.5 20t-20.5 30t-7.5 37.5v420q0 26 9 44t24 29.5t34 16.5t38 5t36.5 -7.5t30.5 -20t20.5 -30t7.5 -37.5v-420q0 -26 -9 -44t-24 -29.5
t-34 -16.5t-38 -5z" />
    <glyph glyph-name="fl" unicode="&#xfb02;" horiz-adv-x="736" 
d="M409 404q0 -20 -5 -38.5t-16.5 -33t-29.5 -23t-44 -8.5h-64v-216q0 -26 -9 -44t-24 -29.5t-34 -16.5t-38 -5t-36.5 7.5t-30.5 20t-20.5 30t-7.5 37.5v505q0 41 16.5 79t45 67t66.5 46.5t82 17.5h78q20 0 37.5 -7.5t30 -20.5t20 -30.5t7.5 -36.5q0 -20 -5 -38.5t-16.5 -33
t-29.5 -23t-44 -8.5h-12q-46 0 -61 -15t-15 -59v-29h64q20 0 37.5 -7.5t30 -20.5t20 -30.5t7.5 -36.5zM581 -10q-19 0 -36.5 7.5t-30.5 20t-20.5 30t-7.5 37.5v620q0 26 9 44t24 29.5t34 16.5t38 5t36.5 -7.5t30.5 -20t20.5 -30t7.5 -37.5v-620q0 -26 -9 -44t-24 -29.5
t-34 -16.5t-38 -5z" />
    </font>
</defs>
</svg>
